<svg xmlns="http://www.w3.org/2000/svg" xmlns:xlink="http://www.w3.org/1999/xlink" width="60" zoomAndPan="magnify" viewBox="0 0 60 60" height="60" preserveAspectRatio="xMidYMid meet" version="1.0"><defs><filter x="0%" y="0%" width="100%" xlink:type="simple" xlink:actuate="onLoad" height="100%" id="id1" xlink:show="other"><feColorMatrix values="0 0 0 0 1 0 0 0 0 1 0 0 0 0 1 0 0 0 1 0" color-interpolation-filters="sRGB"/></filter><mask id="id2"><g filter="url(#id1)"><rect x="-6" width="72" fill="rgb(0%, 0%, 0%)" y="-6" height="72" fill-opacity="0.2471"/></g></mask><clipPath id="id3"><path d="M 3 9 L 44 9 L 44 41 L 3 41 Z M 3 9 " clip-rule="nonzero"/></clipPath><clipPath id="id4"><path d="M 51.390625 33.636719 L 9.746094 50.691406 L -5.03125 14.597656 L 36.609375 -2.453125 Z M 51.390625 33.636719 " clip-rule="nonzero"/></clipPath><clipPath id="id5"><path d="M 51.390625 33.636719 L 9.746094 50.691406 L -5.03125 14.597656 L 36.609375 -2.453125 Z M 51.390625 33.636719 " clip-rule="nonzero"/></clipPath><clipPath id="id6"><rect x="0" width="47" y="0" height="48"/></clipPath><clipPath id="id7"><path d="M 5 7 L 55.421875 7 L 55.421875 56.792969 L 5 56.792969 Z M 5 7 " clip-rule="nonzero"/></clipPath><clipPath id="id8"><path d="M 32 2.792969 L 45 2.792969 L 45 23 L 32 23 Z M 32 2.792969 " clip-rule="nonzero"/></clipPath></defs><g mask="url(#id2)"><g transform="matrix(1, 0, 0, 1, 7, 6)"><g clip-path="url(#id6)"><g clip-path="url(#id3)"><g clip-path="url(#id4)"><g clip-path="url(#id5)"><path fill="rgb(100%, 100%, 100%)" d="M 18.492188 39.460938 C 10.882812 36.726562 -3.410156 18.480469 7.496094 11.304688 C 14.871094 6.449219 16.027344 14.199219 26.117188 20.253906 C 29.460938 22.253906 45.832031 20.144531 43.410156 30.488281 C 41.972656 36.621094 28.441406 43.035156 18.492188 39.460938 Z M 18.492188 39.460938 " fill-opacity="1" fill-rule="nonzero"/></g></g></g></g></g></g><g clip-path="url(#id7)"><path fill="rgb(97.24884%, 97.648621%, 98.039246%)" d="M 45.328125 11.976562 C 45.261719 11.925781 45.183594 11.902344 45.097656 11.914062 C 45.015625 11.925781 44.945312 11.964844 44.894531 12.035156 C 44.84375 12.105469 44.824219 12.179688 44.839844 12.265625 C 44.851562 12.351562 44.894531 12.417969 44.964844 12.46875 C 51.050781 17.007812 54.589844 23.992188 54.683594 31.628906 C 54.714844 34.164062 54.359375 36.644531 53.617188 39.066406 C 53.148438 39.664062 52.683594 40.265625 52.203125 40.851562 C 51.65625 41.53125 51.082031 42.175781 50.46875 42.792969 C 50.332031 42.929688 50.1875 43.0625 50.042969 43.1875 C 49.976562 43.25 49.90625 43.3125 49.832031 43.371094 L 49.734375 43.453125 L 49.691406 43.484375 C 49.722656 43.460938 49.683594 43.484375 49.671875 43.5 C 49.324219 43.765625 48.949219 43.992188 48.589844 44.246094 C 48.199219 44.503906 47.84375 44.808594 47.53125 45.15625 C 47.230469 45.511719 47.015625 45.910156 46.894531 46.359375 C 46.652344 47.265625 46.777344 48.117188 47.273438 48.914062 C 47.335938 49.007812 47.40625 49.097656 47.476562 49.1875 C 46.363281 50.296875 45.152344 51.285156 43.84375 52.152344 C 42.539062 53.023438 41.160156 53.757812 39.710938 54.355469 C 38.257812 54.953125 36.765625 55.402344 35.226562 55.707031 C 33.6875 56.011719 32.132812 56.164062 30.566406 56.160156 L 30.523438 56.160156 C 28.972656 56.167969 27.4375 56.023438 25.914062 55.734375 C 24.390625 55.441406 22.910156 55.003906 21.472656 54.425781 C 20.035156 53.84375 18.664062 53.132812 17.363281 52.285156 C 16.0625 51.441406 14.855469 50.476562 13.738281 49.394531 C 14.109375 48.746094 14.304688 48.042969 14.320312 47.292969 C 14.335938 46.542969 14.171875 45.835938 13.828125 45.167969 C 13.488281 44.519531 12.953125 44.03125 12.449219 43.519531 C 12.324219 43.390625 12.210938 43.265625 12.097656 43.140625 L 12.023438 43.046875 L 12.015625 43.039062 C 12.003906 43.023438 11.992188 43.007812 11.984375 42.996094 C 11.933594 42.929688 11.886719 42.859375 11.84375 42.789062 C 11.804688 42.722656 11.765625 42.65625 11.730469 42.585938 L 11.703125 42.527344 C 11.691406 42.488281 11.675781 42.449219 11.660156 42.410156 C 11.636719 42.335938 11.617188 42.261719 11.605469 42.183594 C 11.605469 42.167969 11.597656 42.148438 11.597656 42.132812 L 11.597656 42.117188 C 11.597656 42.074219 11.597656 42.035156 11.589844 41.988281 C 11.589844 41.925781 11.589844 41.863281 11.597656 41.792969 C 11.597656 41.792969 11.597656 41.800781 11.597656 41.804688 C 11.601562 41.785156 11.605469 41.769531 11.605469 41.75 C 11.605469 41.71875 11.617188 41.683594 11.628906 41.648438 C 11.644531 41.585938 11.660156 41.523438 11.683594 41.464844 C 11.695312 41.429688 11.707031 41.398438 11.71875 41.367188 L 11.734375 41.324219 C 11.855469 41.066406 12.003906 40.828125 12.175781 40.601562 C 12.1875 40.585938 12.199219 40.570312 12.207031 40.558594 L 12.269531 40.480469 L 12.414062 40.300781 C 12.507812 40.1875 12.601562 40.074219 12.695312 39.957031 C 12.894531 39.722656 13.074219 39.472656 13.238281 39.210938 C 13.558594 38.675781 13.722656 38.035156 13.523438 37.421875 C 13.289062 36.703125 12.664062 36.183594 12.003906 35.863281 C 11.222656 35.5 10.398438 35.300781 9.535156 35.257812 C 8.660156 35.207031 7.804688 35.304688 6.964844 35.558594 C 6.855469 35.589844 6.746094 35.628906 6.640625 35.667969 C 6.460938 34.484375 6.367188 33.292969 6.359375 32.097656 C 6.335938 29.253906 6.796875 26.492188 7.746094 23.8125 C 7.878906 23.4375 8.09375 23.117188 8.386719 22.847656 C 8.679688 22.578125 9.019531 22.390625 9.402344 22.289062 C 10.425781 22 11.195312 22 11.566406 22.289062 C 11.773438 22.441406 11.871094 22.699219 11.871094 23.066406 C 11.871094 24.265625 11.324219 25.414062 10.738281 26.636719 C 10.152344 27.855469 9.546875 29.128906 9.546875 30.46875 C 9.546875 31.199219 9.617188 31.972656 10.140625 32.1875 C 10.859375 32.488281 11.863281 31.644531 14.710938 28.789062 C 16.355469 27.136719 17.949219 26.769531 19.230469 26.46875 C 20.691406 26.125 21.957031 25.835938 22.386719 23.796875 C 22.773438 21.949219 22.105469 20.167969 21.515625 18.597656 C 20.945312 17.082031 20.410156 15.660156 20.894531 14.429688 C 21.425781 13.074219 22.015625 12.507812 22.519531 12.132812 C 22.78125 11.945312 23.007812 11.71875 23.199219 11.457031 C 23.386719 11.195312 23.53125 10.90625 23.632812 10.597656 C 23.730469 10.289062 23.78125 9.972656 23.777344 9.648438 C 23.777344 9.324219 23.726562 9.007812 23.621094 8.699219 C 25.699219 8.082031 27.820312 7.75 29.988281 7.703125 L 29.996094 7.703125 C 30.246094 7.703125 30.484375 7.695312 30.730469 7.703125 C 30.816406 7.703125 30.886719 7.671875 30.945312 7.613281 C 31.007812 7.554688 31.035156 7.480469 31.035156 7.398438 C 31.035156 7.3125 31.007812 7.242188 30.945312 7.179688 C 30.886719 7.121094 30.816406 7.09375 30.730469 7.09375 L 30.460938 7.09375 C 28.765625 7.09375 27.089844 7.265625 25.429688 7.613281 C 23.769531 7.960938 22.160156 8.472656 20.605469 9.148438 C 19.050781 9.828125 17.582031 10.65625 16.195312 11.636719 C 14.8125 12.617188 13.539062 13.730469 12.382812 14.972656 C 12.324219 15.03125 12.296875 15.105469 12.296875 15.191406 C 12.300781 15.277344 12.332031 15.347656 12.394531 15.40625 C 12.457031 15.464844 12.53125 15.492188 12.617188 15.488281 C 12.699219 15.484375 12.769531 15.449219 12.828125 15.386719 C 15.667969 12.332031 19.070312 10.164062 23.03125 8.875 C 23.203125 9.382812 23.207031 9.890625 23.046875 10.402344 C 22.882812 10.914062 22.585938 11.324219 22.148438 11.636719 C 21.578125 12.0625 20.910156 12.699219 20.320312 14.199219 C 19.75 15.648438 20.328125 17.183594 20.941406 18.808594 C 21.527344 20.371094 22.136719 21.988281 21.785156 23.664062 C 21.433594 25.316406 20.550781 25.523438 19.085938 25.863281 C 17.730469 26.179688 16.042969 26.574219 14.273438 28.351562 C 12.898438 29.726562 10.828125 31.804688 10.367188 31.617188 C 10.332031 31.601562 10.152344 31.476562 10.152344 30.464844 C 10.152344 29.261719 10.699219 28.113281 11.285156 26.894531 C 11.871094 25.671875 12.476562 24.398438 12.476562 23.058594 C 12.476562 22.496094 12.292969 22.070312 11.929688 21.792969 C 11.386719 21.382812 10.480469 21.347656 9.234375 21.699219 C 8.753906 21.832031 8.335938 22.066406 7.96875 22.402344 C 7.605469 22.742188 7.339844 23.144531 7.171875 23.613281 C 7.007812 24.078125 6.855469 24.550781 6.714844 25.023438 C 6.578125 25.5 6.453125 25.980469 6.34375 26.464844 C 6.234375 26.945312 6.140625 27.433594 6.058594 27.921875 C 5.980469 28.410156 5.914062 28.898438 5.863281 29.394531 C 5.8125 29.886719 5.777344 30.378906 5.753906 30.875 C 5.734375 31.371094 5.726562 31.863281 5.734375 32.359375 C 5.742188 32.855469 5.765625 33.351562 5.800781 33.84375 C 5.839844 34.335938 5.890625 34.832031 5.957031 35.320312 C 6.027344 35.8125 6.105469 36.300781 6.203125 36.785156 C 6.300781 37.273438 6.410156 37.753906 6.535156 38.234375 C 6.660156 38.714844 6.796875 39.1875 6.953125 39.660156 C 7.105469 40.128906 7.273438 40.597656 7.453125 41.058594 C 7.632812 41.519531 7.828125 41.972656 8.039062 42.421875 C 8.246094 42.871094 8.46875 43.3125 8.703125 43.75 C 8.9375 44.1875 9.183594 44.613281 9.445312 45.035156 C 9.703125 45.457031 9.976562 45.867188 10.261719 46.273438 C 10.546875 46.679688 10.84375 47.074219 11.152344 47.460938 C 11.460938 47.847656 11.78125 48.226562 12.113281 48.59375 C 12.441406 48.960938 12.785156 49.316406 13.136719 49.664062 C 13.488281 50.011719 13.851562 50.347656 14.222656 50.671875 C 14.597656 51 14.976562 51.3125 15.371094 51.613281 C 15.761719 51.917969 16.160156 52.207031 16.570312 52.484375 C 16.976562 52.765625 17.394531 53.03125 17.820312 53.285156 C 18.242188 53.535156 18.675781 53.777344 19.113281 54.003906 C 19.550781 54.230469 19.996094 54.445312 20.449219 54.648438 C 20.902344 54.847656 21.359375 55.035156 21.820312 55.207031 C 22.285156 55.378906 22.75 55.539062 23.222656 55.683594 C 23.695312 55.832031 24.171875 55.960938 24.652344 56.078125 C 25.132812 56.195312 25.613281 56.296875 26.101562 56.382812 C 26.585938 56.472656 27.074219 56.542969 27.566406 56.601562 C 28.054688 56.660156 28.546875 56.703125 29.042969 56.730469 C 29.535156 56.761719 30.027344 56.773438 30.523438 56.773438 L 30.566406 56.773438 C 31.382812 56.773438 32.199219 56.730469 33.011719 56.648438 C 33.824219 56.566406 34.628906 56.445312 35.429688 56.28125 C 36.230469 56.117188 37.019531 55.917969 37.800781 55.675781 C 38.582031 55.4375 39.347656 55.15625 40.101562 54.839844 C 40.855469 54.523438 41.589844 54.171875 42.308594 53.78125 C 43.027344 53.390625 43.726562 52.964844 44.402344 52.507812 C 45.078125 52.046875 45.730469 51.558594 46.359375 51.035156 C 46.988281 50.507812 47.589844 49.957031 48.160156 49.371094 C 48.734375 48.789062 49.277344 48.179688 49.792969 47.542969 C 50.304688 46.90625 50.785156 46.242188 51.234375 45.558594 C 51.683594 44.875 52.09375 44.167969 52.472656 43.441406 C 52.851562 42.71875 53.195312 41.972656 53.5 41.214844 C 53.804688 40.453125 54.074219 39.679688 54.300781 38.894531 C 54.53125 38.109375 54.71875 37.3125 54.871094 36.507812 C 55.019531 35.703125 55.132812 34.890625 55.203125 34.074219 C 55.273438 33.261719 55.304688 32.441406 55.292969 31.625 C 55.199219 23.792969 51.566406 16.632812 45.328125 11.976562 Z M 6.742188 36.285156 C 7.066406 36.167969 7.398438 36.070312 7.734375 36 C 7.835938 35.980469 7.9375 35.960938 8.035156 35.945312 L 8.195312 35.921875 L 8.203125 35.921875 L 8.316406 35.90625 C 8.519531 35.886719 8.722656 35.871094 8.925781 35.867188 C 9.132812 35.859375 9.355469 35.867188 9.566406 35.878906 C 9.671875 35.886719 9.769531 35.894531 9.875 35.90625 L 9.992188 35.921875 L 10.039062 35.929688 L 10.125 35.941406 C 10.535156 36.003906 10.9375 36.105469 11.328125 36.242188 L 11.453125 36.292969 L 11.515625 36.316406 C 11.597656 36.351562 11.679688 36.390625 11.761719 36.429688 C 11.914062 36.507812 12.058594 36.59375 12.199219 36.691406 C 12.234375 36.714844 12.269531 36.738281 12.300781 36.765625 L 12.351562 36.808594 C 12.421875 36.867188 12.488281 36.925781 12.550781 36.992188 C 12.605469 37.042969 12.652344 37.09375 12.699219 37.152344 C 12.691406 37.144531 12.6875 37.136719 12.699219 37.164062 L 12.738281 37.21875 C 12.761719 37.253906 12.785156 37.289062 12.804688 37.328125 C 12.828125 37.363281 12.847656 37.402344 12.867188 37.441406 C 12.875 37.453125 12.878906 37.46875 12.886719 37.480469 C 12.886719 37.484375 12.886719 37.488281 12.886719 37.492188 C 12.925781 37.566406 12.949219 37.648438 12.960938 37.734375 C 12.972656 37.765625 12.976562 37.800781 12.980469 37.832031 L 12.980469 37.851562 C 12.980469 37.867188 12.980469 37.882812 12.980469 37.898438 C 12.984375 37.96875 12.984375 38.039062 12.980469 38.105469 C 12.980469 38.132812 12.957031 38.25 12.980469 38.144531 C 12.972656 38.175781 12.972656 38.203125 12.964844 38.230469 C 12.957031 38.300781 12.945312 38.367188 12.929688 38.433594 C 12.914062 38.488281 12.890625 38.542969 12.871094 38.597656 L 12.851562 38.640625 L 12.804688 38.734375 C 12.738281 38.859375 12.667969 38.976562 12.589844 39.09375 C 12.550781 39.148438 12.515625 39.199219 12.476562 39.253906 C 12.457031 39.28125 12.433594 39.308594 12.414062 39.335938 C 12.402344 39.347656 12.390625 39.367188 12.378906 39.378906 C 12.199219 39.605469 12.015625 39.828125 11.835938 40.050781 C 11.472656 40.503906 11.109375 41.003906 11.007812 41.585938 C 10.941406 41.925781 10.964844 42.257812 11.070312 42.585938 C 11.195312 42.929688 11.375 43.234375 11.613281 43.511719 C 11.832031 43.769531 12.066406 44.019531 12.3125 44.253906 C 12.4375 44.378906 12.554688 44.496094 12.671875 44.621094 C 12.726562 44.679688 12.78125 44.738281 12.832031 44.796875 L 12.917969 44.898438 L 12.945312 44.933594 L 12.96875 44.960938 C 13.074219 45.101562 13.167969 45.25 13.253906 45.402344 C 13.292969 45.472656 13.328125 45.546875 13.363281 45.621094 C 13.382812 45.660156 13.398438 45.699219 13.414062 45.738281 L 13.449219 45.824219 C 13.511719 45.988281 13.5625 46.15625 13.601562 46.328125 C 13.621094 46.410156 13.636719 46.492188 13.652344 46.570312 C 13.652344 46.609375 13.667969 46.652344 13.671875 46.699219 C 13.671875 46.730469 13.675781 46.757812 13.679688 46.789062 C 13.699219 46.960938 13.703125 47.132812 13.703125 47.304688 C 13.703125 47.390625 13.695312 47.476562 13.6875 47.558594 C 13.6875 47.605469 13.679688 47.652344 13.671875 47.699219 C 13.671875 47.699219 13.671875 47.730469 13.671875 47.738281 C 13.671875 47.75 13.671875 47.765625 13.667969 47.777344 C 13.640625 47.949219 13.601562 48.117188 13.554688 48.285156 C 13.53125 48.367188 13.503906 48.449219 13.476562 48.527344 L 13.425781 48.65625 L 13.390625 48.730469 C 13.359375 48.804688 13.320312 48.875 13.285156 48.941406 C 11.582031 47.214844 10.171875 45.269531 9.054688 43.113281 C 7.941406 40.953125 7.171875 38.679688 6.742188 36.285156 Z M 47.417969 46.824219 Z M 47.589844 48.207031 L 47.601562 48.230469 C 47.59375 48.222656 47.59375 48.214844 47.589844 48.207031 Z M 47.910156 48.757812 L 47.867188 48.703125 C 47.839844 48.660156 47.8125 48.617188 47.785156 48.574219 C 47.730469 48.492188 47.683594 48.402344 47.636719 48.3125 L 47.605469 48.238281 C 47.585938 48.1875 47.566406 48.136719 47.546875 48.085938 C 47.515625 47.992188 47.488281 47.894531 47.464844 47.796875 C 47.453125 47.753906 47.445312 47.707031 47.4375 47.660156 C 47.4375 47.636719 47.429688 47.609375 47.425781 47.582031 C 47.421875 47.554688 47.425781 47.5625 47.425781 47.558594 C 47.414062 47.460938 47.40625 47.359375 47.40625 47.257812 C 47.402344 47.15625 47.40625 47.054688 47.414062 46.957031 C 47.414062 46.929688 47.414062 46.902344 47.421875 46.875 L 47.421875 46.863281 C 47.4375 46.8125 47.445312 46.757812 47.449219 46.703125 C 47.46875 46.605469 47.496094 46.507812 47.523438 46.414062 C 47.539062 46.371094 47.554688 46.324219 47.570312 46.285156 C 47.585938 46.246094 47.589844 46.234375 47.597656 46.210938 C 47.605469 46.1875 47.589844 46.230469 47.589844 46.230469 C 47.59375 46.214844 47.601562 46.203125 47.609375 46.1875 C 47.648438 46.097656 47.695312 46.007812 47.746094 45.921875 C 47.773438 45.878906 47.800781 45.835938 47.828125 45.796875 L 47.871094 45.734375 L 47.902344 45.691406 C 48.035156 45.523438 48.183594 45.367188 48.347656 45.222656 C 48.429688 45.152344 48.511719 45.082031 48.597656 45.015625 L 48.617188 45 L 48.6875 44.949219 L 48.820312 44.851562 C 49.179688 44.597656 49.554688 44.363281 49.914062 44.101562 C 50.214844 43.875 50.503906 43.632812 50.777344 43.367188 C 51.378906 42.78125 51.941406 42.164062 52.472656 41.511719 C 52.65625 41.289062 52.839844 41.0625 53.019531 40.839844 C 51.839844 43.816406 50.136719 46.457031 47.910156 48.753906 Z M 47.910156 48.757812 " fill-opacity="1" fill-rule="nonzero"/></g><path fill="rgb(97.24884%, 97.648621%, 98.039246%)" d="M 29.65625 26.519531 C 29.839844 27.085938 30.1875 27.511719 30.699219 27.800781 C 31.28125 28.113281 31.886719 28.167969 32.511719 27.964844 C 33.101562 27.785156 33.625 27.492188 34.085938 27.082031 C 34.1875 27.191406 34.296875 27.300781 34.40625 27.40625 C 34.871094 27.863281 35.425781 28.167969 36.0625 28.308594 C 36.765625 28.449219 37.472656 28.375 38.179688 28.328125 C 38.816406 28.273438 39.453125 28.296875 40.085938 28.40625 C 41.304688 28.640625 42.441406 29.214844 43.253906 30.164062 C 44.066406 31.101562 44.433594 32.1875 44.347656 33.425781 C 44.320312 33.699219 44.265625 33.964844 44.1875 34.226562 C 44.109375 34.480469 44.007812 34.726562 43.882812 34.957031 C 43.621094 35.445312 43.285156 35.882812 42.882812 36.261719 C 42.476562 36.65625 42.027344 36.996094 41.53125 37.273438 C 41.003906 37.574219 40.453125 37.8125 39.871094 37.984375 C 38.503906 38.410156 37.074219 38.570312 35.65625 38.734375 C 34.328125 38.890625 32.996094 39.058594 31.714844 39.453125 C 30.492188 39.832031 29.3125 40.410156 28.386719 41.308594 C 27.417969 42.242188 26.785156 43.472656 25.796875 44.386719 C 25.363281 44.804688 24.859375 45.105469 24.285156 45.289062 C 24.003906 45.375 23.71875 45.402344 23.425781 45.375 C 23.402344 45.371094 23.375 45.371094 23.351562 45.367188 L 23.25 45.34375 C 23.175781 45.328125 23.101562 45.308594 23.03125 45.28125 C 22.917969 45.234375 22.820312 45.167969 22.730469 45.085938 C 22.683594 45.046875 22.648438 45 22.617188 44.949219 C 22.585938 44.898438 22.558594 44.847656 22.535156 44.792969 C 22.507812 44.726562 22.488281 44.652344 22.472656 44.582031 C 22.457031 44.523438 22.449219 44.464844 22.445312 44.40625 C 22.429688 44.257812 22.429688 44.109375 22.445312 43.960938 C 22.445312 43.929688 22.449219 43.898438 22.453125 43.867188 C 22.453125 43.855469 22.453125 43.824219 22.464844 43.8125 C 22.472656 43.75 22.488281 43.6875 22.5 43.621094 C 22.53125 43.492188 22.566406 43.367188 22.605469 43.242188 C 22.628906 43.179688 22.652344 43.117188 22.675781 43.0625 C 22.675781 43.054688 22.675781 43.046875 22.675781 43.042969 L 22.683594 43.023438 C 22.699219 42.992188 22.710938 42.960938 22.726562 42.929688 C 22.839844 42.691406 22.964844 42.464844 23.113281 42.25 C 23.183594 42.136719 23.261719 42.027344 23.34375 41.921875 C 23.410156 41.832031 23.46875 41.753906 23.5625 41.640625 C 23.734375 41.425781 23.917969 41.21875 24.097656 41.007812 C 24.464844 40.589844 24.839844 40.179688 25.183594 39.746094 C 25.957031 38.816406 26.429688 37.753906 26.59375 36.554688 C 26.785156 35.332031 26.730469 34.097656 26.679688 32.863281 C 26.65625 32.25 26.636719 31.636719 26.648438 31.023438 C 26.65625 30.722656 26.667969 30.421875 26.699219 30.121094 C 26.722656 29.839844 26.765625 29.5625 26.824219 29.285156 C 26.929688 28.734375 27.109375 28.207031 27.367188 27.707031 C 27.40625 27.632812 27.417969 27.554688 27.394531 27.472656 C 27.375 27.394531 27.328125 27.332031 27.257812 27.285156 C 27.183594 27.246094 27.109375 27.234375 27.027344 27.253906 C 26.945312 27.277344 26.882812 27.324219 26.839844 27.394531 C 26.25 28.523438 26.066406 29.796875 26.042969 31.058594 C 26.015625 32.324219 26.136719 33.585938 26.125 34.851562 C 26.125 35.460938 26.074219 36.066406 25.972656 36.664062 C 25.867188 37.253906 25.675781 37.8125 25.402344 38.339844 C 24.871094 39.339844 24.070312 40.101562 23.332031 40.976562 C 22.589844 41.847656 21.933594 42.816406 21.832031 43.984375 C 21.777344 44.65625 21.972656 45.382812 22.589844 45.738281 C 23.171875 46.074219 23.9375 46.042969 24.558594 45.835938 C 25.898438 45.398438 26.785156 44.269531 27.597656 43.183594 C 27.996094 42.613281 28.449219 42.089844 28.949219 41.605469 C 29.417969 41.1875 29.941406 40.839844 30.507812 40.566406 C 31.644531 40.007812 32.949219 39.714844 34.214844 39.523438 C 35.683594 39.304688 37.167969 39.207031 38.625 38.917969 C 39.945312 38.660156 41.246094 38.230469 42.359375 37.464844 C 43.367188 36.777344 44.210938 35.851562 44.660156 34.707031 C 45.136719 33.496094 45.027344 32.148438 44.492188 30.980469 C 43.90625 29.742188 42.992188 28.847656 41.746094 28.296875 C 41.113281 28.011719 40.453125 27.824219 39.765625 27.738281 C 39.078125 27.652344 38.398438 27.699219 37.710938 27.746094 C 37.351562 27.777344 36.988281 27.785156 36.628906 27.769531 C 36.464844 27.761719 36.304688 27.738281 36.148438 27.703125 C 36.070312 27.683594 35.992188 27.664062 35.917969 27.640625 L 35.792969 27.597656 L 35.707031 27.5625 C 35.257812 27.34375 34.867188 27.046875 34.539062 26.667969 C 34.921875 26.289062 35.285156 25.882812 35.652344 25.503906 C 36.074219 25.039062 36.5625 24.660156 37.113281 24.367188 C 37.1875 24.324219 37.234375 24.261719 37.253906 24.179688 C 37.277344 24.097656 37.265625 24.019531 37.226562 23.949219 C 37.179688 23.875 37.117188 23.828125 37.039062 23.808594 C 36.957031 23.789062 36.878906 23.796875 36.804688 23.835938 C 35.710938 24.382812 34.992188 25.390625 34.132812 26.226562 C 33.8125 25.832031 33.453125 25.476562 33.058594 25.160156 C 32.601562 24.820312 32.085938 24.617188 31.519531 24.546875 C 30.960938 24.460938 30.464844 24.609375 30.042969 24.988281 C 29.839844 25.1875 29.707031 25.425781 29.636719 25.703125 C 29.566406 25.976562 29.574219 26.25 29.65625 26.519531 Z M 30.488281 26.820312 C 30.464844 26.792969 30.484375 26.816406 30.488281 26.820312 Z M 30.257812 25.726562 Z M 30.203125 25.929688 C 30.203125 25.949219 30.203125 25.949219 30.203125 25.929688 Z M 30.203125 25.964844 C 30.203125 25.953125 30.203125 25.941406 30.203125 25.929688 C 30.214844 25.875 30.226562 25.824219 30.242188 25.773438 C 30.242188 25.757812 30.253906 25.742188 30.257812 25.726562 C 30.265625 25.710938 30.285156 25.671875 30.300781 25.644531 L 30.34375 25.570312 L 30.375 25.53125 C 30.410156 25.484375 30.449219 25.441406 30.492188 25.402344 C 30.503906 25.390625 30.519531 25.375 30.535156 25.363281 L 30.570312 25.335938 C 30.621094 25.304688 30.671875 25.273438 30.726562 25.246094 C 30.738281 25.246094 30.761719 25.234375 30.769531 25.230469 L 30.820312 25.210938 C 30.878906 25.191406 30.9375 25.175781 31 25.164062 L 31.058594 25.15625 L 31.101562 25.15625 C 31.167969 25.148438 31.230469 25.144531 31.292969 25.148438 C 31.347656 25.148438 31.40625 25.148438 31.460938 25.15625 L 31.511719 25.15625 L 31.605469 25.171875 C 31.730469 25.199219 31.851562 25.230469 31.972656 25.269531 C 32.023438 25.289062 32.074219 25.308594 32.125 25.328125 L 32.1875 25.355469 L 32.28125 25.398438 C 32.398438 25.457031 32.507812 25.523438 32.617188 25.59375 C 32.660156 25.625 32.703125 25.65625 32.75 25.6875 L 32.796875 25.726562 L 32.875 25.792969 C 32.984375 25.890625 33.089844 25.996094 33.191406 26.101562 C 33.359375 26.273438 33.515625 26.453125 33.675781 26.632812 C 33.300781 26.960938 32.875 27.203125 32.398438 27.363281 C 32.117188 27.453125 31.832031 27.484375 31.539062 27.457031 L 31.503906 27.457031 L 31.417969 27.441406 C 31.351562 27.425781 31.289062 27.40625 31.222656 27.382812 L 31.175781 27.367188 L 31.109375 27.335938 C 31.050781 27.304688 30.988281 27.273438 30.929688 27.234375 C 30.886719 27.207031 30.839844 27.175781 30.796875 27.140625 C 30.785156 27.132812 30.753906 27.105469 30.746094 27.101562 C 30.71875 27.078125 30.695312 27.054688 30.671875 27.03125 C 30.625 26.992188 30.585938 26.949219 30.542969 26.902344 C 30.523438 26.878906 30.503906 26.855469 30.484375 26.828125 L 30.449219 26.785156 C 30.417969 26.734375 30.386719 26.6875 30.359375 26.640625 C 30.34375 26.609375 30.328125 26.582031 30.3125 26.550781 C 30.3125 26.542969 30.292969 26.507812 30.285156 26.496094 C 30.246094 26.394531 30.214844 26.289062 30.199219 26.179688 C 30.199219 26.171875 30.199219 26.152344 30.199219 26.140625 C 30.199219 26.132812 30.199219 26.089844 30.199219 26.0625 C 30.199219 26.035156 30.199219 25.992188 30.199219 25.964844 Z M 30.203125 25.964844 " fill-opacity="1" fill-rule="nonzero"/><path fill="rgb(97.24884%, 97.648621%, 98.039246%)" d="M 41.132812 51.136719 C 41.214844 51.136719 41.292969 51.136719 41.371094 51.136719 C 41.433594 51.132812 41.5 51.136719 41.5625 51.148438 L 41.582031 51.148438 L 41.625 51.15625 C 41.667969 51.164062 41.707031 51.175781 41.75 51.1875 C 41.785156 51.195312 41.816406 51.207031 41.847656 51.21875 L 41.859375 51.21875 L 41.886719 51.230469 C 41.914062 51.242188 41.945312 51.257812 41.972656 51.277344 L 42.011719 51.304688 C 42.035156 51.324219 42.058594 51.34375 42.082031 51.367188 L 42.105469 51.394531 C 42.121094 51.421875 42.140625 51.445312 42.152344 51.472656 C 42.167969 51.5 42.167969 51.5 42.175781 51.515625 C 42.175781 51.515625 42.175781 51.519531 42.175781 51.523438 C 42.199219 51.601562 42.246094 51.664062 42.320312 51.707031 C 42.394531 51.746094 42.472656 51.757812 42.550781 51.734375 C 42.632812 51.710938 42.695312 51.664062 42.734375 51.589844 C 42.777344 51.515625 42.789062 51.4375 42.765625 51.355469 C 42.636719 50.996094 42.390625 50.753906 42.03125 50.625 C 41.71875 50.515625 41.394531 50.476562 41.0625 50.515625 C 40.726562 50.554688 40.394531 50.621094 40.066406 50.710938 C 39.988281 50.730469 39.910156 50.746094 39.828125 50.761719 C 39.789062 50.769531 39.75 50.777344 39.707031 50.78125 L 39.660156 50.789062 L 39.621094 50.789062 C 39.457031 50.8125 39.296875 50.824219 39.132812 50.816406 L 39.082031 50.816406 C 39.042969 50.808594 39.007812 50.800781 38.972656 50.792969 C 38.9375 50.785156 38.902344 50.773438 38.871094 50.757812 L 38.851562 50.75 L 38.835938 50.75 L 38.808594 50.734375 C 38.777344 50.71875 38.746094 50.699219 38.71875 50.679688 L 38.683594 50.652344 C 38.660156 50.628906 38.632812 50.601562 38.609375 50.574219 L 38.566406 50.507812 C 38.550781 50.484375 38.539062 50.457031 38.527344 50.433594 L 38.527344 50.425781 C 38.507812 50.378906 38.492188 50.332031 38.480469 50.285156 C 38.453125 50.191406 38.433594 50.089844 38.417969 49.992188 C 38.390625 49.804688 38.347656 49.617188 38.292969 49.433594 C 38.035156 48.753906 37.574219 48.28125 36.90625 48.011719 C 36.234375 47.71875 35.542969 47.660156 34.832031 47.832031 C 34.023438 48.027344 33.3125 48.492188 32.691406 49.042969 C 32.09375 49.570312 31.597656 50.1875 31.070312 50.785156 C 30.8125 51.082031 30.535156 51.359375 30.238281 51.621094 L 30.132812 51.707031 L 30.078125 51.753906 L 30.066406 51.761719 C 29.984375 51.824219 29.902344 51.890625 29.8125 51.9375 C 29.644531 52.046875 29.472656 52.140625 29.289062 52.222656 L 29.28125 52.222656 L 29.261719 52.226562 L 29.191406 52.253906 L 29.027344 52.3125 C 28.921875 52.347656 28.816406 52.375 28.710938 52.402344 C 28.492188 52.457031 28.269531 52.496094 28.050781 52.527344 C 27.617188 52.585938 27.191406 52.667969 26.765625 52.769531 C 26.058594 52.964844 25.332031 53.355469 24.949219 54.007812 C 24.851562 54.171875 24.785156 54.347656 24.742188 54.53125 C 24.71875 54.613281 24.730469 54.691406 24.769531 54.761719 C 24.8125 54.835938 24.875 54.882812 24.953125 54.90625 C 25.035156 54.929688 25.113281 54.917969 25.1875 54.878906 C 25.257812 54.835938 25.308594 54.773438 25.328125 54.695312 C 25.347656 54.621094 25.367188 54.550781 25.394531 54.480469 C 25.394531 54.488281 25.421875 54.417969 25.429688 54.402344 C 25.453125 54.359375 25.476562 54.316406 25.5 54.277344 C 25.523438 54.242188 25.546875 54.207031 25.566406 54.175781 L 25.609375 54.125 C 25.664062 54.0625 25.722656 54 25.785156 53.945312 C 25.816406 53.917969 25.847656 53.890625 25.878906 53.863281 L 25.902344 53.84375 L 25.933594 53.820312 C 26.007812 53.769531 26.082031 53.722656 26.15625 53.679688 C 26.234375 53.632812 26.304688 53.597656 26.382812 53.558594 L 26.484375 53.511719 L 26.507812 53.503906 L 26.589844 53.472656 C 27.367188 53.179688 28.214844 53.171875 29.007812 52.953125 C 29.417969 52.839844 29.796875 52.667969 30.152344 52.433594 C 30.484375 52.207031 30.792969 51.949219 31.074219 51.660156 C 31.617188 51.113281 32.082031 50.492188 32.625 49.9375 C 32.761719 49.792969 32.902344 49.65625 33.050781 49.519531 C 33.121094 49.460938 33.1875 49.402344 33.253906 49.34375 L 33.363281 49.253906 L 33.421875 49.210938 L 33.433594 49.199219 L 33.449219 49.1875 C 33.753906 48.953125 34.085938 48.753906 34.4375 48.59375 L 34.472656 48.578125 L 34.519531 48.558594 L 34.644531 48.511719 C 34.738281 48.480469 34.832031 48.449219 34.925781 48.425781 C 35.019531 48.402344 35.089844 48.386719 35.175781 48.371094 C 35.195312 48.371094 35.316406 48.339844 35.230469 48.363281 C 35.277344 48.351562 35.320312 48.347656 35.367188 48.347656 C 35.519531 48.335938 35.675781 48.335938 35.828125 48.347656 L 35.941406 48.359375 L 35.953125 48.359375 L 35.996094 48.363281 C 36.082031 48.378906 36.164062 48.398438 36.25 48.417969 C 36.335938 48.441406 36.398438 48.457031 36.46875 48.484375 L 36.578125 48.523438 L 36.617188 48.539062 L 36.625 48.539062 L 36.640625 48.546875 C 36.78125 48.609375 36.914062 48.683594 37.042969 48.769531 L 37.113281 48.820312 L 37.175781 48.871094 C 37.234375 48.921875 37.296875 48.976562 37.351562 49.035156 C 37.375 49.0625 37.398438 49.089844 37.425781 49.117188 L 37.453125 49.152344 C 37.492188 49.210938 37.535156 49.269531 37.570312 49.332031 C 37.605469 49.390625 37.632812 49.449219 37.660156 49.511719 C 37.660156 49.527344 37.683594 49.570312 37.6875 49.582031 C 37.699219 49.625 37.714844 49.667969 37.726562 49.707031 C 37.777344 49.902344 37.796875 50.101562 37.839844 50.296875 C 37.90625 50.707031 38.117188 51.019531 38.46875 51.238281 C 39.082031 51.582031 39.855469 51.417969 40.5 51.246094 C 40.648438 51.199219 40.800781 51.167969 40.957031 51.148438 C 40.871094 51.15625 40.992188 51.148438 41.011719 51.148438 Z M 30.078125 51.71875 Z M 38.503906 50.386719 C 38.496094 50.375 38.503906 50.378906 38.503906 50.386719 Z M 38.835938 50.738281 L 38.863281 50.75 C 38.863281 50.75 38.847656 50.742188 38.835938 50.738281 Z M 39.09375 50.808594 L 39.121094 50.808594 C 39.113281 50.8125 39.105469 50.816406 39.09375 50.816406 Z M 39.09375 50.808594 " fill-opacity="1" fill-rule="nonzero"/><path fill="rgb(97.24884%, 97.648621%, 98.039246%)" d="M 12.210938 40.5625 L 12.199219 40.574219 C 12.191406 40.582031 12.175781 40.617188 12.210938 40.5625 Z M 12.210938 40.5625 " fill-opacity="1" fill-rule="nonzero"/><path fill="rgb(97.24884%, 97.648621%, 98.039246%)" d="M 12.417969 39.335938 C 12.367188 39.394531 12.40625 39.351562 12.417969 39.335938 Z M 12.417969 39.335938 " fill-opacity="1" fill-rule="nonzero"/><path fill="rgb(97.24884%, 97.648621%, 98.039246%)" d="M 11.59375 41.789062 C 11.613281 41.71875 11.597656 41.765625 11.59375 41.789062 Z M 11.59375 41.789062 " fill-opacity="1" fill-rule="nonzero"/><path fill="rgb(97.24884%, 97.648621%, 98.039246%)" d="M 33.25 7.132812 L 33.261719 7.113281 Z M 33.25 7.132812 " fill-opacity="1" fill-rule="nonzero"/><g clip-path="url(#id8)"><path fill="rgb(97.24884%, 97.648621%, 98.039246%)" d="M 34.855469 17.335938 C 35.769531 18.824219 36.738281 20.28125 37.648438 21.773438 C 37.777344 21.988281 37.90625 22.203125 38.035156 22.417969 C 38.0625 22.464844 38.101562 22.5 38.148438 22.527344 C 38.195312 22.550781 38.246094 22.566406 38.300781 22.566406 C 38.351562 22.566406 38.402344 22.550781 38.449219 22.527344 C 38.496094 22.5 38.535156 22.464844 38.5625 22.417969 C 39.460938 21.097656 40.277344 19.726562 41.011719 18.304688 C 41.363281 17.644531 41.707031 16.976562 42.054688 16.316406 C 42.417969 15.632812 42.773438 14.949219 43.0625 14.234375 C 43.65625 12.789062 44.019531 11.289062 44.152344 9.730469 C 44.21875 8.988281 44.21875 8.25 44.152344 7.507812 C 44.097656 6.878906 43.941406 6.28125 43.675781 5.710938 C 43.40625 5.160156 43.019531 4.710938 42.515625 4.367188 C 41.921875 3.96875 41.273438 3.738281 40.5625 3.671875 C 39.839844 3.589844 39.15625 3.71875 38.511719 4.058594 C 38.199219 4.234375 37.914062 4.445312 37.648438 4.691406 C 37.402344 4.910156 37.175781 5.152344 36.972656 5.410156 C 36.117188 6.496094 35.632812 7.875 35.800781 9.265625 C 35.964844 10.597656 36.667969 11.984375 37.90625 12.609375 C 38.484375 12.902344 39.203125 13.050781 39.824219 12.800781 C 40.542969 12.515625 40.921875 11.84375 41.132812 11.136719 C 41.347656 10.425781 41.421875 9.589844 41.171875 8.859375 C 40.929688 8.136719 40.449219 7.644531 39.738281 7.382812 C 39.414062 7.269531 39.085938 7.246094 38.75 7.316406 C 38.667969 7.339844 38.609375 7.386719 38.566406 7.460938 C 38.523438 7.535156 38.515625 7.613281 38.539062 7.695312 C 38.5625 7.777344 38.613281 7.835938 38.683594 7.878906 C 38.757812 7.917969 38.835938 7.929688 38.917969 7.910156 C 38.929688 7.910156 38.996094 7.898438 38.992188 7.898438 L 39.082031 7.898438 C 39.148438 7.894531 39.214844 7.898438 39.28125 7.90625 L 39.355469 7.917969 C 39.390625 7.925781 39.425781 7.933594 39.460938 7.945312 L 39.550781 7.972656 L 39.632812 8.003906 C 39.761719 8.058594 39.882812 8.132812 39.992188 8.214844 L 40.054688 8.261719 L 40.125 8.328125 C 40.183594 8.382812 40.238281 8.441406 40.289062 8.503906 L 40.324219 8.546875 L 40.328125 8.554688 C 40.347656 8.582031 40.367188 8.609375 40.386719 8.636719 C 40.429688 8.703125 40.46875 8.769531 40.503906 8.84375 C 40.535156 8.898438 40.558594 8.957031 40.578125 9.015625 C 40.609375 9.105469 40.636719 9.191406 40.65625 9.28125 C 40.695312 9.4375 40.71875 9.59375 40.71875 9.75 C 40.726562 9.929688 40.71875 10.105469 40.699219 10.28125 C 40.699219 10.296875 40.699219 10.3125 40.699219 10.328125 C 40.699219 10.332031 40.699219 10.339844 40.699219 10.34375 C 40.691406 10.386719 40.683594 10.429688 40.675781 10.46875 C 40.660156 10.554688 40.640625 10.640625 40.621094 10.730469 C 40.582031 10.894531 40.53125 11.058594 40.472656 11.222656 C 40.457031 11.261719 40.441406 11.300781 40.425781 11.335938 L 40.425781 11.34375 L 40.390625 11.398438 C 40.355469 11.476562 40.3125 11.554688 40.265625 11.628906 C 40.195312 11.761719 40.109375 11.875 40 11.976562 C 39.972656 12.003906 39.941406 12.03125 39.910156 12.058594 L 39.902344 12.058594 L 39.867188 12.082031 C 39.804688 12.128906 39.738281 12.167969 39.667969 12.199219 L 39.640625 12.210938 L 39.632812 12.210938 L 39.535156 12.246094 C 39.464844 12.265625 39.390625 12.285156 39.320312 12.292969 L 39.277344 12.292969 C 39.242188 12.292969 39.207031 12.292969 39.171875 12.292969 C 39.09375 12.296875 39.019531 12.292969 38.941406 12.289062 L 38.882812 12.28125 L 38.792969 12.261719 C 38.722656 12.25 38.648438 12.230469 38.578125 12.210938 C 38.507812 12.191406 38.4375 12.164062 38.367188 12.136719 L 38.351562 12.15625 L 38.316406 12.136719 C 38.28125 12.125 38.246094 12.105469 38.210938 12.089844 C 38.078125 12.019531 37.945312 11.941406 37.824219 11.855469 L 37.761719 11.804688 L 37.6875 11.746094 C 37.628906 11.695312 37.574219 11.644531 37.519531 11.589844 C 37.410156 11.480469 37.304688 11.363281 37.210938 11.242188 L 37.203125 11.230469 L 37.097656 11.089844 C 37.054688 11.023438 37.011719 10.964844 36.972656 10.890625 C 36.890625 10.757812 36.816406 10.621094 36.753906 10.476562 L 36.710938 10.382812 L 36.683594 10.320312 C 36.652344 10.242188 36.625 10.164062 36.601562 10.085938 C 36.550781 9.9375 36.507812 9.785156 36.472656 9.628906 C 36.457031 9.558594 36.445312 9.484375 36.433594 9.414062 C 36.425781 9.375 36.417969 9.335938 36.414062 9.296875 C 36.414062 9.269531 36.414062 9.242188 36.402344 9.21875 C 36.386719 9.0625 36.378906 8.902344 36.378906 8.746094 C 36.375 8.589844 36.382812 8.429688 36.398438 8.273438 L 36.410156 8.171875 L 36.410156 8.164062 L 36.417969 8.105469 C 36.429688 8.027344 36.445312 7.949219 36.460938 7.871094 C 36.492188 7.714844 36.535156 7.5625 36.578125 7.410156 C 36.601562 7.339844 36.625 7.269531 36.652344 7.199219 C 36.664062 7.160156 36.679688 7.125 36.695312 7.085938 C 36.699219 7.066406 36.707031 7.050781 36.714844 7.03125 L 36.714844 7.007812 C 36.839844 6.714844 36.992188 6.433594 37.167969 6.167969 C 37.210938 6.105469 37.253906 6.042969 37.296875 5.984375 C 37.316406 5.949219 37.34375 5.917969 37.367188 5.886719 L 37.378906 5.867188 L 37.421875 5.820312 C 37.519531 5.691406 37.625 5.574219 37.734375 5.457031 C 37.847656 5.34375 37.953125 5.238281 38.066406 5.136719 C 38.125 5.082031 38.195312 5.03125 38.25 4.976562 L 38.34375 4.902344 L 38.359375 4.890625 L 38.398438 4.859375 C 38.527344 4.761719 38.664062 4.671875 38.808594 4.59375 C 38.878906 4.558594 38.945312 4.523438 39.015625 4.492188 C 39.03125 4.492188 39.070312 4.472656 39.078125 4.46875 L 39.203125 4.421875 C 39.355469 4.371094 39.511719 4.332031 39.667969 4.304688 L 39.75 4.292969 C 39.785156 4.289062 39.820312 4.285156 39.855469 4.285156 C 39.9375 4.277344 40.015625 4.273438 40.097656 4.269531 C 40.730469 4.257812 41.328125 4.402344 41.886719 4.699219 C 42.011719 4.769531 42.132812 4.84375 42.25 4.925781 L 42.320312 4.980469 L 42.359375 5.011719 C 42.417969 5.0625 42.472656 5.109375 42.523438 5.15625 C 42.617188 5.246094 42.703125 5.34375 42.785156 5.441406 C 42.796875 5.457031 42.804688 5.46875 42.8125 5.480469 C 42.832031 5.503906 42.847656 5.527344 42.867188 5.550781 C 42.90625 5.609375 42.945312 5.667969 42.980469 5.726562 C 43.050781 5.839844 43.117188 5.957031 43.171875 6.078125 C 43.1875 6.109375 43.199219 6.140625 43.214844 6.171875 C 43.21875 6.179688 43.222656 6.191406 43.226562 6.203125 C 43.253906 6.269531 43.277344 6.335938 43.300781 6.40625 C 43.390625 6.671875 43.457031 6.945312 43.503906 7.226562 C 43.503906 7.257812 43.511719 7.289062 43.515625 7.320312 C 43.515625 7.332031 43.515625 7.34375 43.515625 7.355469 C 43.515625 7.359375 43.515625 7.367188 43.515625 7.375 C 43.527344 7.445312 43.535156 7.519531 43.539062 7.59375 C 43.554688 7.757812 43.566406 7.921875 43.570312 8.085938 C 43.585938 8.453125 43.585938 8.820312 43.570312 9.183594 C 43.542969 9.902344 43.457031 10.613281 43.3125 11.316406 C 43.164062 12.035156 42.96875 12.742188 42.71875 13.433594 C 42.476562 14.105469 42.1875 14.757812 41.851562 15.386719 C 41.527344 16.007812 41.195312 16.625 40.871094 17.246094 C 40.175781 18.574219 39.46875 19.898438 38.660156 21.164062 C 38.546875 21.34375 38.425781 21.527344 38.304688 21.707031 C 37.460938 20.316406 36.578125 18.957031 35.714844 17.578125 C 35.324219 16.957031 34.941406 16.328125 34.582031 15.683594 C 34.414062 15.382812 34.25 15.074219 34.097656 14.761719 C 34.023438 14.609375 33.953125 14.460938 33.882812 14.304688 L 33.789062 14.101562 L 33.742188 13.988281 L 33.730469 13.964844 C 33.730469 13.957031 33.707031 13.90625 33.707031 13.902344 C 33.457031 13.292969 33.253906 12.667969 33.105469 12.027344 C 33.027344 11.699219 32.960938 11.367188 32.914062 11.03125 L 32.898438 10.925781 C 32.898438 10.925781 32.890625 10.855469 32.886719 10.84375 C 32.875 10.75 32.863281 10.65625 32.855469 10.566406 C 32.835938 10.386719 32.820312 10.207031 32.8125 10.027344 C 32.785156 9.660156 32.785156 9.292969 32.8125 8.925781 C 32.8125 8.839844 32.828125 8.757812 32.835938 8.675781 C 32.835938 8.65625 32.847656 8.597656 32.835938 8.660156 L 32.84375 8.605469 C 32.851562 8.554688 32.859375 8.5 32.871094 8.445312 C 32.902344 8.269531 32.941406 8.09375 32.988281 7.917969 C 33.039062 7.742188 33.089844 7.570312 33.152344 7.402344 C 33.183594 7.316406 33.21875 7.230469 33.25 7.148438 C 33.253906 7.140625 33.257812 7.136719 33.261719 7.128906 C 33.265625 7.117188 33.273438 7.101562 33.277344 7.089844 C 33.296875 7.042969 33.320312 7 33.339844 6.953125 C 33.492188 6.625 33.671875 6.308594 33.878906 6.007812 C 33.929688 5.933594 33.980469 5.859375 34.035156 5.785156 L 34.066406 5.742188 L 34.097656 5.707031 C 34.105469 5.691406 34.121094 5.671875 34.121094 5.675781 L 34.171875 5.609375 C 34.285156 5.46875 34.40625 5.332031 34.53125 5.203125 C 34.65625 5.074219 34.78125 4.949219 34.921875 4.824219 C 34.988281 4.761719 35.058594 4.703125 35.125 4.644531 L 35.222656 4.570312 L 35.257812 4.539062 L 35.296875 4.507812 C 35.589844 4.289062 35.894531 4.097656 36.214844 3.933594 C 36.296875 3.890625 36.378906 3.851562 36.457031 3.8125 L 36.585938 3.757812 L 36.601562 3.757812 L 36.660156 3.734375 C 36.828125 3.664062 37 3.605469 37.171875 3.554688 C 37.347656 3.5 37.523438 3.460938 37.699219 3.429688 C 37.78125 3.40625 37.84375 3.355469 37.886719 3.28125 C 37.925781 3.207031 37.9375 3.128906 37.914062 3.050781 C 37.890625 2.96875 37.839844 2.90625 37.769531 2.867188 C 37.695312 2.824219 37.617188 2.8125 37.535156 2.835938 C 36 3.164062 34.742188 3.941406 33.757812 5.164062 C 32.789062 6.347656 32.1875 7.835938 32.179688 9.378906 C 32.179688 10.816406 32.425781 12.207031 32.921875 13.554688 C 33.414062 14.875 34.113281 16.125 34.855469 17.335938 Z M 40.316406 8.535156 Z M 40.316406 8.535156 " fill-opacity="1" fill-rule="nonzero"/></g></svg>