<svg xmlns="http://www.w3.org/2000/svg" xmlns:xlink="http://www.w3.org/1999/xlink" width="224.87999" zoomAndPan="magnify" viewBox="0 0 224.87999 74.999997" height="74.999997" preserveAspectRatio="xMidYMid meet" version="1.0"><defs><filter x="0%" y="0%" width="100%" xlink:type="simple" xlink:actuate="onLoad" height="100%" id="id1" xlink:show="other"><feColorMatrix values="0 0 0 0 1 0 0 0 0 1 0 0 0 0 1 0 0 0 1 0" color-interpolation-filters="sRGB"/></filter><g><g id="id2"/></g><mask id="id3"><g filter="url(#id1)"><rect x="-22.487999" width="269.855988" fill="rgb(0%, 0%, 0%)" y="-7.5" height="89.999996" fill-opacity="0.2471"/></g></mask><clipPath id="id4"><path d="M 4 13 L 60 13 L 60 56 L 4 56 Z M 4 13 " clip-rule="nonzero"/></clipPath><clipPath id="id5"><path d="M 70.351562 46.351562 L 13.46875 69.648438 L -6.984375 19.703125 L 49.898438 -3.59375 Z M 70.351562 46.351562 " clip-rule="nonzero"/></clipPath><clipPath id="id6"><path d="M 70.351562 46.351562 L 13.46875 69.648438 L -6.984375 19.703125 L 49.898438 -3.59375 Z M 70.351562 46.351562 " clip-rule="nonzero"/></clipPath><clipPath id="id7"><rect x="0" width="64" y="0" height="65"/></clipPath><clipPath id="id8"><path d="M 25 6 L 93.386719 6 L 93.386719 74.179688 L 25 74.179688 Z M 25 6 " clip-rule="nonzero"/></clipPath><clipPath id="id9"><path d="M 61 0.71875 L 79 0.71875 L 79 28 L 61 28 Z M 61 0.71875 " clip-rule="nonzero"/></clipPath></defs><g mask="url(#id3)"><g transform="matrix(1, 0, 0, 1, 23, 4)"><g clip-path="url(#id7)"><g clip-path="url(#id4)"><g clip-path="url(#id5)"><g clip-path="url(#id6)"><path fill="rgb(0%, 50.19989%, 21.569824%)" d="M 25.367188 54.191406 C 14.9375 50.367188 -4.742188 25.074219 10.140625 15.230469 C 20.203125 8.566406 21.835938 19.28125 35.683594 27.707031 C 40.269531 30.492188 62.664062 27.679688 59.410156 41.953125 C 57.480469 50.414062 39.007812 59.1875 25.367188 54.191406 Z M 25.367188 54.191406 " fill-opacity="1" fill-rule="nonzero"/></g></g></g></g></g></g><g clip-path="url(#id8)"><path fill="rgb(0%, 50.19989%, 21.569824%)" d="M 79.585938 13.214844 C 79.496094 13.144531 79.390625 13.113281 79.273438 13.128906 C 79.15625 13.144531 79.066406 13.199219 78.996094 13.292969 C 78.925781 13.386719 78.898438 13.492188 78.917969 13.609375 C 78.9375 13.722656 78.992188 13.816406 79.089844 13.882812 C 87.40625 20.058594 92.246094 29.558594 92.375 39.953125 C 92.417969 43.398438 91.929688 46.769531 90.917969 50.066406 C 90.277344 50.882812 89.640625 51.699219 88.980469 52.496094 C 88.238281 53.417969 87.449219 54.296875 86.613281 55.136719 C 86.425781 55.320312 86.230469 55.5 86.035156 55.675781 C 85.9375 55.761719 85.84375 55.84375 85.746094 55.921875 L 85.550781 56.078125 C 85.59375 56.042969 85.539062 56.078125 85.527344 56.097656 C 85.050781 56.457031 84.535156 56.769531 84.046875 57.113281 C 83.507812 57.464844 83.027344 57.878906 82.597656 58.351562 C 82.183594 58.832031 81.894531 59.378906 81.726562 59.988281 C 81.570312 60.578125 81.535156 61.175781 81.625 61.777344 C 81.714844 62.382812 81.921875 62.941406 82.242188 63.460938 C 82.332031 63.59375 82.425781 63.714844 82.523438 63.835938 C 81 65.34375 79.347656 66.6875 77.558594 67.871094 C 75.773438 69.054688 73.890625 70.050781 71.90625 70.863281 C 69.925781 71.679688 67.882812 72.292969 65.777344 72.707031 C 63.675781 73.121094 61.550781 73.324219 59.410156 73.324219 L 59.351562 73.324219 C 57.234375 73.332031 55.132812 73.136719 53.050781 72.738281 C 50.96875 72.339844 48.945312 71.75 46.980469 70.960938 C 45.011719 70.171875 43.140625 69.199219 41.363281 68.050781 C 39.582031 66.898438 37.933594 65.589844 36.410156 64.121094 C 36.917969 63.234375 37.183594 62.28125 37.203125 61.257812 C 37.226562 60.238281 37 59.273438 36.527344 58.367188 C 36.066406 57.484375 35.335938 56.820312 34.648438 56.125 C 34.476562 55.953125 34.316406 55.78125 34.167969 55.609375 L 34.0625 55.480469 L 34.050781 55.46875 C 34.035156 55.453125 34.023438 55.429688 34.007812 55.410156 C 33.941406 55.320312 33.878906 55.226562 33.820312 55.132812 C 33.761719 55.042969 33.710938 54.949219 33.664062 54.855469 L 33.628906 54.777344 C 33.605469 54.722656 33.589844 54.667969 33.570312 54.613281 C 33.535156 54.515625 33.511719 54.414062 33.492188 54.308594 C 33.492188 54.289062 33.480469 54.261719 33.480469 54.238281 L 33.480469 54.214844 C 33.480469 54.160156 33.480469 54.105469 33.46875 54.042969 C 33.46875 53.953125 33.46875 53.871094 33.480469 53.777344 C 33.480469 53.777344 33.480469 53.785156 33.480469 53.792969 C 33.488281 53.765625 33.492188 53.742188 33.492188 53.71875 C 33.492188 53.671875 33.511719 53.625 33.523438 53.578125 C 33.542969 53.496094 33.566406 53.410156 33.597656 53.328125 C 33.613281 53.28125 33.628906 53.238281 33.644531 53.195312 L 33.671875 53.136719 C 33.835938 52.789062 34.035156 52.460938 34.269531 52.15625 C 34.285156 52.136719 34.300781 52.117188 34.316406 52.09375 L 34.398438 51.988281 L 34.597656 51.746094 C 34.726562 51.589844 34.855469 51.4375 34.980469 51.28125 C 35.25 50.957031 35.5 50.621094 35.722656 50.265625 C 36.164062 49.535156 36.386719 48.664062 36.117188 47.828125 C 35.792969 46.851562 34.941406 46.148438 34.039062 45.710938 C 32.96875 45.21875 31.84375 44.941406 30.664062 44.886719 C 29.46875 44.8125 28.296875 44.949219 27.148438 45.296875 C 26.996094 45.339844 26.851562 45.390625 26.707031 45.441406 C 26.460938 43.832031 26.332031 42.214844 26.320312 40.585938 C 26.289062 36.71875 26.917969 32.960938 28.214844 29.3125 C 28.402344 28.804688 28.695312 28.367188 29.09375 28 C 29.496094 27.636719 29.957031 27.382812 30.480469 27.242188 C 31.878906 26.851562 32.933594 26.847656 33.441406 27.242188 C 33.722656 27.453125 33.855469 27.800781 33.855469 28.296875 C 33.855469 29.929688 33.105469 31.496094 32.308594 33.15625 C 31.507812 34.8125 30.679688 36.550781 30.679688 38.371094 C 30.679688 39.363281 30.777344 40.414062 31.492188 40.710938 C 32.472656 41.117188 33.84375 39.972656 37.734375 36.085938 C 39.988281 33.839844 42.164062 33.335938 43.914062 32.925781 C 45.914062 32.464844 47.640625 32.066406 48.226562 29.292969 C 48.757812 26.777344 47.84375 24.359375 47.039062 22.222656 C 46.261719 20.160156 45.527344 18.222656 46.1875 16.550781 C 46.917969 14.707031 47.722656 13.941406 48.410156 13.429688 C 48.769531 13.171875 49.078125 12.863281 49.335938 12.507812 C 49.597656 12.148438 49.796875 11.761719 49.929688 11.339844 C 50.066406 10.921875 50.132812 10.488281 50.132812 10.046875 C 50.128906 9.605469 50.058594 9.175781 49.917969 8.757812 C 52.757812 7.917969 55.65625 7.464844 58.617188 7.402344 L 58.628906 7.402344 C 58.972656 7.402344 59.296875 7.390625 59.632812 7.402344 C 59.75 7.402344 59.847656 7.359375 59.929688 7.28125 C 60.011719 7.199219 60.050781 7.101562 60.050781 6.984375 C 60.050781 6.871094 60.011719 6.773438 59.929688 6.691406 C 59.847656 6.609375 59.75 6.570312 59.632812 6.570312 L 59.265625 6.570312 C 56.949219 6.570312 54.65625 6.808594 52.386719 7.277344 C 50.117188 7.75 47.921875 8.445312 45.796875 9.367188 C 43.671875 10.289062 41.660156 11.417969 39.769531 12.753906 C 37.875 14.085938 36.136719 15.597656 34.554688 17.289062 C 34.472656 17.371094 34.433594 17.472656 34.4375 17.585938 C 34.441406 17.703125 34.484375 17.800781 34.570312 17.878906 C 34.65625 17.957031 34.757812 17.996094 34.871094 17.992188 C 34.988281 17.984375 35.085938 17.941406 35.164062 17.855469 C 37.074219 15.8125 39.210938 14.039062 41.570312 12.539062 C 43.933594 11.039062 46.445312 9.855469 49.109375 8.996094 C 49.226562 9.332031 49.285156 9.675781 49.289062 10.03125 C 49.289062 10.386719 49.238281 10.734375 49.128906 11.074219 C 49.019531 11.410156 48.863281 11.722656 48.652344 12.011719 C 48.441406 12.296875 48.195312 12.546875 47.90625 12.753906 C 47.121094 13.332031 46.210938 14.199219 45.40625 16.238281 C 44.625 18.207031 45.414062 20.296875 46.25 22.507812 C 47.054688 24.636719 47.886719 26.835938 47.402344 29.113281 C 46.925781 31.359375 45.71875 31.644531 43.71875 32.105469 C 41.863281 32.539062 39.558594 33.074219 37.136719 35.488281 C 35.261719 37.363281 32.429688 40.1875 31.800781 39.933594 C 31.75 39.914062 31.503906 39.742188 31.503906 38.363281 C 31.503906 36.730469 32.253906 35.164062 33.054688 33.507812 C 33.851562 31.847656 34.683594 30.113281 34.683594 28.289062 C 34.683594 27.523438 34.433594 26.945312 33.9375 26.570312 C 33.195312 26.007812 31.953125 25.964844 30.25 26.441406 C 29.597656 26.621094 29.019531 26.941406 28.523438 27.398438 C 28.027344 27.859375 27.664062 28.40625 27.433594 29.042969 C 27.207031 29.675781 26.996094 30.316406 26.808594 30.964844 C 26.621094 31.613281 26.449219 32.265625 26.300781 32.921875 C 26.152344 33.578125 26.023438 34.238281 25.914062 34.90625 C 25.800781 35.570312 25.710938 36.238281 25.644531 36.90625 C 25.574219 37.578125 25.523438 38.25 25.492188 38.921875 C 25.464844 39.597656 25.457031 40.269531 25.464844 40.945312 C 25.476562 41.617188 25.507812 42.289062 25.558594 42.960938 C 25.609375 43.632812 25.683594 44.304688 25.773438 44.972656 C 25.863281 45.640625 25.976562 46.304688 26.109375 46.964844 C 26.238281 47.625 26.390625 48.28125 26.5625 48.933594 C 26.730469 49.585938 26.921875 50.234375 27.132812 50.875 C 27.339844 51.515625 27.570312 52.148438 27.816406 52.773438 C 28.0625 53.402344 28.328125 54.019531 28.613281 54.632812 C 28.898438 55.242188 29.203125 55.84375 29.523438 56.4375 C 29.84375 57.03125 30.183594 57.613281 30.539062 58.1875 C 30.894531 58.757812 31.265625 59.320312 31.65625 59.871094 C 32.046875 60.421875 32.449219 60.960938 32.871094 61.488281 C 33.292969 62.011719 33.730469 62.527344 34.183594 63.027344 C 34.636719 63.527344 35.101562 64.011719 35.585938 64.484375 C 36.066406 64.957031 36.5625 65.414062 37.070312 65.855469 C 37.582031 66.300781 38.101562 66.726562 38.636719 67.136719 C 39.171875 67.550781 39.71875 67.945312 40.277344 68.324219 C 40.835938 68.703125 41.40625 69.0625 41.984375 69.40625 C 42.566406 69.753906 43.15625 70.078125 43.753906 70.390625 C 44.355469 70.699219 44.964844 70.988281 45.582031 71.261719 C 46.199219 71.535156 46.824219 71.789062 47.457031 72.023438 C 48.085938 72.261719 48.726562 72.476562 49.371094 72.675781 C 50.019531 72.871094 50.667969 73.050781 51.324219 73.207031 C 51.980469 73.367188 52.640625 73.503906 53.304688 73.625 C 53.96875 73.742188 54.636719 73.84375 55.308594 73.921875 C 55.980469 74 56.652344 74.058594 57.324219 74.097656 C 58 74.136719 58.671875 74.15625 59.347656 74.15625 L 59.410156 74.15625 C 60.523438 74.152344 61.640625 74.097656 62.75 73.984375 C 63.859375 73.871094 64.964844 73.707031 66.058594 73.484375 C 67.152344 73.265625 68.230469 72.992188 69.300781 72.664062 C 70.367188 72.335938 71.414062 71.957031 72.445312 71.527344 C 73.472656 71.09375 74.480469 70.613281 75.460938 70.082031 C 76.445312 69.554688 77.398438 68.976562 78.320312 68.351562 C 79.246094 67.726562 80.136719 67.058594 80.996094 66.347656 C 81.855469 65.632812 82.675781 64.882812 83.460938 64.085938 C 84.242188 63.292969 84.988281 62.464844 85.6875 61.597656 C 86.390625 60.730469 87.046875 59.832031 87.660156 58.898438 C 88.273438 57.96875 88.835938 57.007812 89.355469 56.019531 C 89.871094 55.035156 90.339844 54.023438 90.757812 52.988281 C 91.175781 51.957031 91.539062 50.902344 91.851562 49.835938 C 92.164062 48.765625 92.425781 47.683594 92.628906 46.585938 C 92.835938 45.492188 92.988281 44.386719 93.085938 43.277344 C 93.179688 42.167969 93.222656 41.054688 93.207031 39.941406 C 93.078125 29.289062 88.117188 19.546875 79.585938 13.214844 Z M 26.847656 46.285156 C 27.289062 46.121094 27.742188 45.992188 28.203125 45.894531 C 28.339844 45.867188 28.476562 45.84375 28.613281 45.820312 L 28.832031 45.785156 L 28.84375 45.785156 L 28.996094 45.769531 C 29.273438 45.738281 29.550781 45.71875 29.832031 45.714844 C 30.113281 45.707031 30.414062 45.714844 30.707031 45.730469 C 30.847656 45.742188 30.984375 45.753906 31.125 45.769531 L 31.285156 45.785156 L 31.351562 45.796875 L 31.46875 45.8125 C 32.027344 45.902344 32.578125 46.039062 33.113281 46.226562 L 33.285156 46.292969 L 33.371094 46.328125 C 33.484375 46.371094 33.59375 46.425781 33.703125 46.480469 C 33.910156 46.585938 34.113281 46.703125 34.304688 46.835938 C 34.347656 46.867188 34.398438 46.898438 34.441406 46.933594 L 34.515625 46.992188 C 34.609375 47.074219 34.699219 47.15625 34.785156 47.242188 C 34.859375 47.3125 34.925781 47.386719 34.984375 47.464844 C 34.976562 47.449219 34.96875 47.445312 34.984375 47.480469 L 35.039062 47.550781 C 35.070312 47.601562 35.101562 47.648438 35.132812 47.703125 C 35.164062 47.75 35.191406 47.804688 35.21875 47.855469 C 35.226562 47.875 35.234375 47.890625 35.242188 47.910156 C 35.242188 47.914062 35.242188 47.917969 35.242188 47.921875 C 35.296875 48.027344 35.328125 48.140625 35.34375 48.253906 C 35.359375 48.296875 35.367188 48.34375 35.371094 48.390625 L 35.371094 48.414062 C 35.375 48.4375 35.375 48.457031 35.371094 48.480469 C 35.378906 48.574219 35.378906 48.667969 35.371094 48.761719 C 35.371094 48.796875 35.339844 48.957031 35.371094 48.816406 C 35.363281 48.855469 35.359375 48.894531 35.351562 48.933594 C 35.339844 49.023438 35.324219 49.117188 35.304688 49.207031 C 35.277344 49.28125 35.25 49.355469 35.222656 49.429688 L 35.195312 49.484375 L 35.132812 49.617188 C 35.042969 49.785156 34.945312 49.945312 34.835938 50.101562 C 34.785156 50.175781 34.734375 50.25 34.679688 50.320312 C 34.652344 50.359375 34.625 50.398438 34.597656 50.433594 C 34.578125 50.453125 34.566406 50.472656 34.550781 50.496094 C 34.304688 50.800781 34.050781 51.101562 33.804688 51.40625 C 33.3125 52.023438 32.8125 52.703125 32.675781 53.496094 C 32.585938 53.957031 32.617188 54.410156 32.761719 54.855469 C 32.929688 55.320312 33.175781 55.738281 33.5 56.113281 C 33.800781 56.464844 34.121094 56.804688 34.457031 57.125 C 34.628906 57.296875 34.792969 57.453125 34.953125 57.625 C 35.027344 57.703125 35.097656 57.78125 35.167969 57.863281 L 35.324219 58.050781 L 35.355469 58.085938 C 35.5 58.277344 35.628906 58.480469 35.742188 58.6875 C 35.796875 58.785156 35.847656 58.882812 35.894531 58.984375 C 35.917969 59.035156 35.945312 59.089844 35.964844 59.140625 L 36.011719 59.261719 C 36.097656 59.484375 36.167969 59.714844 36.222656 59.949219 C 36.246094 60.054688 36.269531 60.167969 36.289062 60.277344 C 36.289062 60.328125 36.308594 60.386719 36.316406 60.449219 C 36.316406 60.492188 36.324219 60.53125 36.328125 60.574219 C 36.351562 60.808594 36.363281 61.042969 36.355469 61.273438 C 36.355469 61.390625 36.347656 61.507812 36.339844 61.617188 C 36.339844 61.683594 36.324219 61.746094 36.320312 61.808594 C 36.320312 61.808594 36.320312 61.855469 36.320312 61.867188 C 36.320312 61.878906 36.320312 61.902344 36.308594 61.917969 C 36.273438 62.152344 36.222656 62.382812 36.15625 62.605469 C 36.125 62.71875 36.089844 62.828125 36.046875 62.9375 L 35.980469 63.109375 L 35.933594 63.214844 C 35.886719 63.3125 35.839844 63.40625 35.785156 63.503906 C 33.457031 61.152344 31.53125 58.507812 30.007812 55.570312 C 28.484375 52.636719 27.429688 49.539062 26.847656 46.285156 Z M 82.445312 60.621094 Z M 82.679688 62.503906 L 82.691406 62.53125 C 82.6875 62.523438 82.679688 62.511719 82.679688 62.5 Z M 83.113281 63.25 L 83.058594 63.175781 C 83.019531 63.121094 82.980469 63.0625 82.945312 63.003906 C 82.871094 62.886719 82.804688 62.769531 82.746094 62.644531 L 82.699219 62.546875 C 82.671875 62.476562 82.644531 62.40625 82.621094 62.339844 C 82.578125 62.210938 82.539062 62.078125 82.507812 61.945312 C 82.492188 61.882812 82.480469 61.820312 82.46875 61.757812 C 82.46875 61.722656 82.457031 61.6875 82.453125 61.652344 C 82.445312 61.617188 82.453125 61.625 82.453125 61.621094 C 82.4375 61.484375 82.429688 61.347656 82.425781 61.210938 C 82.421875 61.070312 82.425781 60.9375 82.4375 60.800781 C 82.4375 60.765625 82.4375 60.726562 82.449219 60.691406 L 82.449219 60.675781 C 82.472656 60.605469 82.484375 60.53125 82.488281 60.457031 C 82.515625 60.324219 82.546875 60.191406 82.589844 60.0625 C 82.605469 60.003906 82.628906 59.941406 82.648438 59.890625 C 82.671875 59.835938 82.679688 59.820312 82.691406 59.785156 C 82.703125 59.753906 82.679688 59.8125 82.679688 59.8125 C 82.683594 59.792969 82.691406 59.773438 82.703125 59.753906 C 82.761719 59.632812 82.824219 59.511719 82.894531 59.394531 C 82.925781 59.335938 82.964844 59.277344 83.003906 59.222656 L 83.0625 59.136719 L 83.101562 59.082031 C 83.285156 58.851562 83.488281 58.636719 83.710938 58.445312 C 83.824219 58.347656 83.941406 58.25 84.058594 58.160156 L 84.082031 58.140625 L 84.175781 58.066406 L 84.359375 57.933594 C 84.851562 57.589844 85.367188 57.269531 85.851562 56.917969 C 86.269531 56.609375 86.664062 56.277344 87.035156 55.917969 C 87.855469 55.121094 88.628906 54.28125 89.351562 53.394531 C 89.605469 53.089844 89.851562 52.785156 90.101562 52.476562 C 88.488281 56.53125 86.15625 60.121094 83.113281 63.246094 Z M 83.113281 63.25 " fill-opacity="1" fill-rule="nonzero"/></g><path fill="rgb(0%, 50.19989%, 21.569824%)" d="M 58.167969 33 C 58.414062 33.765625 58.890625 34.347656 59.589844 34.742188 C 60.386719 35.164062 61.210938 35.238281 62.070312 34.96875 C 62.875 34.722656 63.589844 34.320312 64.21875 33.765625 C 64.359375 33.914062 64.507812 34.0625 64.660156 34.203125 C 65.296875 34.828125 66.050781 35.238281 66.921875 35.433594 C 67.878906 35.625 68.851562 35.523438 69.816406 35.457031 C 70.6875 35.382812 71.554688 35.417969 72.417969 35.566406 C 74.085938 35.882812 75.640625 36.664062 76.75 37.957031 C 77.285156 38.566406 77.683594 39.257812 77.941406 40.027344 C 78.199219 40.796875 78.300781 41.585938 78.246094 42.394531 C 78.210938 42.765625 78.136719 43.128906 78.027344 43.484375 C 77.921875 43.828125 77.78125 44.160156 77.609375 44.476562 C 77.25 45.144531 76.796875 45.734375 76.246094 46.253906 C 75.6875 46.789062 75.074219 47.25 74.398438 47.628906 C 73.679688 48.035156 72.921875 48.359375 72.128906 48.597656 C 70.261719 49.175781 68.304688 49.390625 66.367188 49.617188 C 64.550781 49.828125 62.730469 50.058594 60.976562 50.59375 C 59.304688 51.109375 57.699219 51.898438 56.429688 53.117188 C 55.105469 54.390625 54.242188 56.058594 52.886719 57.304688 C 52.296875 57.875 51.609375 58.285156 50.820312 58.53125 C 50.4375 58.648438 50.050781 58.683594 49.652344 58.648438 C 49.617188 58.644531 49.582031 58.640625 49.546875 58.636719 L 49.40625 58.609375 C 49.304688 58.585938 49.207031 58.558594 49.109375 58.519531 C 48.957031 58.457031 48.820312 58.371094 48.699219 58.257812 C 48.636719 58.203125 48.585938 58.140625 48.542969 58.070312 C 48.503906 58.003906 48.464844 57.933594 48.433594 57.859375 C 48.394531 57.765625 48.367188 57.667969 48.347656 57.570312 C 48.328125 57.488281 48.3125 57.410156 48.308594 57.328125 C 48.289062 57.128906 48.289062 56.925781 48.308594 56.726562 C 48.308594 56.683594 48.316406 56.640625 48.320312 56.597656 C 48.320312 56.585938 48.320312 56.539062 48.335938 56.523438 C 48.347656 56.4375 48.363281 56.351562 48.386719 56.261719 C 48.425781 56.089844 48.472656 55.917969 48.53125 55.746094 C 48.558594 55.664062 48.589844 55.574219 48.625 55.5 C 48.625 55.492188 48.625 55.484375 48.625 55.476562 L 48.636719 55.453125 C 48.652344 55.410156 48.671875 55.363281 48.695312 55.320312 C 48.847656 55 49.019531 54.691406 49.222656 54.394531 C 49.320312 54.246094 49.425781 54.097656 49.535156 53.953125 C 49.628906 53.828125 49.707031 53.722656 49.835938 53.566406 C 50.074219 53.277344 50.320312 52.996094 50.570312 52.707031 C 51.070312 52.140625 51.582031 51.582031 52.050781 50.988281 C 53.109375 49.726562 53.753906 48.28125 53.980469 46.652344 C 54.242188 44.988281 54.164062 43.304688 54.097656 41.632812 C 54.066406 40.796875 54.035156 39.960938 54.054688 39.125 C 54.0625 38.714844 54.082031 38.304688 54.121094 37.894531 C 54.15625 37.515625 54.214844 37.136719 54.296875 36.761719 C 54.4375 36.007812 54.6875 35.292969 55.039062 34.613281 C 55.09375 34.511719 55.105469 34.40625 55.074219 34.296875 C 55.046875 34.1875 54.984375 34.101562 54.886719 34.039062 C 54.789062 33.984375 54.683594 33.96875 54.570312 34 C 54.460938 34.027344 54.375 34.09375 54.316406 34.191406 C 53.511719 35.726562 53.261719 37.457031 53.226562 39.175781 C 53.191406 40.894531 53.355469 42.613281 53.335938 44.332031 C 53.339844 45.160156 53.273438 45.984375 53.132812 46.800781 C 52.988281 47.601562 52.726562 48.359375 52.347656 49.082031 C 51.621094 50.4375 50.53125 51.476562 49.519531 52.664062 C 48.507812 53.851562 47.609375 55.167969 47.472656 56.757812 C 47.394531 57.671875 47.664062 58.660156 48.503906 59.144531 C 49.304688 59.601562 50.347656 59.554688 51.199219 59.277344 C 53.027344 58.679688 54.238281 57.144531 55.351562 55.667969 C 55.898438 54.894531 56.511719 54.179688 57.195312 53.523438 C 57.839844 52.949219 58.554688 52.480469 59.332031 52.109375 C 60.882812 51.347656 62.664062 50.949219 64.398438 50.6875 C 66.402344 50.390625 68.429688 50.257812 70.425781 49.867188 C 72.226562 49.511719 74.003906 48.933594 75.53125 47.886719 C 76.90625 46.949219 78.058594 45.695312 78.671875 44.136719 C 79.324219 42.488281 79.175781 40.65625 78.445312 39.066406 C 78.058594 38.25 77.539062 37.53125 76.894531 36.902344 C 76.25 36.277344 75.515625 35.777344 74.691406 35.414062 C 73.824219 35.027344 72.921875 34.773438 71.980469 34.65625 C 71.042969 34.539062 70.117188 34.601562 69.175781 34.667969 C 68.683594 34.710938 68.191406 34.71875 67.695312 34.699219 C 67.472656 34.6875 67.253906 34.65625 67.035156 34.605469 C 66.933594 34.582031 66.828125 34.554688 66.726562 34.523438 L 66.554688 34.464844 L 66.4375 34.417969 C 65.820312 34.121094 65.285156 33.714844 64.835938 33.199219 C 65.363281 32.683594 65.859375 32.132812 66.363281 31.617188 C 66.941406 30.984375 67.605469 30.46875 68.359375 30.070312 C 68.457031 30.011719 68.523438 29.925781 68.550781 29.816406 C 68.582031 29.703125 68.566406 29.597656 68.511719 29.5 C 68.449219 29.402344 68.367188 29.339844 68.253906 29.308594 C 68.144531 29.28125 68.039062 29.292969 67.9375 29.351562 C 66.441406 30.09375 65.457031 31.460938 64.285156 32.597656 C 63.84375 32.066406 63.355469 31.582031 62.816406 31.148438 C 62.1875 30.683594 61.488281 30.40625 60.714844 30.316406 C 59.945312 30.199219 59.273438 30.402344 58.695312 30.917969 C 58.417969 31.1875 58.234375 31.511719 58.136719 31.886719 C 58.042969 32.261719 58.054688 32.632812 58.167969 33 Z M 59.304688 33.410156 C 59.269531 33.367188 59.296875 33.402344 59.304688 33.410156 Z M 58.988281 31.917969 Z M 58.914062 32.199219 C 58.914062 32.222656 58.914062 32.222656 58.914062 32.199219 Z M 58.914062 32.242188 C 58.914062 32.226562 58.914062 32.210938 58.914062 32.195312 C 58.929688 32.121094 58.945312 32.050781 58.964844 31.980469 C 58.964844 31.960938 58.980469 31.941406 58.988281 31.917969 C 58.996094 31.894531 59.023438 31.84375 59.046875 31.804688 L 59.105469 31.707031 L 59.144531 31.652344 C 59.195312 31.589844 59.246094 31.53125 59.304688 31.480469 C 59.324219 31.460938 59.34375 31.445312 59.367188 31.425781 L 59.414062 31.390625 C 59.484375 31.34375 59.554688 31.304688 59.628906 31.269531 C 59.644531 31.269531 59.675781 31.246094 59.683594 31.246094 L 59.757812 31.21875 C 59.839844 31.191406 59.917969 31.171875 60 31.15625 L 60.082031 31.140625 L 60.140625 31.140625 C 60.230469 31.132812 60.316406 31.128906 60.402344 31.132812 C 60.480469 31.132812 60.554688 31.132812 60.632812 31.144531 L 60.699219 31.144531 L 60.828125 31.167969 C 61 31.199219 61.167969 31.242188 61.332031 31.300781 C 61.402344 31.324219 61.472656 31.347656 61.542969 31.378906 L 61.625 31.414062 L 61.753906 31.476562 C 61.914062 31.554688 62.0625 31.640625 62.210938 31.738281 C 62.273438 31.777344 62.332031 31.820312 62.394531 31.867188 L 62.460938 31.917969 L 62.5625 32.007812 C 62.714844 32.144531 62.859375 32.285156 62.996094 32.429688 C 63.222656 32.664062 63.441406 32.90625 63.660156 33.152344 C 63.144531 33.597656 62.5625 33.929688 61.914062 34.148438 C 61.53125 34.269531 61.136719 34.3125 60.738281 34.277344 L 60.691406 34.277344 L 60.574219 34.253906 C 60.484375 34.234375 60.394531 34.207031 60.308594 34.175781 L 60.242188 34.152344 L 60.152344 34.109375 C 60.070312 34.066406 59.988281 34.023438 59.910156 33.972656 C 59.84375 33.933594 59.78125 33.890625 59.722656 33.84375 C 59.710938 33.832031 59.664062 33.796875 59.65625 33.789062 C 59.617188 33.757812 59.585938 33.726562 59.550781 33.695312 C 59.492188 33.640625 59.433594 33.582031 59.378906 33.523438 C 59.351562 33.488281 59.324219 33.453125 59.296875 33.421875 L 59.25 33.359375 C 59.207031 33.292969 59.164062 33.226562 59.125 33.160156 C 59.101562 33.121094 59.082031 33.082031 59.0625 33.042969 C 59.0625 33.027344 59.035156 32.984375 59.027344 32.96875 C 58.972656 32.828125 58.929688 32.6875 58.90625 32.539062 C 58.90625 32.523438 58.90625 32.5 58.90625 32.484375 C 58.90625 32.46875 58.90625 32.414062 58.90625 32.378906 C 58.90625 32.339844 58.90625 32.28125 58.910156 32.242188 Z M 58.914062 32.242188 " fill-opacity="1" fill-rule="nonzero"/><path fill="rgb(0%, 50.19989%, 21.569824%)" d="M 73.851562 66.484375 C 73.960938 66.484375 74.070312 66.484375 74.175781 66.484375 C 74.265625 66.484375 74.355469 66.488281 74.441406 66.503906 L 74.46875 66.503906 L 74.523438 66.515625 C 74.582031 66.527344 74.636719 66.539062 74.695312 66.554688 C 74.742188 66.566406 74.785156 66.582031 74.828125 66.597656 L 74.847656 66.597656 L 74.882812 66.613281 C 74.921875 66.632812 74.960938 66.652344 75 66.675781 L 75.054688 66.714844 C 75.085938 66.742188 75.117188 66.769531 75.148438 66.800781 L 75.183594 66.839844 C 75.207031 66.875 75.226562 66.90625 75.246094 66.945312 C 75.265625 66.980469 75.265625 66.980469 75.277344 67 C 75.277344 67.003906 75.277344 67.007812 75.277344 67.011719 C 75.308594 67.121094 75.375 67.203125 75.476562 67.261719 C 75.574219 67.316406 75.679688 67.332031 75.792969 67.300781 C 75.902344 67.269531 75.988281 67.203125 76.042969 67.105469 C 76.101562 67.003906 76.113281 66.898438 76.082031 66.785156 C 75.90625 66.296875 75.570312 65.964844 75.082031 65.789062 C 74.652344 65.640625 74.210938 65.589844 73.757812 65.640625 C 73.296875 65.699219 72.84375 65.785156 72.398438 65.910156 C 72.289062 65.933594 72.179688 65.957031 72.070312 65.976562 C 72.015625 65.984375 71.960938 65.996094 71.90625 66.003906 L 71.839844 66.011719 L 71.785156 66.011719 C 71.5625 66.046875 71.339844 66.0625 71.117188 66.050781 L 71.046875 66.050781 C 70.996094 66.042969 70.949219 66.03125 70.902344 66.019531 C 70.851562 66.007812 70.804688 65.992188 70.757812 65.972656 L 70.734375 65.964844 L 70.710938 65.964844 L 70.675781 65.941406 C 70.632812 65.917969 70.59375 65.890625 70.550781 65.867188 L 70.507812 65.828125 C 70.46875 65.796875 70.4375 65.757812 70.402344 65.722656 L 70.34375 65.632812 C 70.324219 65.597656 70.308594 65.566406 70.289062 65.53125 L 70.289062 65.519531 C 70.265625 65.457031 70.242188 65.394531 70.226562 65.328125 C 70.191406 65.199219 70.164062 65.066406 70.140625 64.933594 C 70.105469 64.671875 70.046875 64.417969 69.96875 64.167969 C 69.621094 63.246094 68.988281 62.601562 68.074219 62.234375 C 67.15625 61.835938 66.210938 61.757812 65.242188 61.988281 C 64.136719 62.257812 63.164062 62.890625 62.3125 63.636719 C 61.496094 64.355469 60.820312 65.195312 60.097656 66.007812 C 59.746094 66.410156 59.367188 66.789062 58.964844 67.144531 L 58.816406 67.265625 L 58.742188 67.328125 L 58.722656 67.339844 C 58.613281 67.421875 58.5 67.511719 58.378906 67.578125 C 58.152344 67.726562 57.914062 67.855469 57.664062 67.960938 L 57.652344 67.960938 L 57.628906 67.972656 L 57.527344 68.007812 L 57.304688 68.085938 C 57.164062 68.132812 57.019531 68.171875 56.875 68.207031 C 56.574219 68.28125 56.273438 68.335938 55.96875 68.378906 C 55.378906 68.460938 54.792969 68.570312 54.214844 68.710938 C 53.246094 68.972656 52.253906 69.507812 51.730469 70.394531 C 51.601562 70.617188 51.503906 70.851562 51.445312 71.105469 C 51.417969 71.214844 51.429688 71.320312 51.488281 71.421875 C 51.542969 71.519531 51.628906 71.585938 51.738281 71.617188 C 51.847656 71.648438 51.953125 71.632812 52.054688 71.578125 C 52.15625 71.519531 52.21875 71.4375 52.25 71.328125 C 52.273438 71.226562 52.304688 71.132812 52.339844 71.039062 C 52.339844 71.046875 52.375 70.949219 52.386719 70.929688 C 52.417969 70.871094 52.449219 70.8125 52.484375 70.757812 C 52.515625 70.710938 52.546875 70.667969 52.578125 70.621094 L 52.632812 70.554688 C 52.707031 70.46875 52.789062 70.382812 52.875 70.308594 C 52.914062 70.269531 52.957031 70.234375 53 70.195312 L 53.035156 70.171875 L 53.078125 70.136719 C 53.175781 70.070312 53.277344 70.003906 53.382812 69.945312 C 53.484375 69.882812 53.585938 69.832031 53.6875 69.78125 L 53.832031 69.71875 L 53.859375 69.707031 L 53.976562 69.664062 C 55.035156 69.265625 56.191406 69.257812 57.277344 68.957031 C 57.839844 68.804688 58.359375 68.570312 58.84375 68.253906 C 59.300781 67.945312 59.71875 67.59375 60.101562 67.203125 C 60.84375 66.453125 61.480469 65.613281 62.21875 64.855469 C 62.410156 64.660156 62.605469 64.472656 62.808594 64.289062 C 62.898438 64.207031 62.992188 64.128906 63.085938 64.050781 L 63.234375 63.925781 L 63.3125 63.863281 L 63.328125 63.851562 L 63.347656 63.835938 C 63.769531 63.515625 64.21875 63.246094 64.703125 63.027344 L 64.75 63.007812 L 64.8125 62.980469 L 64.984375 62.917969 C 65.109375 62.871094 65.238281 62.832031 65.367188 62.800781 C 65.496094 62.765625 65.589844 62.746094 65.710938 62.722656 C 65.734375 62.722656 65.898438 62.683594 65.785156 62.710938 C 65.847656 62.699219 65.910156 62.691406 65.972656 62.691406 C 66.179688 62.675781 66.390625 62.675781 66.601562 62.691406 L 66.757812 62.707031 L 66.773438 62.707031 L 66.832031 62.71875 C 66.949219 62.738281 67.0625 62.761719 67.179688 62.789062 C 67.296875 62.816406 67.378906 62.84375 67.476562 62.878906 L 67.625 62.933594 L 67.683594 62.953125 L 67.691406 62.953125 L 67.710938 62.960938 C 67.902344 63.050781 68.085938 63.152344 68.261719 63.265625 L 68.359375 63.335938 L 68.445312 63.402344 C 68.527344 63.476562 68.605469 63.550781 68.683594 63.628906 C 68.71875 63.664062 68.75 63.703125 68.78125 63.742188 L 68.820312 63.785156 C 68.878906 63.867188 68.933594 63.949219 68.984375 64.035156 C 69.027344 64.113281 69.070312 64.191406 69.105469 64.277344 C 69.105469 64.300781 69.136719 64.355469 69.140625 64.371094 C 69.160156 64.429688 69.179688 64.488281 69.195312 64.542969 C 69.265625 64.808594 69.292969 65.078125 69.351562 65.34375 C 69.445312 65.902344 69.730469 66.328125 70.214844 66.625 C 71.050781 67.09375 72.109375 66.871094 72.988281 66.636719 C 73.191406 66.570312 73.398438 66.527344 73.613281 66.503906 C 73.492188 66.515625 73.660156 66.503906 73.6875 66.503906 Z M 58.742188 67.277344 Z M 70.257812 65.46875 C 70.246094 65.453125 70.257812 65.457031 70.257812 65.46875 Z M 70.710938 65.941406 L 70.75 65.957031 C 70.75 65.957031 70.726562 65.953125 70.710938 65.941406 Z M 71.066406 66.042969 L 71.101562 66.042969 C 71.089844 66.046875 71.078125 66.050781 71.066406 66.050781 Z M 71.066406 66.042969 " fill-opacity="1" fill-rule="nonzero"/><path fill="rgb(0%, 50.19989%, 21.569824%)" d="M 34.320312 52.101562 L 34.304688 52.117188 C 34.289062 52.128906 34.269531 52.175781 34.320312 52.101562 Z M 34.320312 52.101562 " fill-opacity="1" fill-rule="nonzero"/><path fill="rgb(0%, 50.19989%, 21.569824%)" d="M 34.601562 50.433594 C 34.53125 50.511719 34.585938 50.457031 34.601562 50.433594 Z M 34.601562 50.433594 " fill-opacity="1" fill-rule="nonzero"/><path fill="rgb(0%, 50.19989%, 21.569824%)" d="M 33.476562 53.769531 C 33.503906 53.675781 33.480469 53.738281 33.476562 53.769531 Z M 33.476562 53.769531 " fill-opacity="1" fill-rule="nonzero"/><path fill="rgb(0%, 50.19989%, 21.569824%)" d="M 63.078125 6.625 L 63.09375 6.597656 Z M 63.078125 6.625 " fill-opacity="1" fill-rule="nonzero"/><g clip-path="url(#id9)"><path fill="rgb(0%, 50.19989%, 21.569824%)" d="M 65.273438 20.503906 C 66.523438 22.53125 67.847656 24.511719 69.089844 26.542969 C 69.265625 26.832031 69.441406 27.125 69.621094 27.417969 C 69.65625 27.480469 69.707031 27.53125 69.773438 27.566406 C 69.835938 27.601562 69.90625 27.621094 69.980469 27.621094 C 70.054688 27.621094 70.121094 27.601562 70.1875 27.566406 C 70.25 27.53125 70.300781 27.480469 70.339844 27.417969 C 71.570312 25.621094 72.683594 23.753906 73.6875 21.820312 C 74.167969 20.921875 74.636719 20.015625 75.113281 19.117188 C 75.609375 18.1875 76.09375 17.261719 76.492188 16.285156 C 77.304688 14.320312 77.800781 12.277344 77.980469 10.160156 C 78.070312 9.152344 78.070312 8.144531 77.980469 7.136719 C 77.90625 6.28125 77.691406 5.46875 77.328125 4.691406 C 76.960938 3.941406 76.429688 3.332031 75.742188 2.859375 C 74.933594 2.320312 74.042969 2.007812 73.074219 1.914062 C 72.085938 1.804688 71.152344 1.980469 70.273438 2.441406 C 69.84375 2.683594 69.453125 2.96875 69.089844 3.300781 C 68.753906 3.601562 68.445312 3.929688 68.167969 4.28125 C 66.996094 5.761719 66.332031 7.632812 66.5625 9.527344 C 66.785156 11.335938 67.75 13.226562 69.441406 14.074219 C 70.234375 14.472656 71.214844 14.675781 72.066406 14.335938 C 73.042969 13.945312 73.5625 13.035156 73.851562 12.070312 C 74.144531 11.105469 74.25 9.96875 73.902344 8.976562 C 73.746094 8.507812 73.496094 8.101562 73.152344 7.746094 C 72.808594 7.394531 72.40625 7.132812 71.945312 6.964844 C 71.503906 6.808594 71.054688 6.777344 70.597656 6.875 C 70.484375 6.90625 70.402344 6.96875 70.34375 7.070312 C 70.289062 7.171875 70.273438 7.277344 70.304688 7.390625 C 70.339844 7.5 70.40625 7.582031 70.507812 7.640625 C 70.605469 7.695312 70.710938 7.710938 70.824219 7.679688 C 70.839844 7.679688 70.929688 7.667969 70.925781 7.664062 L 71.046875 7.664062 C 71.140625 7.664062 71.230469 7.667969 71.320312 7.675781 L 71.421875 7.695312 C 71.46875 7.703125 71.519531 7.714844 71.566406 7.726562 L 71.691406 7.765625 L 71.800781 7.808594 C 71.976562 7.886719 72.140625 7.984375 72.296875 8.097656 L 72.375 8.164062 L 72.476562 8.253906 C 72.554688 8.328125 72.628906 8.40625 72.703125 8.492188 L 72.746094 8.546875 L 72.753906 8.558594 C 72.78125 8.597656 72.804688 8.632812 72.832031 8.667969 C 72.890625 8.761719 72.945312 8.855469 72.996094 8.953125 C 73.035156 9.027344 73.070312 9.105469 73.097656 9.1875 C 73.136719 9.308594 73.171875 9.429688 73.203125 9.550781 C 73.257812 9.757812 73.285156 9.972656 73.289062 10.1875 C 73.296875 10.425781 73.289062 10.667969 73.257812 10.90625 C 73.257812 10.929688 73.257812 10.949219 73.257812 10.972656 C 73.257812 10.980469 73.257812 10.984375 73.257812 10.992188 C 73.25 11.050781 73.242188 11.109375 73.226562 11.164062 C 73.207031 11.28125 73.183594 11.398438 73.152344 11.519531 C 73.097656 11.746094 73.027344 11.96875 72.949219 12.1875 C 72.929688 12.238281 72.90625 12.292969 72.886719 12.34375 L 72.886719 12.355469 L 72.839844 12.425781 C 72.789062 12.535156 72.730469 12.640625 72.667969 12.742188 C 72.574219 12.921875 72.453125 13.078125 72.304688 13.214844 C 72.265625 13.253906 72.222656 13.289062 72.179688 13.324219 L 72.171875 13.324219 L 72.121094 13.359375 C 72.039062 13.421875 71.945312 13.472656 71.851562 13.515625 L 71.816406 13.535156 L 71.804688 13.535156 L 71.667969 13.582031 C 71.570312 13.609375 71.472656 13.632812 71.375 13.648438 L 71.316406 13.648438 C 71.269531 13.648438 71.222656 13.648438 71.171875 13.648438 C 71.066406 13.648438 70.960938 13.648438 70.859375 13.636719 L 70.773438 13.625 L 70.65625 13.605469 C 70.554688 13.585938 70.457031 13.558594 70.363281 13.53125 C 70.265625 13.503906 70.167969 13.46875 70.070312 13.429688 L 70.050781 13.457031 L 70 13.433594 C 69.953125 13.414062 69.90625 13.390625 69.859375 13.367188 C 69.675781 13.273438 69.496094 13.167969 69.328125 13.046875 L 69.242188 12.980469 L 69.140625 12.898438 C 69.0625 12.832031 68.984375 12.761719 68.914062 12.691406 C 68.761719 12.539062 68.621094 12.382812 68.488281 12.214844 L 68.480469 12.203125 L 68.429688 12.136719 L 68.339844 12.007812 C 68.277344 11.921875 68.222656 11.835938 68.167969 11.738281 C 68.054688 11.554688 67.953125 11.367188 67.863281 11.175781 L 67.808594 11.046875 L 67.773438 10.960938 C 67.730469 10.855469 67.691406 10.75 67.65625 10.640625 C 67.589844 10.4375 67.53125 10.230469 67.484375 10.023438 C 67.464844 9.925781 67.445312 9.824219 67.425781 9.726562 C 67.417969 9.671875 67.410156 9.621094 67.402344 9.566406 C 67.402344 9.53125 67.402344 9.496094 67.386719 9.460938 C 67.367188 9.25 67.351562 9.035156 67.351562 8.820312 C 67.351562 8.605469 67.359375 8.390625 67.382812 8.175781 L 67.398438 8.039062 L 67.398438 8.023438 L 67.40625 7.949219 C 67.425781 7.839844 67.441406 7.734375 67.464844 7.628906 C 67.511719 7.417969 67.566406 7.207031 67.628906 7 C 67.660156 6.90625 67.691406 6.808594 67.726562 6.714844 C 67.746094 6.664062 67.765625 6.613281 67.785156 6.5625 C 67.792969 6.535156 67.804688 6.511719 67.816406 6.488281 L 67.816406 6.453125 C 67.984375 6.054688 68.191406 5.675781 68.433594 5.3125 C 68.488281 5.230469 68.546875 5.140625 68.605469 5.0625 C 68.636719 5.015625 68.671875 4.972656 68.703125 4.929688 L 68.722656 4.90625 L 68.777344 4.839844 C 68.914062 4.667969 69.054688 4.503906 69.207031 4.347656 C 69.359375 4.1875 69.503906 4.046875 69.664062 3.90625 C 69.742188 3.835938 69.835938 3.765625 69.910156 3.695312 L 70.039062 3.59375 L 70.058594 3.574219 L 70.117188 3.535156 C 70.292969 3.398438 70.480469 3.28125 70.675781 3.171875 C 70.769531 3.121094 70.863281 3.078125 70.960938 3.035156 C 70.976562 3.035156 71.035156 3.003906 71.046875 3 L 71.21875 2.9375 C 71.425781 2.871094 71.636719 2.816406 71.851562 2.78125 L 71.960938 2.765625 C 72.011719 2.757812 72.058594 2.753906 72.109375 2.75 C 72.214844 2.738281 72.328125 2.734375 72.4375 2.730469 C 73.300781 2.714844 74.117188 2.910156 74.882812 3.316406 C 75.054688 3.410156 75.21875 3.511719 75.378906 3.625 L 75.476562 3.699219 L 75.53125 3.742188 C 75.609375 3.804688 75.683594 3.871094 75.753906 3.9375 C 75.878906 4.058594 76 4.1875 76.109375 4.328125 C 76.125 4.34375 76.136719 4.359375 76.152344 4.375 C 76.171875 4.410156 76.199219 4.441406 76.222656 4.472656 C 76.277344 4.550781 76.328125 4.628906 76.378906 4.710938 C 76.476562 4.867188 76.5625 5.027344 76.640625 5.191406 C 76.660156 5.230469 76.675781 5.273438 76.695312 5.316406 C 76.703125 5.328125 76.707031 5.34375 76.714844 5.359375 C 76.75 5.449219 76.785156 5.542969 76.816406 5.632812 C 76.941406 6 77.03125 6.371094 77.09375 6.75 C 77.09375 6.792969 77.105469 6.835938 77.109375 6.878906 C 77.109375 6.894531 77.109375 6.910156 77.109375 6.925781 C 77.113281 6.933594 77.113281 6.945312 77.109375 6.953125 C 77.125 7.050781 77.136719 7.152344 77.144531 7.253906 C 77.164062 7.476562 77.175781 7.699219 77.183594 7.925781 C 77.203125 8.421875 77.203125 8.921875 77.183594 9.417969 C 77.144531 10.394531 77.027344 11.359375 76.832031 12.316406 C 76.628906 13.292969 76.359375 14.253906 76.019531 15.195312 C 75.691406 16.109375 75.296875 16.996094 74.835938 17.855469 C 74.390625 18.695312 73.941406 19.539062 73.496094 20.382812 C 72.546875 22.191406 71.578125 23.992188 70.476562 25.710938 C 70.316406 25.960938 70.152344 26.207031 69.988281 26.449219 C 68.835938 24.558594 67.625 22.707031 66.445312 20.835938 C 65.914062 19.988281 65.390625 19.132812 64.894531 18.257812 C 64.667969 17.847656 64.445312 17.425781 64.234375 17.003906 C 64.132812 16.796875 64.035156 16.59375 63.941406 16.382812 L 63.816406 16.105469 L 63.75 15.949219 L 63.734375 15.917969 C 63.734375 15.910156 63.703125 15.839844 63.699219 15.832031 C 63.359375 15.003906 63.085938 14.15625 62.878906 13.285156 C 62.773438 12.835938 62.683594 12.382812 62.617188 11.929688 L 62.597656 11.785156 C 62.597656 11.785156 62.585938 11.691406 62.582031 11.671875 C 62.566406 11.546875 62.550781 11.417969 62.539062 11.292969 C 62.511719 11.050781 62.492188 10.808594 62.480469 10.5625 C 62.445312 10.0625 62.445312 9.5625 62.480469 9.066406 C 62.480469 8.949219 62.5 8.832031 62.511719 8.722656 C 62.511719 8.699219 62.527344 8.617188 62.511719 8.703125 L 62.523438 8.628906 C 62.535156 8.558594 62.546875 8.484375 62.558594 8.410156 C 62.601562 8.167969 62.65625 7.929688 62.722656 7.695312 C 62.789062 7.457031 62.859375 7.222656 62.945312 6.992188 C 62.988281 6.875 63.035156 6.761719 63.078125 6.648438 C 63.085938 6.636719 63.089844 6.628906 63.09375 6.621094 C 63.101562 6.601562 63.109375 6.582031 63.117188 6.566406 C 63.144531 6.503906 63.171875 6.441406 63.199219 6.378906 C 63.410156 5.933594 63.65625 5.503906 63.9375 5.09375 C 64.007812 4.992188 64.078125 4.890625 64.152344 4.792969 L 64.195312 4.734375 L 64.234375 4.683594 C 64.246094 4.667969 64.269531 4.640625 64.269531 4.640625 L 64.335938 4.554688 C 64.492188 4.363281 64.65625 4.175781 64.828125 4 C 65 3.828125 65.171875 3.65625 65.359375 3.484375 C 65.453125 3.398438 65.546875 3.320312 65.640625 3.242188 L 65.773438 3.136719 L 65.824219 3.097656 L 65.878906 3.054688 C 66.273438 2.757812 66.691406 2.496094 67.132812 2.269531 C 67.238281 2.214844 67.351562 2.160156 67.464844 2.109375 L 67.636719 2.035156 L 67.65625 2.035156 L 67.742188 2 C 67.96875 1.90625 68.203125 1.828125 68.441406 1.757812 C 68.675781 1.683594 68.917969 1.628906 69.160156 1.585938 C 69.273438 1.554688 69.355469 1.488281 69.414062 1.386719 C 69.46875 1.285156 69.484375 1.179688 69.453125 1.070312 C 69.417969 0.960938 69.351562 0.875 69.253906 0.820312 C 69.152344 0.765625 69.046875 0.75 68.9375 0.777344 C 67.917969 0.996094 66.964844 1.375 66.078125 1.921875 C 65.195312 2.464844 64.421875 3.140625 63.769531 3.949219 C 62.449219 5.558594 61.625 7.582031 61.613281 9.679688 C 61.613281 11.632812 61.953125 13.527344 62.628906 15.363281 C 63.300781 17.15625 64.257812 18.859375 65.273438 20.503906 Z M 72.734375 8.53125 Z M 72.734375 8.53125 " fill-opacity="1" fill-rule="nonzero"/></g><g fill="rgb(0%, 73.329163%, 13.729858%)" fill-opacity="1"><g transform="translate(101.790449, 22.635443)"><g><path d="M 7.554688 -7.628906 L 2.332031 -13.441406 L 1.480469 -13.441406 L 1.480469 0 L 4.164062 0 L 4.164062 -7.386719 L 7.554688 -3.832031 L 10.941406 -7.386719 L 10.921875 0 L 13.609375 0 L 13.609375 -13.441406 L 12.773438 -13.441406 Z M 7.554688 -7.628906 "/></g></g></g><g fill="rgb(0%, 73.329163%, 13.729858%)" fill-opacity="1"><g transform="translate(116.897657, 22.635443)"><g><path d="M 4.722656 0 L 7.351562 0 L 7.351562 -5.960938 L 11.976562 -13.238281 L 8.738281 -13.238281 L 6.035156 -8.683594 L 3.332031 -13.238281 L 0.109375 -13.238281 L 4.722656 -5.960938 Z M 4.722656 0 "/></g></g></g><g fill="rgb(0%, 73.329163%, 13.729858%)" fill-opacity="1"><g transform="translate(128.913072, 22.635443)"><g/></g></g><g fill="rgb(0%, 73.329163%, 13.729858%)" fill-opacity="1"><g transform="translate(134.170967, 22.635443)"><g><path d="M 6.3125 0 L 6.3125 -10.589844 L 9.609375 -10.589844 L 9.609375 -13.21875 L 0.371094 -13.21875 L 0.371094 -10.589844 L 3.664062 -10.589844 L 3.664062 0 Z M 6.3125 0 "/></g></g></g><g fill="rgb(0%, 73.329163%, 13.729858%)" fill-opacity="1"><g transform="translate(144.297972, 22.635443)"><g><path d="M 8.070312 0 L 11.070312 0 L 7.996094 -5.460938 C 11.886719 -6.589844 11.421875 -13.238281 6.703125 -13.238281 L 1.480469 -13.238281 L 1.480469 0 L 4.128906 0 L 4.128906 -5.054688 L 5.40625 -5.054688 Z M 4.128906 -7.628906 L 4.128906 -10.589844 L 6.460938 -10.589844 C 8.257812 -10.589844 8.257812 -7.628906 6.460938 -7.628906 Z M 4.128906 -7.628906 "/></g></g></g><g fill="rgb(0%, 73.329163%, 13.729858%)" fill-opacity="1"><g transform="translate(155.646887, 22.635443)"><g><path d="M 0.296875 0 L 3.296875 0 L 3.8125 -1.425781 L 8.203125 -1.425781 L 8.738281 0 L 11.71875 0 L 6.148438 -13.71875 L 5.867188 -13.71875 Z M 4.777344 -3.90625 L 6.015625 -7.351562 L 7.21875 -3.90625 Z M 4.777344 -3.90625 "/></g></g></g><g fill="rgb(0%, 73.329163%, 13.729858%)" fill-opacity="1"><g transform="translate(167.736364, 22.635443)"><g><path d="M 5.589844 0.277344 L 6.183594 0.277344 L 11.664062 -13.238281 L 8.609375 -13.238281 L 6.832031 -8.738281 L 5.886719 -6.089844 L 4.925781 -8.832031 L 3.164062 -13.238281 L 0.109375 -13.238281 Z M 5.589844 0.277344 "/></g></g></g><g fill="rgb(0%, 73.329163%, 13.729858%)" fill-opacity="1"><g transform="translate(179.52962, 22.635443)"><g><path d="M 8.332031 0 L 8.332031 -2.648438 L 4.128906 -2.648438 L 4.128906 -5.292969 L 7.609375 -5.292969 L 7.609375 -7.941406 L 4.128906 -7.941406 L 4.128906 -10.589844 L 8.109375 -10.589844 L 8.109375 -13.238281 L 1.480469 -13.238281 L 1.480469 0 Z M 8.332031 0 "/></g></g></g><g fill="rgb(0%, 73.329163%, 13.729858%)" fill-opacity="1"><g transform="translate(188.860554, 22.635443)"><g><path d="M 1.480469 -13.238281 L 1.480469 0 L 8.332031 0 L 8.332031 -2.648438 L 4.128906 -2.648438 L 4.128906 -13.238281 Z M 1.480469 -13.238281 "/></g></g></g><g fill="rgb(0%, 73.329163%, 13.729858%)" fill-opacity="1"><g transform="translate(93.594322, 47.32025)"><g><path d="M 9.90625 -10.164062 L 10.21875 -12.886719 C 9.421875 -13.238281 8.535156 -13.402344 7.609375 -13.402344 C -1.351562 -13.402344 -1.371094 0.0351562 7.609375 0.0351562 C 8.535156 0.0351562 9.699219 -0.183594 10.515625 -0.519531 L 10.164062 -3.257812 C 9.664062 -3 8.757812 -2.664062 7.609375 -2.664062 C 2.371094 -2.664062 2.371094 -10.738281 7.609375 -10.738281 C 8.757812 -10.738281 9.40625 -10.421875 9.90625 -10.164062 Z M 9.90625 -10.164062 "/></g></g></g><g fill="rgb(0%, 73.329163%, 13.729858%)" fill-opacity="1"><g transform="translate(104.739581, 47.32025)"><g><path d="M 7.851562 0.183594 C 16.957031 0.183594 16.957031 -13.460938 7.851562 -13.460938 C -1.257812 -13.460938 -1.257812 0.183594 7.851562 0.183594 Z M 7.851562 -2.554688 C 2.554688 -2.554688 2.554688 -10.738281 7.851562 -10.738281 C 13.144531 -10.738281 13.144531 -2.554688 7.851562 -2.554688 Z M 7.851562 -2.554688 "/></g></g></g><g fill="rgb(0%, 73.329163%, 13.729858%)" fill-opacity="1"><g transform="translate(120.420725, 47.32025)"><g><path d="M 7.554688 -7.628906 L 2.332031 -13.441406 L 1.480469 -13.441406 L 1.480469 0 L 4.164062 0 L 4.164062 -7.386719 L 7.554688 -3.832031 L 10.941406 -7.386719 L 10.921875 0 L 13.609375 0 L 13.609375 -13.441406 L 12.773438 -13.441406 Z M 7.554688 -7.628906 "/></g></g></g><g fill="rgb(0%, 73.329163%, 13.729858%)" fill-opacity="1"><g transform="translate(135.527933, 47.32025)"><g><path d="M 4.128906 0 L 4.128906 -5.054688 L 6.683594 -5.054688 C 11.8125 -5.054688 11.832031 -13.21875 6.683594 -13.21875 L 1.480469 -13.21875 L 1.480469 0 Z M 4.128906 -7.628906 L 4.128906 -10.589844 L 6.460938 -10.589844 C 8.238281 -10.589844 8.238281 -7.628906 6.460938 -7.628906 Z M 4.128906 -7.628906 "/></g></g></g><g fill="rgb(0%, 73.329163%, 13.729858%)" fill-opacity="1"><g transform="translate(146.691719, 47.32025)"><g><path d="M 0.296875 0 L 3.296875 0 L 3.8125 -1.425781 L 8.203125 -1.425781 L 8.738281 0 L 11.71875 0 L 6.148438 -13.71875 L 5.867188 -13.71875 Z M 4.777344 -3.90625 L 6.015625 -7.351562 L 7.21875 -3.90625 Z M 4.777344 -3.90625 "/></g></g></g><g fill="rgb(0%, 73.329163%, 13.729858%)" fill-opacity="1"><g transform="translate(158.781195, 47.32025)"><g><path d="M 4.128906 -7.203125 L 10.832031 0.277344 L 11.535156 0.277344 L 11.535156 -13.21875 L 8.867188 -13.21875 L 8.867188 -5.738281 L 2.183594 -13.515625 L 1.480469 -13.515625 L 1.480469 0 L 4.128906 0 Z M 4.128906 -7.203125 "/></g></g></g><g fill="rgb(0%, 73.329163%, 13.729858%)" fill-opacity="1"><g transform="translate(171.814865, 47.32025)"><g><path d="M 4.128906 0 L 4.128906 -13.238281 L 1.480469 -13.238281 L 1.480469 0 Z M 4.128906 0 "/></g></g></g><g fill="rgb(0%, 73.329163%, 13.729858%)" fill-opacity="1"><g transform="translate(177.44304, 47.32025)"><g><path d="M 7.851562 0.183594 C 16.957031 0.183594 16.957031 -13.460938 7.851562 -13.460938 C -1.257812 -13.460938 -1.257812 0.183594 7.851562 0.183594 Z M 7.851562 -2.554688 C 2.554688 -2.554688 2.554688 -10.738281 7.851562 -10.738281 C 13.144531 -10.738281 13.144531 -2.554688 7.851562 -2.554688 Z M 7.851562 -2.554688 "/></g></g></g><g fill="rgb(0%, 73.329163%, 13.729858%)" fill-opacity="1"><g transform="translate(193.124184, 47.32025)"><g><path d="M 4.128906 -7.203125 L 10.832031 0.277344 L 11.535156 0.277344 L 11.535156 -13.21875 L 8.867188 -13.21875 L 8.867188 -5.738281 L 2.183594 -13.515625 L 1.480469 -13.515625 L 1.480469 0 L 4.128906 0 Z M 4.128906 -7.203125 "/></g></g></g><g fill="rgb(0%, 50.19989%, 21.569824%)" fill-opacity="1"><g transform="translate(91.956138, 61.720962)"><g><path d="M 2.65625 0.09375 C 2.53125 0.09375 2.4375 0.0546875 2.375 -0.015625 C 2.3125 -0.0976562 2.28125 -0.1875 2.28125 -0.28125 L 2.28125 -5.96875 L 0.46875 -5.96875 C 0.351562 -5.96875 0.257812 -6 0.1875 -6.0625 C 0.125 -6.132812 0.09375 -6.21875 0.09375 -6.3125 C 0.09375 -6.40625 0.125 -6.484375 0.1875 -6.546875 C 0.257812 -6.609375 0.351562 -6.640625 0.46875 -6.640625 L 4.84375 -6.640625 C 4.957031 -6.640625 5.046875 -6.609375 5.109375 -6.546875 C 5.179688 -6.484375 5.21875 -6.40625 5.21875 -6.3125 C 5.21875 -6.21875 5.179688 -6.132812 5.109375 -6.0625 C 5.046875 -6 4.957031 -5.96875 4.84375 -5.96875 L 3.03125 -5.96875 L 3.03125 -0.28125 C 3.03125 -0.1875 2.992188 -0.0976562 2.921875 -0.015625 C 2.859375 0.0546875 2.769531 0.09375 2.65625 0.09375 Z M 2.65625 0.09375 "/></g></g></g><g fill="rgb(0%, 50.19989%, 21.569824%)" fill-opacity="1"><g transform="translate(98.103591, 61.720962)"><g><path d="M 1.140625 0.046875 C 1.015625 0.046875 0.921875 0.0078125 0.859375 -0.0625 C 0.796875 -0.144531 0.765625 -0.234375 0.765625 -0.328125 L 0.765625 -4.265625 C 0.765625 -4.359375 0.796875 -4.441406 0.859375 -4.515625 C 0.921875 -4.597656 1.015625 -4.640625 1.140625 -4.640625 C 1.253906 -4.640625 1.34375 -4.597656 1.40625 -4.515625 C 1.476562 -4.441406 1.515625 -4.359375 1.515625 -4.265625 L 1.515625 -4.171875 L 1.5625 -4.171875 C 1.625 -4.273438 1.710938 -4.367188 1.828125 -4.453125 C 1.910156 -4.523438 2.019531 -4.585938 2.15625 -4.640625 C 2.300781 -4.703125 2.46875 -4.734375 2.65625 -4.734375 L 3.078125 -4.734375 C 3.171875 -4.734375 3.25 -4.703125 3.3125 -4.640625 C 3.382812 -4.578125 3.421875 -4.5 3.421875 -4.40625 C 3.421875 -4.3125 3.382812 -4.234375 3.3125 -4.171875 C 3.25 -4.109375 3.171875 -4.078125 3.078125 -4.078125 L 2.5625 -4.078125 C 2.414062 -4.078125 2.28125 -4.046875 2.15625 -3.984375 C 2.03125 -3.929688 1.914062 -3.851562 1.8125 -3.75 C 1.71875 -3.65625 1.644531 -3.535156 1.59375 -3.390625 C 1.539062 -3.253906 1.515625 -3.101562 1.515625 -2.9375 L 1.515625 -0.328125 C 1.515625 -0.234375 1.476562 -0.144531 1.40625 -0.0625 C 1.34375 0.0078125 1.253906 0.046875 1.140625 0.046875 Z M 1.140625 0.046875 "/></g></g></g><g fill="rgb(0%, 50.19989%, 21.569824%)" fill-opacity="1"><g transform="translate(102.353686, 61.720962)"><g><path d="M 1.984375 0.140625 C 1.742188 0.140625 1.53125 0.101562 1.34375 0.03125 C 1.15625 -0.0390625 0.988281 -0.140625 0.84375 -0.265625 C 0.707031 -0.390625 0.601562 -0.539062 0.53125 -0.71875 C 0.457031 -0.894531 0.421875 -1.082031 0.421875 -1.28125 C 0.421875 -1.46875 0.457031 -1.644531 0.53125 -1.8125 C 0.613281 -1.988281 0.734375 -2.140625 0.890625 -2.265625 C 1.046875 -2.398438 1.234375 -2.503906 1.453125 -2.578125 C 1.671875 -2.660156 1.914062 -2.703125 2.1875 -2.703125 L 3.5625 -2.703125 L 3.5625 -2.984375 C 3.5625 -3.296875 3.453125 -3.554688 3.234375 -3.765625 C 3.015625 -3.972656 2.726562 -4.078125 2.375 -4.078125 C 2.082031 -4.078125 1.859375 -4.019531 1.703125 -3.90625 C 1.554688 -3.800781 1.445312 -3.703125 1.375 -3.609375 C 1.300781 -3.515625 1.234375 -3.441406 1.171875 -3.390625 C 1.117188 -3.335938 1.046875 -3.3125 0.953125 -3.3125 C 0.859375 -3.3125 0.773438 -3.34375 0.703125 -3.40625 C 0.640625 -3.476562 0.609375 -3.5625 0.609375 -3.65625 C 0.609375 -3.71875 0.625 -3.78125 0.65625 -3.84375 C 0.675781 -3.875 0.695312 -3.90625 0.71875 -3.9375 C 0.75 -3.988281 0.804688 -4.0625 0.890625 -4.15625 C 0.984375 -4.25 1.097656 -4.335938 1.234375 -4.421875 C 1.378906 -4.503906 1.546875 -4.578125 1.734375 -4.640625 C 1.921875 -4.703125 2.132812 -4.734375 2.375 -4.734375 C 2.65625 -4.734375 2.914062 -4.6875 3.15625 -4.59375 C 3.394531 -4.5 3.597656 -4.375 3.765625 -4.21875 C 3.941406 -4.0625 4.078125 -3.875 4.171875 -3.65625 C 4.265625 -3.445312 4.3125 -3.222656 4.3125 -2.984375 L 4.3125 -0.328125 C 4.3125 -0.234375 4.273438 -0.144531 4.203125 -0.0625 C 4.140625 0.0078125 4.050781 0.046875 3.9375 0.046875 C 3.8125 0.046875 3.71875 0.0078125 3.65625 -0.0625 C 3.59375 -0.144531 3.5625 -0.234375 3.5625 -0.328125 L 3.5625 -0.375 L 3.515625 -0.375 C 3.390625 -0.28125 3.25 -0.191406 3.09375 -0.109375 C 2.96875 -0.046875 2.8125 0.0078125 2.625 0.0625 C 2.445312 0.113281 2.234375 0.140625 1.984375 0.140625 Z M 2.09375 -0.515625 C 2.351562 -0.515625 2.570312 -0.546875 2.75 -0.609375 C 2.9375 -0.679688 3.09375 -0.753906 3.21875 -0.828125 C 3.351562 -0.910156 3.46875 -1.015625 3.5625 -1.140625 L 3.5625 -2.046875 L 2.1875 -2.046875 C 1.84375 -2.046875 1.585938 -1.972656 1.421875 -1.828125 C 1.265625 -1.679688 1.1875 -1.5 1.1875 -1.28125 C 1.1875 -1.0625 1.265625 -0.878906 1.421875 -0.734375 C 1.578125 -0.585938 1.800781 -0.515625 2.09375 -0.515625 Z M 2.09375 -0.515625 "/></g></g></g><g fill="rgb(0%, 50.19989%, 21.569824%)" fill-opacity="1"><g transform="translate(108.169104, 61.720962)"><g><path d="M 2.28125 0.140625 C 2.132812 0.140625 2.015625 0.0976562 1.921875 0.015625 C 1.828125 -0.0664062 1.753906 -0.164062 1.703125 -0.28125 L 0.234375 -3.9375 C 0.210938 -3.988281 0.191406 -4.039062 0.171875 -4.09375 C 0.148438 -4.15625 0.140625 -4.210938 0.140625 -4.265625 C 0.140625 -4.359375 0.171875 -4.441406 0.234375 -4.515625 C 0.304688 -4.597656 0.398438 -4.640625 0.515625 -4.640625 C 0.609375 -4.640625 0.6875 -4.609375 0.75 -4.546875 C 0.820312 -4.492188 0.875 -4.429688 0.90625 -4.359375 L 2.25 -0.953125 L 2.296875 -0.953125 L 3.65625 -4.359375 C 3.6875 -4.429688 3.734375 -4.492188 3.796875 -4.546875 C 3.859375 -4.609375 3.9375 -4.640625 4.03125 -4.640625 C 4.15625 -4.640625 4.25 -4.597656 4.3125 -4.515625 C 4.375 -4.441406 4.40625 -4.359375 4.40625 -4.265625 C 4.40625 -4.210938 4.394531 -4.15625 4.375 -4.09375 C 4.351562 -4.039062 4.332031 -3.988281 4.3125 -3.9375 L 2.84375 -0.28125 C 2.789062 -0.164062 2.71875 -0.0664062 2.625 0.015625 C 2.539062 0.0976562 2.425781 0.140625 2.28125 0.140625 Z M 2.28125 0.140625 "/></g></g></g><g fill="rgb(0%, 50.19989%, 21.569824%)" fill-opacity="1"><g transform="translate(113.557611, 61.720962)"><g><path d="M 2.609375 0.140625 C 2.304688 0.140625 2.03125 0.09375 1.78125 0 C 1.53125 -0.101562 1.316406 -0.238281 1.140625 -0.40625 C 0.960938 -0.570312 0.820312 -0.769531 0.71875 -1 C 0.613281 -1.226562 0.5625 -1.460938 0.5625 -1.703125 L 0.5625 -2.890625 C 0.5625 -3.140625 0.613281 -3.375 0.71875 -3.59375 C 0.820312 -3.820312 0.960938 -4.019531 1.140625 -4.1875 C 1.316406 -4.363281 1.53125 -4.5 1.78125 -4.59375 C 2.03125 -4.6875 2.304688 -4.734375 2.609375 -4.734375 C 2.898438 -4.734375 3.171875 -4.6875 3.421875 -4.59375 C 3.671875 -4.5 3.882812 -4.363281 4.0625 -4.1875 C 4.25 -4.019531 4.390625 -3.820312 4.484375 -3.59375 C 4.585938 -3.375 4.640625 -3.140625 4.640625 -2.890625 L 4.640625 -2.375 C 4.640625 -2.28125 4.609375 -2.191406 4.546875 -2.109375 C 4.484375 -2.023438 4.390625 -1.984375 4.265625 -1.984375 L 1.328125 -1.984375 L 1.328125 -1.703125 C 1.328125 -1.535156 1.359375 -1.378906 1.421875 -1.234375 C 1.484375 -1.097656 1.566406 -0.972656 1.671875 -0.859375 C 1.785156 -0.753906 1.921875 -0.671875 2.078125 -0.609375 C 2.242188 -0.546875 2.421875 -0.515625 2.609375 -0.515625 C 2.890625 -0.515625 3.113281 -0.550781 3.28125 -0.625 C 3.445312 -0.695312 3.582031 -0.78125 3.6875 -0.875 C 3.789062 -0.96875 3.878906 -1.050781 3.953125 -1.125 C 4.023438 -1.195312 4.113281 -1.234375 4.21875 -1.234375 C 4.3125 -1.234375 4.390625 -1.203125 4.453125 -1.140625 C 4.515625 -1.078125 4.546875 -1 4.546875 -0.90625 C 4.546875 -0.820312 4.5 -0.71875 4.40625 -0.59375 C 4.320312 -0.476562 4.195312 -0.363281 4.03125 -0.25 C 3.875 -0.144531 3.675781 -0.0546875 3.4375 0.015625 C 3.195312 0.0976562 2.921875 0.140625 2.609375 0.140625 Z M 3.890625 -2.65625 L 3.890625 -2.890625 C 3.890625 -3.054688 3.859375 -3.210938 3.796875 -3.359375 C 3.734375 -3.503906 3.644531 -3.628906 3.53125 -3.734375 C 3.414062 -3.835938 3.28125 -3.921875 3.125 -3.984375 C 2.96875 -4.046875 2.796875 -4.078125 2.609375 -4.078125 C 2.421875 -4.078125 2.242188 -4.046875 2.078125 -3.984375 C 1.921875 -3.921875 1.785156 -3.835938 1.671875 -3.734375 C 1.566406 -3.628906 1.484375 -3.503906 1.421875 -3.359375 C 1.359375 -3.210938 1.328125 -3.054688 1.328125 -2.890625 L 1.328125 -2.65625 Z M 3.890625 -2.65625 "/></g></g></g><g fill="rgb(0%, 50.19989%, 21.569824%)" fill-opacity="1"><g transform="translate(119.515325, 61.720962)"><g><path d="M 1.140625 0.046875 C 1.015625 0.046875 0.921875 0.0078125 0.859375 -0.0625 C 0.796875 -0.144531 0.765625 -0.234375 0.765625 -0.328125 L 0.765625 -6.21875 C 0.765625 -6.3125 0.796875 -6.394531 0.859375 -6.46875 C 0.921875 -6.550781 1.015625 -6.59375 1.140625 -6.59375 C 1.253906 -6.59375 1.34375 -6.550781 1.40625 -6.46875 C 1.476562 -6.394531 1.515625 -6.3125 1.515625 -6.21875 L 1.515625 -0.328125 C 1.515625 -0.234375 1.476562 -0.144531 1.40625 -0.0625 C 1.34375 0.0078125 1.253906 0.046875 1.140625 0.046875 Z M 1.140625 0.046875 "/></g></g></g><g fill="rgb(0%, 50.19989%, 21.569824%)" fill-opacity="1"><g transform="translate(122.626995, 61.720962)"><g/></g></g><g fill="rgb(0%, 50.19989%, 21.569824%)" fill-opacity="1"><g transform="translate(125.738666, 61.720962)"><g><path d="M 2.65625 0.09375 C 2.53125 0.09375 2.4375 0.0546875 2.375 -0.015625 C 2.3125 -0.0976562 2.28125 -0.1875 2.28125 -0.28125 L 2.28125 -5.96875 L 0.46875 -5.96875 C 0.351562 -5.96875 0.257812 -6 0.1875 -6.0625 C 0.125 -6.132812 0.09375 -6.21875 0.09375 -6.3125 C 0.09375 -6.40625 0.125 -6.484375 0.1875 -6.546875 C 0.257812 -6.609375 0.351562 -6.640625 0.46875 -6.640625 L 4.84375 -6.640625 C 4.957031 -6.640625 5.046875 -6.609375 5.109375 -6.546875 C 5.179688 -6.484375 5.21875 -6.40625 5.21875 -6.3125 C 5.21875 -6.21875 5.179688 -6.132812 5.109375 -6.0625 C 5.046875 -6 4.957031 -5.96875 4.84375 -5.96875 L 3.03125 -5.96875 L 3.03125 -0.28125 C 3.03125 -0.1875 2.992188 -0.0976562 2.921875 -0.015625 C 2.859375 0.0546875 2.769531 0.09375 2.65625 0.09375 Z M 2.65625 0.09375 "/></g></g></g><g fill="rgb(0%, 50.19989%, 21.569824%)" fill-opacity="1"><g transform="translate(131.886119, 61.720962)"><g><path d="M 1.140625 0.046875 C 1.015625 0.046875 0.921875 0.0078125 0.859375 -0.0625 C 0.796875 -0.144531 0.765625 -0.234375 0.765625 -0.328125 L 0.765625 -6.21875 C 0.765625 -6.3125 0.796875 -6.394531 0.859375 -6.46875 C 0.921875 -6.550781 1.015625 -6.59375 1.140625 -6.59375 C 1.253906 -6.59375 1.34375 -6.550781 1.40625 -6.46875 C 1.476562 -6.394531 1.515625 -6.3125 1.515625 -6.21875 L 1.515625 -4.171875 L 1.5625 -4.171875 C 1.65625 -4.273438 1.765625 -4.367188 1.890625 -4.453125 C 1.992188 -4.523438 2.128906 -4.585938 2.296875 -4.640625 C 2.460938 -4.703125 2.660156 -4.734375 2.890625 -4.734375 C 3.128906 -4.734375 3.351562 -4.6875 3.5625 -4.59375 C 3.78125 -4.5 3.96875 -4.375 4.125 -4.21875 C 4.28125 -4.0625 4.40625 -3.875 4.5 -3.65625 C 4.59375 -3.445312 4.640625 -3.222656 4.640625 -2.984375 L 4.640625 -0.328125 C 4.640625 -0.234375 4.609375 -0.144531 4.546875 -0.0625 C 4.484375 0.0078125 4.390625 0.046875 4.265625 0.046875 C 4.148438 0.046875 4.054688 0.0078125 3.984375 -0.0625 C 3.921875 -0.144531 3.890625 -0.234375 3.890625 -0.328125 L 3.890625 -2.984375 C 3.890625 -3.296875 3.78125 -3.554688 3.5625 -3.765625 C 3.351562 -3.972656 3.066406 -4.078125 2.703125 -4.078125 C 2.335938 -4.078125 2.046875 -3.972656 1.828125 -3.765625 C 1.617188 -3.554688 1.515625 -3.296875 1.515625 -2.984375 L 1.515625 -0.328125 C 1.515625 -0.234375 1.476562 -0.144531 1.40625 -0.0625 C 1.34375 0.0078125 1.253906 0.046875 1.140625 0.046875 Z M 1.140625 0.046875 "/></g></g></g><g fill="rgb(0%, 50.19989%, 21.569824%)" fill-opacity="1"><g transform="translate(138.033572, 61.720962)"><g><path d="M 2.609375 0.140625 C 2.304688 0.140625 2.03125 0.09375 1.78125 0 C 1.53125 -0.101562 1.316406 -0.238281 1.140625 -0.40625 C 0.960938 -0.570312 0.820312 -0.769531 0.71875 -1 C 0.613281 -1.226562 0.5625 -1.460938 0.5625 -1.703125 L 0.5625 -2.890625 C 0.5625 -3.140625 0.613281 -3.375 0.71875 -3.59375 C 0.820312 -3.820312 0.960938 -4.019531 1.140625 -4.1875 C 1.316406 -4.363281 1.53125 -4.5 1.78125 -4.59375 C 2.03125 -4.6875 2.304688 -4.734375 2.609375 -4.734375 C 2.898438 -4.734375 3.171875 -4.6875 3.421875 -4.59375 C 3.671875 -4.5 3.882812 -4.363281 4.0625 -4.1875 C 4.25 -4.019531 4.390625 -3.820312 4.484375 -3.59375 C 4.585938 -3.375 4.640625 -3.140625 4.640625 -2.890625 L 4.640625 -2.375 C 4.640625 -2.28125 4.609375 -2.191406 4.546875 -2.109375 C 4.484375 -2.023438 4.390625 -1.984375 4.265625 -1.984375 L 1.328125 -1.984375 L 1.328125 -1.703125 C 1.328125 -1.535156 1.359375 -1.378906 1.421875 -1.234375 C 1.484375 -1.097656 1.566406 -0.972656 1.671875 -0.859375 C 1.785156 -0.753906 1.921875 -0.671875 2.078125 -0.609375 C 2.242188 -0.546875 2.421875 -0.515625 2.609375 -0.515625 C 2.890625 -0.515625 3.113281 -0.550781 3.28125 -0.625 C 3.445312 -0.695312 3.582031 -0.78125 3.6875 -0.875 C 3.789062 -0.96875 3.878906 -1.050781 3.953125 -1.125 C 4.023438 -1.195312 4.113281 -1.234375 4.21875 -1.234375 C 4.3125 -1.234375 4.390625 -1.203125 4.453125 -1.140625 C 4.515625 -1.078125 4.546875 -1 4.546875 -0.90625 C 4.546875 -0.820312 4.5 -0.71875 4.40625 -0.59375 C 4.320312 -0.476562 4.195312 -0.363281 4.03125 -0.25 C 3.875 -0.144531 3.675781 -0.0546875 3.4375 0.015625 C 3.195312 0.0976562 2.921875 0.140625 2.609375 0.140625 Z M 3.890625 -2.65625 L 3.890625 -2.890625 C 3.890625 -3.054688 3.859375 -3.210938 3.796875 -3.359375 C 3.734375 -3.503906 3.644531 -3.628906 3.53125 -3.734375 C 3.414062 -3.835938 3.28125 -3.921875 3.125 -3.984375 C 2.96875 -4.046875 2.796875 -4.078125 2.609375 -4.078125 C 2.421875 -4.078125 2.242188 -4.046875 2.078125 -3.984375 C 1.921875 -3.921875 1.785156 -3.835938 1.671875 -3.734375 C 1.566406 -3.628906 1.484375 -3.503906 1.421875 -3.359375 C 1.359375 -3.210938 1.328125 -3.054688 1.328125 -2.890625 L 1.328125 -2.65625 Z M 3.890625 -2.65625 "/></g></g></g><g fill="rgb(0%, 50.19989%, 21.569824%)" fill-opacity="1"><g transform="translate(143.991286, 61.720962)"><g/></g></g><g fill="rgb(0%, 50.19989%, 21.569824%)" fill-opacity="1"><g transform="translate(147.102956, 61.720962)"><g><path d="M 2.46875 0.1875 C 2.320312 0.1875 2.203125 0.144531 2.109375 0.0625 C 2.023438 -0.0195312 1.96875 -0.117188 1.9375 -0.234375 L 0.28125 -5.921875 C 0.257812 -5.984375 0.242188 -6.039062 0.234375 -6.09375 C 0.203125 -6.1875 0.1875 -6.273438 0.1875 -6.359375 C 0.1875 -6.453125 0.21875 -6.535156 0.28125 -6.609375 C 0.351562 -6.691406 0.445312 -6.734375 0.5625 -6.734375 C 0.664062 -6.734375 0.75 -6.703125 0.8125 -6.640625 C 0.882812 -6.578125 0.929688 -6.515625 0.953125 -6.453125 L 2.453125 -1.234375 L 2.484375 -1.234375 L 3.9375 -6.3125 C 3.96875 -6.425781 4.023438 -6.523438 4.109375 -6.609375 C 4.191406 -6.691406 4.304688 -6.734375 4.453125 -6.734375 C 4.597656 -6.734375 4.710938 -6.691406 4.796875 -6.609375 C 4.890625 -6.523438 4.953125 -6.425781 4.984375 -6.3125 L 6.4375 -1.234375 L 6.46875 -1.234375 L 7.96875 -6.453125 C 7.988281 -6.515625 8.03125 -6.578125 8.09375 -6.640625 C 8.164062 -6.703125 8.25 -6.734375 8.34375 -6.734375 C 8.46875 -6.734375 8.5625 -6.691406 8.625 -6.609375 C 8.6875 -6.535156 8.71875 -6.453125 8.71875 -6.359375 C 8.71875 -6.316406 8.710938 -6.269531 8.703125 -6.21875 C 8.703125 -6.175781 8.691406 -6.132812 8.671875 -6.09375 C 8.660156 -6.039062 8.644531 -5.984375 8.625 -5.921875 L 6.96875 -0.234375 C 6.9375 -0.117188 6.878906 -0.0195312 6.796875 0.0625 C 6.710938 0.144531 6.597656 0.1875 6.453125 0.1875 C 6.304688 0.1875 6.1875 0.144531 6.09375 0.0625 C 6.007812 -0.0195312 5.953125 -0.117188 5.921875 -0.234375 L 4.484375 -5.359375 L 4.4375 -5.359375 L 2.984375 -0.234375 C 2.953125 -0.117188 2.894531 -0.0195312 2.8125 0.0625 C 2.726562 0.144531 2.613281 0.1875 2.46875 0.1875 Z M 2.46875 0.1875 "/></g></g></g><g fill="rgb(0%, 50.19989%, 21.569824%)" fill-opacity="1"><g transform="translate(156.855398, 61.720962)"><g><path d="M 2.609375 0.140625 C 2.304688 0.140625 2.03125 0.09375 1.78125 0 C 1.53125 -0.101562 1.316406 -0.238281 1.140625 -0.40625 C 0.960938 -0.570312 0.820312 -0.769531 0.71875 -1 C 0.613281 -1.226562 0.5625 -1.460938 0.5625 -1.703125 L 0.5625 -2.890625 C 0.5625 -3.140625 0.613281 -3.375 0.71875 -3.59375 C 0.820312 -3.820312 0.960938 -4.019531 1.140625 -4.1875 C 1.316406 -4.363281 1.53125 -4.5 1.78125 -4.59375 C 2.03125 -4.6875 2.304688 -4.734375 2.609375 -4.734375 C 2.898438 -4.734375 3.171875 -4.6875 3.421875 -4.59375 C 3.671875 -4.5 3.882812 -4.363281 4.0625 -4.1875 C 4.25 -4.019531 4.390625 -3.820312 4.484375 -3.59375 C 4.585938 -3.375 4.640625 -3.140625 4.640625 -2.890625 L 4.640625 -1.703125 C 4.640625 -1.460938 4.585938 -1.226562 4.484375 -1 C 4.390625 -0.769531 4.25 -0.570312 4.0625 -0.40625 C 3.882812 -0.238281 3.671875 -0.101562 3.421875 0 C 3.171875 0.09375 2.898438 0.140625 2.609375 0.140625 Z M 2.609375 -0.515625 C 2.796875 -0.515625 2.96875 -0.546875 3.125 -0.609375 C 3.28125 -0.671875 3.414062 -0.753906 3.53125 -0.859375 C 3.644531 -0.972656 3.734375 -1.097656 3.796875 -1.234375 C 3.859375 -1.378906 3.890625 -1.535156 3.890625 -1.703125 L 3.890625 -2.890625 C 3.890625 -3.054688 3.859375 -3.210938 3.796875 -3.359375 C 3.734375 -3.503906 3.644531 -3.628906 3.53125 -3.734375 C 3.414062 -3.835938 3.28125 -3.921875 3.125 -3.984375 C 2.96875 -4.046875 2.796875 -4.078125 2.609375 -4.078125 C 2.421875 -4.078125 2.242188 -4.046875 2.078125 -3.984375 C 1.921875 -3.921875 1.785156 -3.835938 1.671875 -3.734375 C 1.566406 -3.628906 1.484375 -3.503906 1.421875 -3.359375 C 1.359375 -3.210938 1.328125 -3.054688 1.328125 -2.890625 L 1.328125 -1.703125 C 1.328125 -1.535156 1.359375 -1.378906 1.421875 -1.234375 C 1.484375 -1.097656 1.566406 -0.972656 1.671875 -0.859375 C 1.785156 -0.753906 1.921875 -0.671875 2.078125 -0.609375 C 2.242188 -0.546875 2.421875 -0.515625 2.609375 -0.515625 Z M 2.609375 -0.515625 "/></g></g></g><g fill="rgb(0%, 50.19989%, 21.569824%)" fill-opacity="1"><g transform="translate(162.907987, 61.720962)"><g><path d="M 1.140625 0.046875 C 1.015625 0.046875 0.921875 0.0078125 0.859375 -0.0625 C 0.796875 -0.144531 0.765625 -0.234375 0.765625 -0.328125 L 0.765625 -4.265625 C 0.765625 -4.359375 0.796875 -4.441406 0.859375 -4.515625 C 0.921875 -4.597656 1.015625 -4.640625 1.140625 -4.640625 C 1.253906 -4.640625 1.34375 -4.597656 1.40625 -4.515625 C 1.476562 -4.441406 1.515625 -4.359375 1.515625 -4.265625 L 1.515625 -4.171875 L 1.5625 -4.171875 C 1.625 -4.273438 1.710938 -4.367188 1.828125 -4.453125 C 1.910156 -4.523438 2.019531 -4.585938 2.15625 -4.640625 C 2.300781 -4.703125 2.46875 -4.734375 2.65625 -4.734375 L 3.078125 -4.734375 C 3.171875 -4.734375 3.25 -4.703125 3.3125 -4.640625 C 3.382812 -4.578125 3.421875 -4.5 3.421875 -4.40625 C 3.421875 -4.3125 3.382812 -4.234375 3.3125 -4.171875 C 3.25 -4.109375 3.171875 -4.078125 3.078125 -4.078125 L 2.5625 -4.078125 C 2.414062 -4.078125 2.28125 -4.046875 2.15625 -3.984375 C 2.03125 -3.929688 1.914062 -3.851562 1.8125 -3.75 C 1.71875 -3.65625 1.644531 -3.535156 1.59375 -3.390625 C 1.539062 -3.253906 1.515625 -3.101562 1.515625 -2.9375 L 1.515625 -0.328125 C 1.515625 -0.234375 1.476562 -0.144531 1.40625 -0.0625 C 1.34375 0.0078125 1.253906 0.046875 1.140625 0.046875 Z M 1.140625 0.046875 "/></g></g></g><g fill="rgb(0%, 50.19989%, 21.569824%)" fill-opacity="1"><g transform="translate(167.158082, 61.720962)"><g><path d="M 1.140625 0.046875 C 1.015625 0.046875 0.921875 0.0078125 0.859375 -0.0625 C 0.796875 -0.144531 0.765625 -0.234375 0.765625 -0.328125 L 0.765625 -6.21875 C 0.765625 -6.3125 0.796875 -6.394531 0.859375 -6.46875 C 0.921875 -6.550781 1.015625 -6.59375 1.140625 -6.59375 C 1.253906 -6.59375 1.34375 -6.550781 1.40625 -6.46875 C 1.476562 -6.394531 1.515625 -6.3125 1.515625 -6.21875 L 1.515625 -0.328125 C 1.515625 -0.234375 1.476562 -0.144531 1.40625 -0.0625 C 1.34375 0.0078125 1.253906 0.046875 1.140625 0.046875 Z M 1.140625 0.046875 "/></g></g></g><g fill="rgb(0%, 50.19989%, 21.569824%)" fill-opacity="1"><g transform="translate(170.269753, 61.720962)"><g><path d="M 2.46875 0.140625 C 2.207031 0.140625 1.960938 0.09375 1.734375 0 C 1.503906 -0.101562 1.300781 -0.238281 1.125 -0.40625 C 0.957031 -0.570312 0.820312 -0.769531 0.71875 -1 C 0.613281 -1.226562 0.5625 -1.460938 0.5625 -1.703125 L 0.5625 -2.890625 C 0.5625 -3.140625 0.613281 -3.375 0.71875 -3.59375 C 0.820312 -3.820312 0.957031 -4.019531 1.125 -4.1875 C 1.300781 -4.363281 1.503906 -4.5 1.734375 -4.59375 C 1.960938 -4.6875 2.207031 -4.734375 2.46875 -4.734375 C 2.675781 -4.734375 2.859375 -4.703125 3.015625 -4.640625 C 3.179688 -4.585938 3.316406 -4.523438 3.421875 -4.453125 C 3.546875 -4.367188 3.65625 -4.273438 3.75 -4.171875 L 3.796875 -4.171875 L 3.796875 -6.21875 C 3.796875 -6.3125 3.828125 -6.394531 3.890625 -6.46875 C 3.960938 -6.550781 4.054688 -6.59375 4.171875 -6.59375 C 4.296875 -6.59375 4.390625 -6.550781 4.453125 -6.46875 C 4.515625 -6.394531 4.546875 -6.3125 4.546875 -6.21875 L 4.546875 -0.328125 C 4.546875 -0.234375 4.515625 -0.144531 4.453125 -0.0625 C 4.390625 0.0078125 4.296875 0.046875 4.171875 0.046875 C 4.054688 0.046875 3.960938 0.0078125 3.890625 -0.0625 C 3.828125 -0.144531 3.796875 -0.234375 3.796875 -0.328125 L 3.796875 -0.421875 L 3.75 -0.421875 C 3.65625 -0.316406 3.546875 -0.222656 3.421875 -0.140625 C 3.316406 -0.0664062 3.179688 -0.00390625 3.015625 0.046875 C 2.859375 0.109375 2.675781 0.140625 2.46875 0.140625 Z M 2.5625 -0.515625 C 2.738281 -0.515625 2.898438 -0.546875 3.046875 -0.609375 C 3.203125 -0.671875 3.332031 -0.753906 3.4375 -0.859375 C 3.550781 -0.972656 3.640625 -1.097656 3.703125 -1.234375 C 3.765625 -1.378906 3.796875 -1.535156 3.796875 -1.703125 L 3.796875 -2.890625 C 3.796875 -3.054688 3.765625 -3.210938 3.703125 -3.359375 C 3.640625 -3.503906 3.550781 -3.628906 3.4375 -3.734375 C 3.332031 -3.835938 3.203125 -3.921875 3.046875 -3.984375 C 2.898438 -4.046875 2.738281 -4.078125 2.5625 -4.078125 C 2.382812 -4.078125 2.21875 -4.046875 2.0625 -3.984375 C 1.914062 -3.921875 1.785156 -3.835938 1.671875 -3.734375 C 1.566406 -3.628906 1.484375 -3.503906 1.421875 -3.359375 C 1.359375 -3.210938 1.328125 -3.054688 1.328125 -2.890625 L 1.328125 -1.703125 C 1.328125 -1.535156 1.359375 -1.378906 1.421875 -1.234375 C 1.484375 -1.097656 1.566406 -0.972656 1.671875 -0.859375 C 1.785156 -0.753906 1.914062 -0.671875 2.0625 -0.609375 C 2.21875 -0.546875 2.382812 -0.515625 2.5625 -0.515625 Z M 2.5625 -0.515625 "/></g></g></g><g fill="rgb(0%, 50.19989%, 21.569824%)" fill-opacity="1"><g transform="translate(176.417206, 61.720962)"><g/></g></g><g fill="rgb(0%, 50.19989%, 21.569824%)" fill-opacity="1"><g transform="translate(179.528876, 61.720962)"><g><path d="M 2.46875 0.1875 C 2.320312 0.1875 2.203125 0.144531 2.109375 0.0625 C 2.023438 -0.0195312 1.96875 -0.117188 1.9375 -0.234375 L 0.28125 -5.921875 C 0.257812 -5.984375 0.242188 -6.039062 0.234375 -6.09375 C 0.203125 -6.1875 0.1875 -6.273438 0.1875 -6.359375 C 0.1875 -6.453125 0.21875 -6.535156 0.28125 -6.609375 C 0.351562 -6.691406 0.445312 -6.734375 0.5625 -6.734375 C 0.664062 -6.734375 0.75 -6.703125 0.8125 -6.640625 C 0.882812 -6.578125 0.929688 -6.515625 0.953125 -6.453125 L 2.453125 -1.234375 L 2.484375 -1.234375 L 3.9375 -6.3125 C 3.96875 -6.425781 4.023438 -6.523438 4.109375 -6.609375 C 4.191406 -6.691406 4.304688 -6.734375 4.453125 -6.734375 C 4.597656 -6.734375 4.710938 -6.691406 4.796875 -6.609375 C 4.890625 -6.523438 4.953125 -6.425781 4.984375 -6.3125 L 6.4375 -1.234375 L 6.46875 -1.234375 L 7.96875 -6.453125 C 7.988281 -6.515625 8.03125 -6.578125 8.09375 -6.640625 C 8.164062 -6.703125 8.25 -6.734375 8.34375 -6.734375 C 8.46875 -6.734375 8.5625 -6.691406 8.625 -6.609375 C 8.6875 -6.535156 8.71875 -6.453125 8.71875 -6.359375 C 8.71875 -6.316406 8.710938 -6.269531 8.703125 -6.21875 C 8.703125 -6.175781 8.691406 -6.132812 8.671875 -6.09375 C 8.660156 -6.039062 8.644531 -5.984375 8.625 -5.921875 L 6.96875 -0.234375 C 6.9375 -0.117188 6.878906 -0.0195312 6.796875 0.0625 C 6.710938 0.144531 6.597656 0.1875 6.453125 0.1875 C 6.304688 0.1875 6.1875 0.144531 6.09375 0.0625 C 6.007812 -0.0195312 5.953125 -0.117188 5.921875 -0.234375 L 4.484375 -5.359375 L 4.4375 -5.359375 L 2.984375 -0.234375 C 2.953125 -0.117188 2.894531 -0.0195312 2.8125 0.0625 C 2.726562 0.144531 2.613281 0.1875 2.46875 0.1875 Z M 2.46875 0.1875 "/></g></g></g><g fill="rgb(0%, 50.19989%, 21.569824%)" fill-opacity="1"><g transform="translate(189.281318, 61.720962)"><g><path d="M 1.140625 0.046875 C 1.015625 0.046875 0.921875 0.0078125 0.859375 -0.0625 C 0.796875 -0.144531 0.765625 -0.234375 0.765625 -0.328125 L 0.765625 -4.265625 C 0.765625 -4.359375 0.796875 -4.441406 0.859375 -4.515625 C 0.921875 -4.597656 1.015625 -4.640625 1.140625 -4.640625 C 1.253906 -4.640625 1.34375 -4.597656 1.40625 -4.515625 C 1.476562 -4.441406 1.515625 -4.359375 1.515625 -4.265625 L 1.515625 -0.328125 C 1.515625 -0.234375 1.476562 -0.144531 1.40625 -0.0625 C 1.34375 0.0078125 1.253906 0.046875 1.140625 0.046875 Z M 1.140625 -5.734375 C 0.992188 -5.734375 0.875 -5.78125 0.78125 -5.875 C 0.695312 -5.976562 0.65625 -6.09375 0.65625 -6.21875 C 0.65625 -6.332031 0.695312 -6.4375 0.78125 -6.53125 C 0.875 -6.632812 0.992188 -6.6875 1.140625 -6.6875 C 1.285156 -6.6875 1.398438 -6.632812 1.484375 -6.53125 C 1.566406 -6.4375 1.609375 -6.332031 1.609375 -6.21875 C 1.609375 -6.09375 1.566406 -5.976562 1.484375 -5.875 C 1.398438 -5.78125 1.285156 -5.734375 1.140625 -5.734375 Z M 1.140625 -5.734375 "/></g></g></g><g fill="rgb(0%, 50.19989%, 21.569824%)" fill-opacity="1"><g transform="translate(192.392988, 61.720962)"><g><path d="M 2.46875 0 C 2.25 0 2.050781 -0.0351562 1.875 -0.109375 C 1.695312 -0.179688 1.539062 -0.28125 1.40625 -0.40625 C 1.28125 -0.539062 1.179688 -0.695312 1.109375 -0.875 C 1.035156 -1.050781 1 -1.25 1 -1.46875 L 1 -3.890625 L 0.515625 -3.890625 C 0.421875 -3.890625 0.34375 -3.921875 0.28125 -3.984375 C 0.21875 -4.046875 0.1875 -4.125 0.1875 -4.21875 C 0.1875 -4.3125 0.21875 -4.390625 0.28125 -4.453125 C 0.34375 -4.515625 0.421875 -4.546875 0.515625 -4.546875 L 1 -4.546875 L 1 -5.453125 C 1 -5.546875 1.03125 -5.628906 1.09375 -5.703125 C 1.15625 -5.785156 1.25 -5.828125 1.375 -5.828125 C 1.5 -5.828125 1.59375 -5.785156 1.65625 -5.703125 C 1.71875 -5.628906 1.75 -5.546875 1.75 -5.453125 L 1.75 -4.546875 L 3.078125 -4.546875 C 3.171875 -4.546875 3.25 -4.515625 3.3125 -4.453125 C 3.382812 -4.390625 3.421875 -4.3125 3.421875 -4.21875 C 3.421875 -4.125 3.382812 -4.046875 3.3125 -3.984375 C 3.25 -3.921875 3.171875 -3.890625 3.078125 -3.890625 L 1.75 -3.890625 L 1.75 -1.46875 C 1.75 -1.207031 1.8125 -1.003906 1.9375 -0.859375 C 2.070312 -0.722656 2.25 -0.65625 2.46875 -0.65625 L 3.3125 -0.65625 C 3.414062 -0.65625 3.5 -0.625 3.5625 -0.5625 C 3.625 -0.5 3.65625 -0.421875 3.65625 -0.328125 C 3.65625 -0.234375 3.625 -0.15625 3.5625 -0.09375 C 3.5 -0.03125 3.414062 0 3.3125 0 Z M 2.46875 0 "/></g></g></g><g fill="rgb(0%, 50.19989%, 21.569824%)" fill-opacity="1"><g transform="translate(196.975118, 61.720962)"><g><path d="M 1.140625 0.046875 C 1.015625 0.046875 0.921875 0.0078125 0.859375 -0.0625 C 0.796875 -0.144531 0.765625 -0.234375 0.765625 -0.328125 L 0.765625 -6.21875 C 0.765625 -6.3125 0.796875 -6.394531 0.859375 -6.46875 C 0.921875 -6.550781 1.015625 -6.59375 1.140625 -6.59375 C 1.253906 -6.59375 1.34375 -6.550781 1.40625 -6.46875 C 1.476562 -6.394531 1.515625 -6.3125 1.515625 -6.21875 L 1.515625 -4.171875 L 1.5625 -4.171875 C 1.65625 -4.273438 1.765625 -4.367188 1.890625 -4.453125 C 1.992188 -4.523438 2.128906 -4.585938 2.296875 -4.640625 C 2.460938 -4.703125 2.660156 -4.734375 2.890625 -4.734375 C 3.128906 -4.734375 3.351562 -4.6875 3.5625 -4.59375 C 3.78125 -4.5 3.96875 -4.375 4.125 -4.21875 C 4.28125 -4.0625 4.40625 -3.875 4.5 -3.65625 C 4.59375 -3.445312 4.640625 -3.222656 4.640625 -2.984375 L 4.640625 -0.328125 C 4.640625 -0.234375 4.609375 -0.144531 4.546875 -0.0625 C 4.484375 0.0078125 4.390625 0.046875 4.265625 0.046875 C 4.148438 0.046875 4.054688 0.0078125 3.984375 -0.0625 C 3.921875 -0.144531 3.890625 -0.234375 3.890625 -0.328125 L 3.890625 -2.984375 C 3.890625 -3.296875 3.78125 -3.554688 3.5625 -3.765625 C 3.351562 -3.972656 3.066406 -4.078125 2.703125 -4.078125 C 2.335938 -4.078125 2.046875 -3.972656 1.828125 -3.765625 C 1.617188 -3.554688 1.515625 -3.296875 1.515625 -2.984375 L 1.515625 -0.328125 C 1.515625 -0.234375 1.476562 -0.144531 1.40625 -0.0625 C 1.34375 0.0078125 1.253906 0.046875 1.140625 0.046875 Z M 1.140625 0.046875 "/></g></g></g><g fill="rgb(0%, 50.19989%, 21.569824%)" fill-opacity="1"><g transform="translate(203.122571, 61.720962)"><g/></g></g><g fill="rgb(0%, 50.19989%, 21.569824%)" fill-opacity="1"><g transform="translate(206.234242, 61.720962)"><g><path d="M 3.265625 0.1875 C 2.898438 0.1875 2.5625 0.125 2.25 0 C 1.945312 -0.125 1.679688 -0.289062 1.453125 -0.5 C 1.234375 -0.707031 1.0625 -0.953125 0.9375 -1.234375 C 0.820312 -1.523438 0.765625 -1.84375 0.765625 -2.1875 L 0.765625 -6.359375 C 0.765625 -6.453125 0.796875 -6.535156 0.859375 -6.609375 C 0.921875 -6.691406 1.015625 -6.734375 1.140625 -6.734375 C 1.253906 -6.734375 1.34375 -6.691406 1.40625 -6.609375 C 1.476562 -6.535156 1.515625 -6.453125 1.515625 -6.359375 L 1.515625 -2.1875 C 1.515625 -1.945312 1.554688 -1.722656 1.640625 -1.515625 C 1.734375 -1.304688 1.859375 -1.125 2.015625 -0.96875 C 2.171875 -0.8125 2.359375 -0.6875 2.578125 -0.59375 C 2.796875 -0.507812 3.023438 -0.46875 3.265625 -0.46875 C 3.515625 -0.46875 3.742188 -0.507812 3.953125 -0.59375 C 4.171875 -0.6875 4.359375 -0.8125 4.515625 -0.96875 C 4.679688 -1.125 4.804688 -1.304688 4.890625 -1.515625 C 4.984375 -1.722656 5.03125 -1.945312 5.03125 -2.1875 L 5.03125 -6.359375 C 5.03125 -6.453125 5.0625 -6.535156 5.125 -6.609375 C 5.1875 -6.691406 5.28125 -6.734375 5.40625 -6.734375 C 5.53125 -6.734375 5.625 -6.691406 5.6875 -6.609375 C 5.75 -6.535156 5.78125 -6.453125 5.78125 -6.359375 L 5.78125 -2.1875 C 5.78125 -1.84375 5.71875 -1.523438 5.59375 -1.234375 C 5.476562 -0.953125 5.304688 -0.707031 5.078125 -0.5 C 4.847656 -0.289062 4.582031 -0.125 4.28125 0 C 3.976562 0.125 3.640625 0.1875 3.265625 0.1875 Z M 3.265625 0.1875 "/></g></g></g><g fill="rgb(0%, 50.19989%, 21.569824%)" fill-opacity="1"><g transform="translate(213.614983, 61.720962)"><g><path d="M 2.234375 0.140625 C 1.972656 0.140625 1.738281 0.101562 1.53125 0.03125 C 1.320312 -0.03125 1.140625 -0.113281 0.984375 -0.21875 C 0.828125 -0.320312 0.695312 -0.429688 0.59375 -0.546875 C 0.5 -0.671875 0.425781 -0.789062 0.375 -0.90625 C 0.363281 -0.914062 0.351562 -0.9375 0.34375 -0.96875 C 0.332031 -1.019531 0.328125 -1.078125 0.328125 -1.140625 C 0.328125 -1.234375 0.359375 -1.3125 0.421875 -1.375 C 0.484375 -1.4375 0.5625 -1.46875 0.65625 -1.46875 C 0.757812 -1.46875 0.832031 -1.441406 0.875 -1.390625 C 0.925781 -1.347656 0.984375 -1.28125 1.046875 -1.1875 C 1.097656 -1.09375 1.160156 -1.003906 1.234375 -0.921875 C 1.304688 -0.835938 1.382812 -0.765625 1.46875 -0.703125 C 1.5625 -0.648438 1.671875 -0.601562 1.796875 -0.5625 C 1.921875 -0.53125 2.066406 -0.515625 2.234375 -0.515625 C 2.421875 -0.515625 2.582031 -0.535156 2.71875 -0.578125 C 2.863281 -0.628906 2.984375 -0.6875 3.078125 -0.75 C 3.171875 -0.820312 3.238281 -0.898438 3.28125 -0.984375 C 3.332031 -1.066406 3.359375 -1.148438 3.359375 -1.234375 C 3.359375 -1.421875 3.285156 -1.5625 3.140625 -1.65625 C 3.003906 -1.75 2.828125 -1.828125 2.609375 -1.890625 C 2.390625 -1.953125 2.148438 -2.007812 1.890625 -2.0625 C 1.640625 -2.125 1.40625 -2.203125 1.1875 -2.296875 C 0.96875 -2.398438 0.785156 -2.53125 0.640625 -2.6875 C 0.492188 -2.851562 0.421875 -3.078125 0.421875 -3.359375 C 0.421875 -3.535156 0.457031 -3.707031 0.53125 -3.875 C 0.613281 -4.039062 0.726562 -4.1875 0.875 -4.3125 C 1.03125 -4.445312 1.210938 -4.550781 1.421875 -4.625 C 1.640625 -4.695312 1.878906 -4.734375 2.140625 -4.734375 C 2.390625 -4.734375 2.617188 -4.703125 2.828125 -4.640625 C 3.046875 -4.578125 3.226562 -4.5 3.375 -4.40625 C 3.53125 -4.320312 3.648438 -4.226562 3.734375 -4.125 C 3.828125 -4.019531 3.894531 -3.925781 3.9375 -3.84375 C 3.945312 -3.832031 3.953125 -3.8125 3.953125 -3.78125 C 3.960938 -3.757812 3.96875 -3.738281 3.96875 -3.71875 C 3.976562 -3.695312 3.984375 -3.675781 3.984375 -3.65625 C 3.984375 -3.5625 3.953125 -3.476562 3.890625 -3.40625 C 3.828125 -3.34375 3.75 -3.3125 3.65625 -3.3125 C 3.5625 -3.3125 3.488281 -3.332031 3.4375 -3.375 C 3.382812 -3.425781 3.328125 -3.488281 3.265625 -3.5625 C 3.148438 -3.707031 3.007812 -3.828125 2.84375 -3.921875 C 2.675781 -4.023438 2.441406 -4.078125 2.140625 -4.078125 C 1.828125 -4.078125 1.585938 -4.003906 1.421875 -3.859375 C 1.265625 -3.722656 1.1875 -3.554688 1.1875 -3.359375 C 1.1875 -3.179688 1.257812 -3.046875 1.40625 -2.953125 C 1.550781 -2.867188 1.734375 -2.796875 1.953125 -2.734375 C 2.171875 -2.671875 2.40625 -2.613281 2.65625 -2.5625 C 2.90625 -2.507812 3.140625 -2.429688 3.359375 -2.328125 C 3.578125 -2.234375 3.757812 -2.097656 3.90625 -1.921875 C 4.050781 -1.753906 4.125 -1.523438 4.125 -1.234375 C 4.125 -1.066406 4.082031 -0.898438 4 -0.734375 C 3.914062 -0.578125 3.789062 -0.429688 3.625 -0.296875 C 3.457031 -0.171875 3.253906 -0.0664062 3.015625 0.015625 C 2.785156 0.0976562 2.523438 0.140625 2.234375 0.140625 Z M 2.234375 0.140625 "/></g></g></g></svg>