<svg xmlns="http://www.w3.org/2000/svg" xmlns:xlink="http://www.w3.org/1999/xlink" width="200" zoomAndPan="magnify" viewBox="0 0 150 74.999997" height="100" preserveAspectRatio="xMidYMid meet" version="1.0"><defs><g><g id="id1"/></g><clipPath id="id2"><path d="M 7.5 11.390625 L 44 11.390625 L 44 36 L 7.5 36 Z M 7.5 11.390625 " clip-rule="nonzero"/></clipPath><clipPath id="id3"><path d="M 26.121094 11.390625 C 15.839844 11.390625 7.503906 19.71875 7.503906 29.992188 C 7.503906 31.484375 7.746094 33.074219 8.171875 34.722656 C 13.136719 35.386719 18.21875 35.1875 23.113281 34.105469 C 30.457031 32.484375 38.863281 28.667969 43.644531 23.695312 C 41.058594 16.519531 34.191406 11.390625 26.121094 11.390625 Z M 13.320312 23.386719 L 13.3125 23.308594 C 13.3125 21.609375 14.691406 20.234375 16.394531 20.234375 C 16.75 20.234375 17.09375 20.296875 17.410156 20.410156 C 17.742188 19.523438 18.589844 18.890625 19.589844 18.890625 C 20.714844 18.890625 21.65625 19.691406 21.871094 20.753906 C 21.925781 20.75 21.980469 20.746094 22.035156 20.746094 C 23.570312 20.746094 24.835938 21.898438 25.011719 23.390625 L 13.320312 23.390625 Z M 25.839844 27.757812 L 25.835938 27.71875 C 25.835938 26.867188 26.527344 26.179688 27.375 26.179688 C 27.554688 26.179688 27.726562 26.210938 27.882812 26.265625 C 28.046875 25.824219 28.472656 25.507812 28.972656 25.507812 C 29.539062 25.507812 30.007812 25.910156 30.113281 26.4375 C 30.140625 26.4375 30.167969 26.433594 30.199219 26.433594 C 30.964844 26.433594 31.597656 27.011719 31.6875 27.753906 L 25.839844 27.753906 Z M 25.839844 27.757812 " clip-rule="nonzero"/></clipPath><linearGradient x1="166.613482" gradientTransform="matrix(0.151106, 0, 0, 0.150992, 7.50443, 11.389747)" y1="198.55204" x2="44.780448" gradientUnits="userSpaceOnUse" y2="-24.463487" xlink:type="simple" xlink:actuate="onLoad" id="id4" xlink:show="other"><stop stop-opacity="1" stop-color="rgb(5.099487%, 43.499756%, 89.7995%)" offset="0"/><stop stop-opacity="1" stop-color="rgb(5.099487%, 43.499756%, 89.7995%)" offset="0.25"/><stop stop-opacity="1" stop-color="rgb(5.099487%, 43.499756%, 89.7995%)" offset="0.28125"/><stop stop-opacity="1" stop-color="rgb(5.099487%, 43.534851%, 89.807129%)" offset="0.289062"/><stop stop-opacity="1" stop-color="rgb(5.099487%, 43.746948%, 89.849854%)" offset="0.296875"/><stop stop-opacity="1" stop-color="rgb(5.099487%, 44.099426%, 89.920044%)" offset="0.304688"/><stop stop-opacity="1" stop-color="rgb(5.099487%, 44.451904%, 89.99176%)" offset="0.3125"/><stop stop-opacity="1" stop-color="rgb(5.099487%, 44.804382%, 90.063477%)" offset="0.320312"/><stop stop-opacity="1" stop-color="rgb(5.099487%, 45.15686%, 90.135193%)" offset="0.328125"/><stop stop-opacity="1" stop-color="rgb(5.099487%, 45.509338%, 90.206909%)" offset="0.335938"/><stop stop-opacity="1" stop-color="rgb(5.099487%, 45.861816%, 90.278625%)" offset="0.34375"/><stop stop-opacity="1" stop-color="rgb(5.099487%, 46.214294%, 90.350342%)" offset="0.351562"/><stop stop-opacity="1" stop-color="rgb(5.099487%, 46.566772%, 90.420532%)" offset="0.359375"/><stop stop-opacity="1" stop-color="rgb(5.099487%, 46.91925%, 90.492249%)" offset="0.367188"/><stop stop-opacity="1" stop-color="rgb(5.099487%, 47.270203%, 90.563965%)" offset="0.375"/><stop stop-opacity="1" stop-color="rgb(5.099487%, 47.622681%, 90.635681%)" offset="0.382813"/><stop stop-opacity="1" stop-color="rgb(5.099487%, 47.975159%, 90.707397%)" offset="0.390625"/><stop stop-opacity="1" stop-color="rgb(5.099487%, 48.327637%, 90.779114%)" offset="0.398438"/><stop stop-opacity="1" stop-color="rgb(5.099487%, 48.680115%, 90.85083%)" offset="0.40625"/><stop stop-opacity="1" stop-color="rgb(5.099487%, 49.032593%, 90.921021%)" offset="0.414063"/><stop stop-opacity="1" stop-color="rgb(5.099487%, 49.385071%, 90.992737%)" offset="0.421875"/><stop stop-opacity="1" stop-color="rgb(5.099487%, 49.737549%, 91.064453%)" offset="0.429688"/><stop stop-opacity="1" stop-color="rgb(5.099487%, 50.090027%, 91.136169%)" offset="0.4375"/><stop stop-opacity="1" stop-color="rgb(5.099487%, 50.442505%, 91.207886%)" offset="0.445313"/><stop stop-opacity="1" stop-color="rgb(5.099487%, 50.794983%, 91.279602%)" offset="0.451191"/><stop stop-opacity="1" stop-color="rgb(5.099487%, 50.970459%, 91.316223%)" offset="0.453125"/><stop stop-opacity="1" stop-color="rgb(5.099487%, 51.145935%, 91.351318%)" offset="0.460938"/><stop stop-opacity="1" stop-color="rgb(5.099487%, 51.498413%, 91.423035%)" offset="0.46875"/><stop stop-opacity="1" stop-color="rgb(5.099487%, 51.850891%, 91.493225%)" offset="0.476563"/><stop stop-opacity="1" stop-color="rgb(5.099487%, 52.203369%, 91.564941%)" offset="0.484375"/><stop stop-opacity="1" stop-color="rgb(5.099487%, 52.555847%, 91.636658%)" offset="0.492188"/><stop stop-opacity="1" stop-color="rgb(5.099487%, 52.908325%, 91.708374%)" offset="0.5"/><stop stop-opacity="1" stop-color="rgb(5.099487%, 53.260803%, 91.78009%)" offset="0.507812"/><stop stop-opacity="1" stop-color="rgb(5.099487%, 53.613281%, 91.851807%)" offset="0.515625"/><stop stop-opacity="1" stop-color="rgb(5.099487%, 53.965759%, 91.923523%)" offset="0.523438"/><stop stop-opacity="1" stop-color="rgb(5.099487%, 54.318237%, 91.993713%)" offset="0.53125"/><stop stop-opacity="1" stop-color="rgb(5.099487%, 54.669189%, 92.06543%)" offset="0.539062"/><stop stop-opacity="1" stop-color="rgb(5.099487%, 55.021667%, 92.137146%)" offset="0.546875"/><stop stop-opacity="1" stop-color="rgb(5.099487%, 55.374146%, 92.208862%)" offset="0.548809"/><stop stop-opacity="1" stop-color="rgb(5.099487%, 55.551147%, 92.245483%)" offset="0.554688"/><stop stop-opacity="1" stop-color="rgb(5.099487%, 55.726624%, 92.280579%)" offset="0.5625"/><stop stop-opacity="1" stop-color="rgb(5.099487%, 56.079102%, 92.352295%)" offset="0.570312"/><stop stop-opacity="1" stop-color="rgb(5.099487%, 56.43158%, 92.424011%)" offset="0.578125"/><stop stop-opacity="1" stop-color="rgb(5.099487%, 56.784058%, 92.494202%)" offset="0.585938"/><stop stop-opacity="1" stop-color="rgb(5.099487%, 57.136536%, 92.565918%)" offset="0.59375"/><stop stop-opacity="1" stop-color="rgb(5.099487%, 57.489014%, 92.637634%)" offset="0.601562"/><stop stop-opacity="1" stop-color="rgb(5.099487%, 57.841492%, 92.709351%)" offset="0.609375"/><stop stop-opacity="1" stop-color="rgb(5.099487%, 58.19397%, 92.781067%)" offset="0.617188"/><stop stop-opacity="1" stop-color="rgb(5.099487%, 58.544922%, 92.852783%)" offset="0.625"/><stop stop-opacity="1" stop-color="rgb(5.099487%, 58.8974%, 92.9245%)" offset="0.632812"/><stop stop-opacity="1" stop-color="rgb(5.099487%, 59.249878%, 92.99469%)" offset="0.640625"/><stop stop-opacity="1" stop-color="rgb(5.099487%, 59.602356%, 93.066406%)" offset="0.648438"/><stop stop-opacity="1" stop-color="rgb(5.099487%, 59.954834%, 93.138123%)" offset="0.65625"/><stop stop-opacity="1" stop-color="rgb(5.099487%, 60.307312%, 93.209839%)" offset="0.664062"/><stop stop-opacity="1" stop-color="rgb(5.099487%, 60.65979%, 93.281555%)" offset="0.671875"/><stop stop-opacity="1" stop-color="rgb(5.099487%, 61.012268%, 93.353271%)" offset="0.679688"/><stop stop-opacity="1" stop-color="rgb(5.099487%, 61.364746%, 93.424988%)" offset="0.6875"/><stop stop-opacity="1" stop-color="rgb(5.099487%, 61.717224%, 93.496704%)" offset="0.695312"/><stop stop-opacity="1" stop-color="rgb(5.099487%, 62.068176%, 93.566895%)" offset="0.703125"/><stop stop-opacity="1" stop-color="rgb(5.099487%, 62.420654%, 93.638611%)" offset="0.710938"/><stop stop-opacity="1" stop-color="rgb(5.099487%, 62.773132%, 93.710327%)" offset="0.71875"/><stop stop-opacity="1" stop-color="rgb(5.099487%, 63.12561%, 93.782043%)" offset="0.726562"/><stop stop-opacity="1" stop-color="rgb(5.099487%, 63.478088%, 93.85376%)" offset="0.734375"/><stop stop-opacity="1" stop-color="rgb(5.099487%, 63.830566%, 93.925476%)" offset="0.742188"/><stop stop-opacity="1" stop-color="rgb(5.099487%, 64.183044%, 93.997192%)" offset="0.75"/><stop stop-opacity="1" stop-color="rgb(5.099487%, 64.535522%, 94.067383%)" offset="0.757812"/><stop stop-opacity="1" stop-color="rgb(5.099487%, 64.888%, 94.139099%)" offset="0.765625"/><stop stop-opacity="1" stop-color="rgb(5.099487%, 65.240479%, 94.210815%)" offset="0.773438"/><stop stop-opacity="1" stop-color="rgb(5.099487%, 65.592957%, 94.282532%)" offset="0.78125"/><stop stop-opacity="1" stop-color="rgb(5.099487%, 65.943909%, 94.354248%)" offset="0.789062"/><stop stop-opacity="1" stop-color="rgb(5.099487%, 66.296387%, 94.425964%)" offset="0.796875"/><stop stop-opacity="1" stop-color="rgb(5.099487%, 66.648865%, 94.497681%)" offset="0.804688"/><stop stop-opacity="1" stop-color="rgb(5.099487%, 67.001343%, 94.567871%)" offset="0.8125"/><stop stop-opacity="1" stop-color="rgb(5.099487%, 67.353821%, 94.639587%)" offset="0.820312"/><stop stop-opacity="1" stop-color="rgb(5.099487%, 67.706299%, 94.711304%)" offset="0.828125"/><stop stop-opacity="1" stop-color="rgb(5.099487%, 68.058777%, 94.78302%)" offset="0.835938"/><stop stop-opacity="1" stop-color="rgb(5.099487%, 68.411255%, 94.854736%)" offset="0.84375"/><stop stop-opacity="1" stop-color="rgb(5.099487%, 68.763733%, 94.926453%)" offset="0.851562"/><stop stop-opacity="1" stop-color="rgb(5.099487%, 69.116211%, 94.998169%)" offset="0.859375"/><stop stop-opacity="1" stop-color="rgb(5.099487%, 69.468689%, 95.068359%)" offset="0.867188"/><stop stop-opacity="1" stop-color="rgb(5.099487%, 69.819641%, 95.140076%)" offset="0.875"/><stop stop-opacity="1" stop-color="rgb(5.099487%, 70.172119%, 95.211792%)" offset="0.882812"/><stop stop-opacity="1" stop-color="rgb(5.099487%, 70.474243%, 95.272827%)" offset="0.890625"/><stop stop-opacity="1" stop-color="rgb(5.099487%, 70.599365%, 95.298767%)" offset="0.90625"/><stop stop-opacity="1" stop-color="rgb(5.099487%, 70.599365%, 95.298767%)" offset="0.9375"/><stop stop-opacity="1" stop-color="rgb(5.099487%, 70.599365%, 95.298767%)" offset="1"/></linearGradient><clipPath id="id5"><path d="M 15 25 L 45 25 L 45 63.890625 L 15 63.890625 Z M 15 25 " clip-rule="nonzero"/></clipPath><clipPath id="id6"><path d="M 44.738281 29.992188 C 44.738281 42.933594 26.121094 63.890625 26.121094 63.890625 C 26.121094 63.890625 20.332031 57.425781 15.207031 49.4375 C 20.191406 47.519531 25.015625 45.253906 29.457031 42.308594 C 35.707031 38.15625 41.183594 32.484375 44.238281 25.710938 C 44.566406 27.089844 44.738281 28.519531 44.738281 29.992188 Z M 44.738281 29.992188 " clip-rule="nonzero"/></clipPath><linearGradient x1="207.253496" gradientTransform="matrix(0.151106, 0, 0, 0.150992, 7.50443, 11.389747)" y1="360.314061" x2="115.080018" gradientUnits="userSpaceOnUse" y2="74.190439" xlink:type="simple" xlink:actuate="onLoad" id="id7" xlink:show="other"><stop stop-opacity="1" stop-color="rgb(0%, 88.198853%, 57.998657%)" offset="0"/><stop stop-opacity="1" stop-color="rgb(0%, 88.198853%, 57.998657%)" offset="0.0625"/><stop stop-opacity="1" stop-color="rgb(0.012207%, 88.052368%, 58.123779%)" offset="0.078125"/><stop stop-opacity="1" stop-color="rgb(0.0366211%, 87.756348%, 58.375549%)" offset="0.0859375"/><stop stop-opacity="1" stop-color="rgb(0.0610352%, 87.458801%, 58.630371%)" offset="0.09375"/><stop stop-opacity="1" stop-color="rgb(0.0854492%, 87.159729%, 58.885193%)" offset="0.101562"/><stop stop-opacity="1" stop-color="rgb(0.111389%, 86.862183%, 59.140015%)" offset="0.109375"/><stop stop-opacity="1" stop-color="rgb(0.135803%, 86.564636%, 59.393311%)" offset="0.117187"/><stop stop-opacity="1" stop-color="rgb(0.160217%, 86.265564%, 59.648132%)" offset="0.125"/><stop stop-opacity="1" stop-color="rgb(0.186157%, 85.968018%, 59.902954%)" offset="0.132812"/><stop stop-opacity="1" stop-color="rgb(0.210571%, 85.668945%, 60.157776%)" offset="0.140625"/><stop stop-opacity="1" stop-color="rgb(0.234985%, 85.371399%, 60.412598%)" offset="0.148438"/><stop stop-opacity="1" stop-color="rgb(0.260925%, 85.073853%, 60.665894%)" offset="0.15625"/><stop stop-opacity="1" stop-color="rgb(0.285339%, 84.77478%, 60.920715%)" offset="0.164062"/><stop stop-opacity="1" stop-color="rgb(0.309753%, 84.477234%, 61.175537%)" offset="0.171875"/><stop stop-opacity="1" stop-color="rgb(0.335693%, 84.179688%, 61.430359%)" offset="0.179688"/><stop stop-opacity="1" stop-color="rgb(0.360107%, 83.880615%, 61.683655%)" offset="0.1875"/><stop stop-opacity="1" stop-color="rgb(0.384521%, 83.583069%, 61.938477%)" offset="0.195312"/><stop stop-opacity="1" stop-color="rgb(0.410461%, 83.283997%, 62.193298%)" offset="0.199346"/><stop stop-opacity="1" stop-color="rgb(0.422668%, 83.135986%, 62.321472%)" offset="0.203125"/><stop stop-opacity="1" stop-color="rgb(0.434875%, 82.98645%, 62.44812%)" offset="0.210938"/><stop stop-opacity="1" stop-color="rgb(0.460815%, 82.688904%, 62.702942%)" offset="0.21875"/><stop stop-opacity="1" stop-color="rgb(0.485229%, 82.389832%, 62.956238%)" offset="0.226562"/><stop stop-opacity="1" stop-color="rgb(0.509644%, 82.092285%, 63.21106%)" offset="0.234375"/><stop stop-opacity="1" stop-color="rgb(0.535583%, 81.793213%, 63.465881%)" offset="0.242188"/><stop stop-opacity="1" stop-color="rgb(0.559998%, 81.495667%, 63.720703%)" offset="0.25"/><stop stop-opacity="1" stop-color="rgb(0.584412%, 81.19812%, 63.973999%)" offset="0.257812"/><stop stop-opacity="1" stop-color="rgb(0.610352%, 80.899048%, 64.228821%)" offset="0.265625"/><stop stop-opacity="1" stop-color="rgb(0.634766%, 80.601501%, 64.483643%)" offset="0.273438"/><stop stop-opacity="1" stop-color="rgb(0.65918%, 80.302429%, 64.738464%)" offset="0.28125"/><stop stop-opacity="1" stop-color="rgb(0.68512%, 80.004883%, 64.993286%)" offset="0.289062"/><stop stop-opacity="1" stop-color="rgb(0.709534%, 79.707336%, 65.246582%)" offset="0.296875"/><stop stop-opacity="1" stop-color="rgb(0.733948%, 79.408264%, 65.501404%)" offset="0.304688"/><stop stop-opacity="1" stop-color="rgb(0.759888%, 79.110718%, 65.756226%)" offset="0.3125"/><stop stop-opacity="1" stop-color="rgb(0.784302%, 78.811646%, 66.011047%)" offset="0.320312"/><stop stop-opacity="1" stop-color="rgb(0.808716%, 78.514099%, 66.265869%)" offset="0.328125"/><stop stop-opacity="1" stop-color="rgb(0.834656%, 78.216553%, 66.519165%)" offset="0.335938"/><stop stop-opacity="1" stop-color="rgb(0.85907%, 77.91748%, 66.773987%)" offset="0.34375"/><stop stop-opacity="1" stop-color="rgb(0.88501%, 77.619934%, 67.028809%)" offset="0.351562"/><stop stop-opacity="1" stop-color="rgb(0.909424%, 77.320862%, 67.28363%)" offset="0.359375"/><stop stop-opacity="1" stop-color="rgb(0.933838%, 77.023315%, 67.536926%)" offset="0.367188"/><stop stop-opacity="1" stop-color="rgb(0.959778%, 76.725769%, 67.791748%)" offset="0.375"/><stop stop-opacity="1" stop-color="rgb(0.984192%, 76.426697%, 68.04657%)" offset="0.382812"/><stop stop-opacity="1" stop-color="rgb(1.008606%, 76.12915%, 68.301392%)" offset="0.390625"/><stop stop-opacity="1" stop-color="rgb(1.034546%, 75.830078%, 68.556213%)" offset="0.398438"/><stop stop-opacity="1" stop-color="rgb(1.05896%, 75.532532%, 68.809509%)" offset="0.40625"/><stop stop-opacity="1" stop-color="rgb(1.083374%, 75.234985%, 69.064331%)" offset="0.414063"/><stop stop-opacity="1" stop-color="rgb(1.109314%, 74.935913%, 69.319153%)" offset="0.421875"/><stop stop-opacity="1" stop-color="rgb(1.133728%, 74.638367%, 69.573975%)" offset="0.429687"/><stop stop-opacity="1" stop-color="rgb(1.158142%, 74.339294%, 69.827271%)" offset="0.4375"/><stop stop-opacity="1" stop-color="rgb(1.184082%, 74.041748%, 70.082092%)" offset="0.445312"/><stop stop-opacity="1" stop-color="rgb(1.208496%, 73.744202%, 70.336914%)" offset="0.453125"/><stop stop-opacity="1" stop-color="rgb(1.23291%, 73.445129%, 70.591736%)" offset="0.460937"/><stop stop-opacity="1" stop-color="rgb(1.25885%, 73.147583%, 70.846558%)" offset="0.46875"/><stop stop-opacity="1" stop-color="rgb(1.283264%, 72.848511%, 71.099854%)" offset="0.476562"/><stop stop-opacity="1" stop-color="rgb(1.307678%, 72.550964%, 71.354675%)" offset="0.484375"/><stop stop-opacity="1" stop-color="rgb(1.333618%, 72.253418%, 71.609497%)" offset="0.492188"/><stop stop-opacity="1" stop-color="rgb(1.358032%, 71.954346%, 71.864319%)" offset="0.5"/><stop stop-opacity="1" stop-color="rgb(1.383972%, 71.656799%, 72.117615%)" offset="0.507812"/><stop stop-opacity="1" stop-color="rgb(1.408386%, 71.357727%, 72.372437%)" offset="0.515625"/><stop stop-opacity="1" stop-color="rgb(1.4328%, 71.060181%, 72.627258%)" offset="0.523438"/><stop stop-opacity="1" stop-color="rgb(1.45874%, 70.762634%, 72.88208%)" offset="0.53125"/><stop stop-opacity="1" stop-color="rgb(1.483154%, 70.463562%, 73.136902%)" offset="0.539063"/><stop stop-opacity="1" stop-color="rgb(1.507568%, 70.166016%, 73.390198%)" offset="0.546875"/><stop stop-opacity="1" stop-color="rgb(1.533508%, 69.866943%, 73.64502%)" offset="0.554688"/><stop stop-opacity="1" stop-color="rgb(1.557922%, 69.569397%, 73.899841%)" offset="0.5625"/><stop stop-opacity="1" stop-color="rgb(1.582336%, 69.271851%, 74.154663%)" offset="0.570312"/><stop stop-opacity="1" stop-color="rgb(1.608276%, 68.972778%, 74.409485%)" offset="0.578125"/><stop stop-opacity="1" stop-color="rgb(1.63269%, 68.675232%, 74.662781%)" offset="0.585938"/><stop stop-opacity="1" stop-color="rgb(1.657104%, 68.37616%, 74.917603%)" offset="0.59375"/><stop stop-opacity="1" stop-color="rgb(1.683044%, 68.078613%, 75.172424%)" offset="0.601562"/><stop stop-opacity="1" stop-color="rgb(1.707458%, 67.781067%, 75.427246%)" offset="0.609375"/><stop stop-opacity="1" stop-color="rgb(1.731873%, 67.481995%, 75.680542%)" offset="0.617187"/><stop stop-opacity="1" stop-color="rgb(1.757812%, 67.184448%, 75.935364%)" offset="0.625"/><stop stop-opacity="1" stop-color="rgb(1.782227%, 66.885376%, 76.190186%)" offset="0.632812"/><stop stop-opacity="1" stop-color="rgb(1.808167%, 66.58783%, 76.445007%)" offset="0.640625"/><stop stop-opacity="1" stop-color="rgb(1.832581%, 66.290283%, 76.699829%)" offset="0.648437"/><stop stop-opacity="1" stop-color="rgb(1.856995%, 65.991211%, 76.953125%)" offset="0.65625"/><stop stop-opacity="1" stop-color="rgb(1.882935%, 65.693665%, 77.207947%)" offset="0.664062"/><stop stop-opacity="1" stop-color="rgb(1.907349%, 65.396118%, 77.462769%)" offset="0.671875"/><stop stop-opacity="1" stop-color="rgb(1.931763%, 65.097046%, 77.71759%)" offset="0.679688"/><stop stop-opacity="1" stop-color="rgb(1.957703%, 64.7995%, 77.970886%)" offset="0.6875"/><stop stop-opacity="1" stop-color="rgb(1.983643%, 64.474487%, 78.248596%)" offset="0.75"/><stop stop-opacity="1" stop-color="rgb(1.998901%, 64.299011%, 78.399658%)" offset="0.800654"/><stop stop-opacity="1" stop-color="rgb(1.998901%, 64.299011%, 78.399658%)" offset="1"/></linearGradient><clipPath id="id8"><path d="M 44 12 L 55.5 12 L 55.5 24 L 44 24 Z M 44 12 " clip-rule="nonzero"/></clipPath><clipPath id="id9"><path d="M 55.445312 12.542969 L 55.347656 13.664062 C 55.300781 13.933594 55.101562 14.316406 54.902344 14.511719 L 53.648438 15.734375 C 53.449219 15.929688 53.355469 16.304688 53.4375 16.570312 L 54.75 20.835938 C 54.832031 21.101562 54.828125 21.53125 54.738281 21.792969 L 54.722656 21.832031 C 54.632812 22.09375 54.4375 22.117188 54.285156 21.882812 L 51.800781 18.046875 C 51.648438 17.816406 51.355469 17.773438 51.144531 17.957031 L 48.675781 20.109375 C 48.46875 20.292969 48.339844 20.664062 48.394531 20.9375 L 48.617188 22.097656 C 48.671875 22.371094 48.65625 22.769531 48.582031 22.988281 C 48.511719 23.207031 48.324219 23.199219 48.171875 22.96875 L 47.351562 21.761719 C 47.195312 21.535156 46.949219 21.457031 46.796875 21.59375 C 46.648438 21.726562 46.441406 21.84375 46.335938 21.851562 C 46.234375 21.859375 46.152344 21.792969 46.15625 21.707031 C 46.160156 21.621094 46.242188 21.402344 46.347656 21.222656 C 46.449219 21.042969 46.328125 20.796875 46.078125 20.671875 L 46.007812 20.640625 C 46.011719 20.632812 46.011719 20.625 46.015625 20.621094 C 46.011719 20.625 46.007812 20.628906 46.003906 20.636719 L 45.074219 20.175781 C 44.824219 20.054688 44.683594 19.871094 44.765625 19.769531 C 44.84375 19.667969 45.132812 19.597656 45.414062 19.617188 L 47.070312 19.707031 C 47.347656 19.722656 47.695312 19.546875 47.847656 19.3125 L 49.542969 16.71875 C 49.695312 16.488281 49.621094 16.1875 49.378906 16.050781 L 45.582031 13.941406 C 45.335938 13.808594 45.296875 13.617188 45.488281 13.511719 C 45.679688 13.414062 46.054688 13.378906 46.324219 13.441406 L 51.019531 14.347656 C 51.289062 14.410156 51.660156 14.292969 51.84375 14.082031 L 53.082031 12.722656 C 53.269531 12.511719 53.640625 12.304688 53.914062 12.257812 L 55.03125 12.128906 C 55.308594 12.082031 55.492188 12.269531 55.445312 12.542969 Z M 55.445312 12.542969 " clip-rule="nonzero"/></clipPath><linearGradient x1="274.569621" gradientTransform="matrix(0.151106, 0, 0, 0.150992, 7.50443, 11.389747)" y1="-1.695575" x2="293.375809" gradientUnits="userSpaceOnUse" y2="83.604128" xlink:type="simple" xlink:actuate="onLoad" id="id10" xlink:show="other"><stop stop-opacity="1" stop-color="rgb(5.099487%, 44.961548%, 90.09552%)" offset="0"/><stop stop-opacity="1" stop-color="rgb(5.099487%, 45.153809%, 90.135193%)" offset="0.015625"/><stop stop-opacity="1" stop-color="rgb(5.099487%, 45.541382%, 90.213013%)" offset="0.03125"/><stop stop-opacity="1" stop-color="rgb(5.099487%, 45.927429%, 90.292358%)" offset="0.046875"/><stop stop-opacity="1" stop-color="rgb(5.099487%, 46.315002%, 90.370178%)" offset="0.0625"/><stop stop-opacity="1" stop-color="rgb(5.099487%, 46.70105%, 90.447998%)" offset="0.078125"/><stop stop-opacity="1" stop-color="rgb(5.099487%, 47.088623%, 90.527344%)" offset="0.09375"/><stop stop-opacity="1" stop-color="rgb(5.099487%, 47.47467%, 90.605164%)" offset="0.109375"/><stop stop-opacity="1" stop-color="rgb(5.099487%, 47.860718%, 90.684509%)" offset="0.125"/><stop stop-opacity="1" stop-color="rgb(5.099487%, 48.248291%, 90.762329%)" offset="0.140625"/><stop stop-opacity="1" stop-color="rgb(5.099487%, 48.634338%, 90.841675%)" offset="0.15625"/><stop stop-opacity="1" stop-color="rgb(5.099487%, 49.021912%, 90.919495%)" offset="0.171875"/><stop stop-opacity="1" stop-color="rgb(5.099487%, 49.407959%, 90.99884%)" offset="0.176262"/><stop stop-opacity="1" stop-color="rgb(5.099487%, 49.601746%, 91.038513%)" offset="0.1875"/><stop stop-opacity="1" stop-color="rgb(5.099487%, 49.795532%, 91.07666%)" offset="0.203125"/><stop stop-opacity="1" stop-color="rgb(5.099487%, 50.18158%, 91.15448%)" offset="0.21875"/><stop stop-opacity="1" stop-color="rgb(5.099487%, 50.569153%, 91.233826%)" offset="0.234375"/><stop stop-opacity="1" stop-color="rgb(5.099487%, 50.9552%, 91.311646%)" offset="0.25"/><stop stop-opacity="1" stop-color="rgb(5.099487%, 51.342773%, 91.390991%)" offset="0.265625"/><stop stop-opacity="1" stop-color="rgb(5.099487%, 51.728821%, 91.468811%)" offset="0.28125"/><stop stop-opacity="1" stop-color="rgb(5.099487%, 52.116394%, 91.548157%)" offset="0.296875"/><stop stop-opacity="1" stop-color="rgb(5.099487%, 52.502441%, 91.625977%)" offset="0.3125"/><stop stop-opacity="1" stop-color="rgb(5.099487%, 52.890015%, 91.705322%)" offset="0.328125"/><stop stop-opacity="1" stop-color="rgb(5.099487%, 53.276062%, 91.783142%)" offset="0.34375"/><stop stop-opacity="1" stop-color="rgb(5.099487%, 53.663635%, 91.860962%)" offset="0.359375"/><stop stop-opacity="1" stop-color="rgb(5.099487%, 54.049683%, 91.940308%)" offset="0.375"/><stop stop-opacity="1" stop-color="rgb(5.099487%, 54.437256%, 92.018127%)" offset="0.390625"/><stop stop-opacity="1" stop-color="rgb(5.099487%, 54.823303%, 92.097473%)" offset="0.40625"/><stop stop-opacity="1" stop-color="rgb(5.099487%, 55.210876%, 92.175293%)" offset="0.421875"/><stop stop-opacity="1" stop-color="rgb(5.099487%, 55.596924%, 92.254639%)" offset="0.4375"/><stop stop-opacity="1" stop-color="rgb(5.099487%, 55.982971%, 92.332458%)" offset="0.453125"/><stop stop-opacity="1" stop-color="rgb(5.099487%, 56.370544%, 92.411804%)" offset="0.46875"/><stop stop-opacity="1" stop-color="rgb(5.099487%, 56.756592%, 92.489624%)" offset="0.484375"/><stop stop-opacity="1" stop-color="rgb(5.099487%, 57.144165%, 92.567444%)" offset="0.5"/><stop stop-opacity="1" stop-color="rgb(5.099487%, 57.530212%, 92.64679%)" offset="0.515625"/><stop stop-opacity="1" stop-color="rgb(5.099487%, 57.917786%, 92.724609%)" offset="0.53125"/><stop stop-opacity="1" stop-color="rgb(5.099487%, 58.303833%, 92.803955%)" offset="0.546875"/><stop stop-opacity="1" stop-color="rgb(5.099487%, 58.691406%, 92.881775%)" offset="0.5625"/><stop stop-opacity="1" stop-color="rgb(5.099487%, 59.077454%, 92.961121%)" offset="0.578125"/><stop stop-opacity="1" stop-color="rgb(5.099487%, 59.465027%, 93.03894%)" offset="0.59375"/><stop stop-opacity="1" stop-color="rgb(5.099487%, 59.851074%, 93.118286%)" offset="0.609375"/><stop stop-opacity="1" stop-color="rgb(5.099487%, 60.238647%, 93.196106%)" offset="0.625"/><stop stop-opacity="1" stop-color="rgb(5.099487%, 60.624695%, 93.273926%)" offset="0.640625"/><stop stop-opacity="1" stop-color="rgb(5.099487%, 61.012268%, 93.353271%)" offset="0.65625"/><stop stop-opacity="1" stop-color="rgb(5.099487%, 61.398315%, 93.431091%)" offset="0.671875"/><stop stop-opacity="1" stop-color="rgb(5.099487%, 61.785889%, 93.510437%)" offset="0.6875"/><stop stop-opacity="1" stop-color="rgb(5.099487%, 62.171936%, 93.588257%)" offset="0.703125"/><stop stop-opacity="1" stop-color="rgb(5.099487%, 62.559509%, 93.667603%)" offset="0.71875"/><stop stop-opacity="1" stop-color="rgb(5.099487%, 62.945557%, 93.745422%)" offset="0.734375"/><stop stop-opacity="1" stop-color="rgb(5.099487%, 63.331604%, 93.824768%)" offset="0.75"/><stop stop-opacity="1" stop-color="rgb(5.099487%, 63.719177%, 93.902588%)" offset="0.765625"/><stop stop-opacity="1" stop-color="rgb(5.099487%, 64.105225%, 93.980408%)" offset="0.78125"/><stop stop-opacity="1" stop-color="rgb(5.099487%, 64.492798%, 94.059753%)" offset="0.796875"/><stop stop-opacity="1" stop-color="rgb(5.099487%, 64.878845%, 94.137573%)" offset="0.8125"/><stop stop-opacity="1" stop-color="rgb(5.099487%, 65.266418%, 94.216919%)" offset="0.823738"/><stop stop-opacity="1" stop-color="rgb(5.099487%, 65.460205%, 94.256592%)" offset="0.828125"/><stop stop-opacity="1" stop-color="rgb(5.099487%, 65.652466%, 94.294739%)" offset="0.84375"/><stop stop-opacity="1" stop-color="rgb(5.099487%, 66.040039%, 94.374084%)" offset="0.859375"/><stop stop-opacity="1" stop-color="rgb(5.099487%, 66.426086%, 94.451904%)" offset="0.875"/><stop stop-opacity="1" stop-color="rgb(5.099487%, 66.81366%, 94.53125%)" offset="0.890625"/><stop stop-opacity="1" stop-color="rgb(5.099487%, 67.199707%, 94.60907%)" offset="0.90625"/><stop stop-opacity="1" stop-color="rgb(5.099487%, 67.58728%, 94.68689%)" offset="0.921875"/><stop stop-opacity="1" stop-color="rgb(5.099487%, 67.973328%, 94.766235%)" offset="0.9375"/><stop stop-opacity="1" stop-color="rgb(5.099487%, 68.360901%, 94.844055%)" offset="0.953125"/><stop stop-opacity="1" stop-color="rgb(5.099487%, 68.746948%, 94.923401%)" offset="0.96875"/><stop stop-opacity="1" stop-color="rgb(5.099487%, 69.134521%, 95.001221%)" offset="0.984375"/><stop stop-opacity="1" stop-color="rgb(5.099487%, 69.520569%, 95.080566%)" offset="1"/></linearGradient><clipPath id="id11"><path d="M 46 20 L 47 20 L 47 21 L 46 21 Z M 46 20 " clip-rule="nonzero"/></clipPath><clipPath id="id12"><path d="M 46 20.636719 L 46.007812 20.636719 C 46.007812 20.632812 46.007812 20.625 46.011719 20.617188 C 46.007812 20.625 46.003906 20.628906 46 20.636719 Z M 46 20.636719 " clip-rule="nonzero"/></clipPath><linearGradient x1="-1899.397186" gradientTransform="matrix(-0.0376525, 0.14623, -0.146339, -0.0376243, -309.900195, 225.253919)" y1="-1943.262236" x2="-1899.467637" gradientUnits="userSpaceOnUse" y2="-1943.391196" xlink:type="simple" xlink:actuate="onLoad" id="id13" xlink:show="other"><stop stop-opacity="1" stop-color="rgb(5.099487%, 58.894348%, 92.9245%)" offset="0"/><stop stop-opacity="1" stop-color="rgb(5.099487%, 58.8974%, 92.9245%)" offset="0.459526"/><stop stop-opacity="1" stop-color="rgb(5.099487%, 58.901978%, 92.9245%)" offset="0.5"/><stop stop-opacity="1" stop-color="rgb(5.099487%, 58.905029%, 92.9245%)" offset="0.540474"/><stop stop-opacity="1" stop-color="rgb(5.099487%, 58.909607%, 92.926025%)" offset="1"/></linearGradient></defs><g clip-path="url(#id2)"><g clip-path="url(#id3)"><path fill="url(#id4)" d="M 7.503906 11.390625 L 7.503906 35.386719 L 43.644531 35.386719 L 43.644531 11.390625 Z M 7.503906 11.390625 " fill-rule="nonzero"/></g></g><g clip-path="url(#id5)"><g clip-path="url(#id6)"><path fill="url(#id7)" d="M 15.207031 25.710938 L 15.207031 63.890625 L 44.738281 63.890625 L 44.738281 25.710938 Z M 15.207031 25.710938 " fill-rule="nonzero"/></g></g><g clip-path="url(#id8)"><g clip-path="url(#id9)"><path fill="url(#id10)" d="M 44.683594 12.082031 L 44.683594 23.207031 L 55.492188 23.207031 L 55.492188 12.082031 Z M 44.683594 12.082031 " fill-rule="nonzero"/></g></g><g clip-path="url(#id11)"><g clip-path="url(#id12)"><path fill="url(#id13)" d="M 46.015625 20.621094 L 46.003906 20.617188 L 45.996094 20.636719 L 46.011719 20.640625 Z M 46.015625 20.621094 " fill-rule="nonzero"/></g></g><g fill="rgb(5.099487%, 53.329468%, 91.758728%)" fill-opacity="1"><g transform="translate(58.72319, 32.981289)"><g><path d="M 0.15625 -14.359375 L 7.3125 -14.359375 L 7.3125 -13.140625 L 4.65625 -13.140625 C 4.59375 -12.117188 4.554688 -11.09375 4.546875 -10.0625 C 4.535156 -9.039062 4.53125 -8.082031 4.53125 -7.1875 C 4.53125 -6.65625 4.53125 -6.09375 4.53125 -5.5 C 4.539062 -4.90625 4.550781 -4.300781 4.5625 -3.6875 C 4.582031 -3.070312 4.601562 -2.453125 4.625 -1.828125 C 4.644531 -1.203125 4.671875 -0.59375 4.703125 0 L 2.75 0 C 2.789062 -0.59375 2.820312 -1.203125 2.84375 -1.828125 C 2.875 -2.453125 2.894531 -3.070312 2.90625 -3.6875 C 2.914062 -4.300781 2.925781 -4.90625 2.9375 -5.5 C 2.945312 -6.09375 2.953125 -6.65625 2.953125 -7.1875 C 2.953125 -8.082031 2.941406 -9.039062 2.921875 -10.0625 C 2.898438 -11.09375 2.867188 -12.117188 2.828125 -13.140625 L 0.15625 -13.140625 Z M 0.15625 -14.359375 "/></g></g></g><g fill="rgb(5.099487%, 53.329468%, 91.758728%)" fill-opacity="1"><g transform="translate(66.622255, 32.981289)"><g><path d="M 4.453125 -14.359375 C 5.628906 -14.359375 6.539062 -14.015625 7.1875 -13.328125 C 7.832031 -12.640625 8.15625 -11.59375 8.15625 -10.1875 C 8.15625 -9.28125 8 -8.53125 7.6875 -7.9375 C 7.375 -7.351562 6.910156 -6.90625 6.296875 -6.59375 C 6.441406 -6 6.628906 -5.347656 6.859375 -4.640625 C 7.066406 -4.035156 7.320312 -3.332031 7.625 -2.53125 C 7.925781 -1.738281 8.296875 -0.894531 8.734375 0 L 6.53125 0 C 6.21875 -1.039062 5.957031 -1.945312 5.75 -2.71875 C 5.550781 -3.488281 5.390625 -4.132812 5.265625 -4.65625 C 5.128906 -5.257812 5.019531 -5.773438 4.9375 -6.203125 L 2.828125 -6.203125 C 2.828125 -5.722656 2.832031 -5.222656 2.84375 -4.703125 C 2.851562 -4.179688 2.863281 -3.65625 2.875 -3.125 C 2.882812 -2.601562 2.898438 -2.078125 2.921875 -1.546875 C 2.941406 -1.015625 2.96875 -0.5 3 0 L 1.046875 0 C 1.085938 -0.59375 1.117188 -1.203125 1.140625 -1.828125 C 1.171875 -2.453125 1.191406 -3.070312 1.203125 -3.6875 C 1.210938 -4.300781 1.222656 -4.90625 1.234375 -5.5 C 1.242188 -6.09375 1.25 -6.65625 1.25 -7.1875 C 1.25 -7.726562 1.242188 -8.289062 1.234375 -8.875 C 1.222656 -9.46875 1.210938 -10.070312 1.203125 -10.6875 C 1.191406 -11.300781 1.171875 -11.914062 1.140625 -12.53125 C 1.117188 -13.15625 1.085938 -13.765625 1.046875 -14.359375 Z M 2.953125 -13.1875 C 2.898438 -12.195312 2.863281 -11.203125 2.84375 -10.203125 C 2.832031 -9.203125 2.828125 -8.257812 2.828125 -7.375 L 4.34375 -7.375 C 4.65625 -7.375 4.929688 -7.421875 5.171875 -7.515625 C 5.421875 -7.609375 5.628906 -7.765625 5.796875 -7.984375 C 5.972656 -8.210938 6.101562 -8.503906 6.1875 -8.859375 C 6.28125 -9.222656 6.328125 -9.664062 6.328125 -10.1875 C 6.328125 -11.25 6.160156 -12.015625 5.828125 -12.484375 C 5.503906 -12.953125 5.007812 -13.1875 4.34375 -13.1875 Z M 2.953125 -13.1875 "/></g></g></g><g fill="rgb(5.099487%, 53.329468%, 91.758728%)" fill-opacity="1"><g transform="translate(75.890134, 32.981289)"><g><path d="M 6.671875 0 C 6.578125 -0.664062 6.476562 -1.328125 6.375 -1.984375 C 6.269531 -2.640625 6.164062 -3.296875 6.0625 -3.953125 L 2.671875 -3.953125 C 2.554688 -3.296875 2.445312 -2.640625 2.34375 -1.984375 C 2.238281 -1.328125 2.140625 -0.664062 2.046875 0 L 0.0625 0 C 0.28125 -0.84375 0.5 -1.710938 0.71875 -2.609375 C 0.9375 -3.503906 1.140625 -4.394531 1.328125 -5.28125 C 1.523438 -6.164062 1.710938 -7.039062 1.890625 -7.90625 C 2.066406 -8.769531 2.226562 -9.59375 2.375 -10.375 C 2.53125 -11.15625 2.671875 -11.882812 2.796875 -12.5625 C 2.921875 -13.238281 3.03125 -13.835938 3.125 -14.359375 L 5.609375 -14.359375 C 5.691406 -13.835938 5.796875 -13.238281 5.921875 -12.5625 C 6.046875 -11.882812 6.179688 -11.15625 6.328125 -10.375 C 6.484375 -9.59375 6.648438 -8.769531 6.828125 -7.90625 C 7.003906 -7.039062 7.191406 -6.164062 7.390625 -5.28125 C 7.585938 -4.394531 7.789062 -3.503906 8 -2.609375 C 8.21875 -1.710938 8.441406 -0.84375 8.671875 0 Z M 4.28125 -12.25 C 4 -11.0625 3.742188 -9.882812 3.515625 -8.71875 C 3.285156 -7.550781 3.066406 -6.367188 2.859375 -5.171875 L 5.859375 -5.171875 C 5.648438 -6.367188 5.425781 -7.550781 5.1875 -8.71875 C 4.957031 -9.882812 4.707031 -11.0625 4.4375 -12.25 Z M 4.28125 -12.25 "/></g></g></g><g fill="rgb(5.099487%, 53.329468%, 91.758728%)" fill-opacity="1"><g transform="translate(85.043077, 32.981289)"><g><path d="M 4.4375 -2.109375 C 4.914062 -4.140625 5.328125 -6.164062 5.671875 -8.1875 C 6.023438 -10.207031 6.359375 -12.265625 6.671875 -14.359375 L 8.671875 -14.359375 C 8.441406 -13.515625 8.21875 -12.644531 8 -11.75 C 7.789062 -10.851562 7.585938 -9.960938 7.390625 -9.078125 C 7.191406 -8.191406 7.003906 -7.316406 6.828125 -6.453125 C 6.648438 -5.585938 6.484375 -4.765625 6.328125 -3.984375 C 6.179688 -3.203125 6.046875 -2.472656 5.921875 -1.796875 C 5.796875 -1.117188 5.691406 -0.519531 5.609375 0 L 3.125 0 C 3.03125 -0.519531 2.921875 -1.117188 2.796875 -1.796875 C 2.671875 -2.472656 2.53125 -3.203125 2.375 -3.984375 C 2.226562 -4.765625 2.066406 -5.585938 1.890625 -6.453125 C 1.710938 -7.316406 1.523438 -8.191406 1.328125 -9.078125 C 1.140625 -9.960938 0.9375 -10.851562 0.71875 -11.75 C 0.5 -12.644531 0.28125 -13.515625 0.0625 -14.359375 L 2.046875 -14.359375 C 2.359375 -12.265625 2.6875 -10.207031 3.03125 -8.1875 C 3.382812 -6.164062 3.800781 -4.140625 4.28125 -2.109375 Z M 4.4375 -2.109375 "/></g></g></g><g fill="rgb(5.099487%, 53.329468%, 91.758728%)" fill-opacity="1"><g transform="translate(94.19602, 32.981289)"><g><path d="M 7.109375 -14.359375 L 7.109375 -13.140625 L 2.953125 -13.140625 C 2.910156 -12.335938 2.878906 -11.535156 2.859375 -10.734375 C 2.835938 -9.941406 2.828125 -9.171875 2.828125 -8.421875 L 6.796875 -8.421875 L 6.796875 -7.1875 L 2.828125 -7.1875 C 2.828125 -6.289062 2.832031 -5.328125 2.84375 -4.296875 C 2.851562 -3.273438 2.882812 -2.25 2.9375 -1.21875 L 7.171875 -1.21875 L 7.171875 0 L 1.046875 0 C 1.085938 -0.59375 1.117188 -1.203125 1.140625 -1.828125 C 1.171875 -2.453125 1.191406 -3.070312 1.203125 -3.6875 C 1.210938 -4.300781 1.222656 -4.90625 1.234375 -5.5 C 1.242188 -6.09375 1.25 -6.65625 1.25 -7.1875 C 1.25 -7.726562 1.242188 -8.289062 1.234375 -8.875 C 1.222656 -9.46875 1.210938 -10.070312 1.203125 -10.6875 C 1.191406 -11.300781 1.171875 -11.914062 1.140625 -12.53125 C 1.117188 -13.15625 1.085938 -13.765625 1.046875 -14.359375 Z M 7.109375 -14.359375 "/></g></g></g><g fill="rgb(5.099487%, 53.329468%, 91.758728%)" fill-opacity="1"><g transform="translate(102.607081, 32.981289)"><g><path d="M 3.015625 -14.359375 C 2.972656 -13.765625 2.941406 -13.15625 2.921875 -12.53125 C 2.898438 -11.914062 2.878906 -11.300781 2.859375 -10.6875 C 2.847656 -10.070312 2.835938 -9.46875 2.828125 -8.875 C 2.828125 -8.289062 2.828125 -7.726562 2.828125 -7.1875 C 2.828125 -6.289062 2.832031 -5.328125 2.84375 -4.296875 C 2.851562 -3.273438 2.882812 -2.25 2.9375 -1.21875 L 7.171875 -1.21875 L 7.171875 0 L 1.046875 0 C 1.085938 -0.59375 1.117188 -1.203125 1.140625 -1.828125 C 1.171875 -2.453125 1.191406 -3.070312 1.203125 -3.6875 C 1.210938 -4.300781 1.222656 -4.90625 1.234375 -5.5 C 1.242188 -6.09375 1.25 -6.65625 1.25 -7.1875 C 1.25 -7.726562 1.242188 -8.289062 1.234375 -8.875 C 1.222656 -9.46875 1.210938 -10.070312 1.203125 -10.6875 C 1.191406 -11.300781 1.171875 -11.914062 1.140625 -12.53125 C 1.117188 -13.15625 1.085938 -13.765625 1.046875 -14.359375 Z M 3.015625 -14.359375 "/></g></g></g><g fill="rgb(5.099487%, 53.329468%, 91.758728%)" fill-opacity="1"><g transform="translate(110.30654, 32.981289)"><g/></g></g><g fill="rgb(0.389099%, 81.17981%, 64.309692%)" fill-opacity="1"><g transform="translate(42.984307, 57.028979)"><g><path d="M 2.53125 -7.171875 C 2.53125 -6.171875 2.609375 -5.285156 2.765625 -4.515625 C 2.929688 -3.742188 3.160156 -3.09375 3.453125 -2.5625 C 3.753906 -2.039062 4.109375 -1.644531 4.515625 -1.375 C 4.929688 -1.113281 5.394531 -0.984375 5.90625 -0.984375 C 6.207031 -0.984375 6.476562 -1.019531 6.71875 -1.09375 C 6.957031 -1.175781 7.171875 -1.273438 7.359375 -1.390625 C 7.554688 -1.503906 7.738281 -1.628906 7.90625 -1.765625 C 8.070312 -1.910156 8.234375 -2.050781 8.390625 -2.1875 L 8.390625 -0.078125 C 8.003906 0.015625 7.613281 0.0859375 7.21875 0.140625 C 6.820312 0.203125 6.382812 0.234375 5.90625 0.234375 C 5.15625 0.234375 4.460938 0.0859375 3.828125 -0.203125 C 3.203125 -0.503906 2.65625 -0.957031 2.1875 -1.5625 C 1.726562 -2.175781 1.363281 -2.945312 1.09375 -3.875 C 0.832031 -4.8125 0.703125 -5.910156 0.703125 -7.171875 C 0.703125 -8.429688 0.835938 -9.523438 1.109375 -10.453125 C 1.390625 -11.390625 1.765625 -12.160156 2.234375 -12.765625 C 2.710938 -13.378906 3.265625 -13.832031 3.890625 -14.125 C 4.523438 -14.425781 5.195312 -14.578125 5.90625 -14.578125 C 6.382812 -14.578125 6.820312 -14.546875 7.21875 -14.484375 C 7.613281 -14.429688 8.003906 -14.351562 8.390625 -14.25 L 8.390625 -12.15625 C 8.234375 -12.289062 8.070312 -12.425781 7.90625 -12.5625 C 7.738281 -12.707031 7.554688 -12.835938 7.359375 -12.953125 C 7.171875 -13.066406 6.957031 -13.160156 6.71875 -13.234375 C 6.476562 -13.316406 6.207031 -13.359375 5.90625 -13.359375 C 5.394531 -13.359375 4.929688 -13.222656 4.515625 -12.953125 C 4.109375 -12.679688 3.753906 -12.285156 3.453125 -11.765625 C 3.160156 -11.242188 2.929688 -10.597656 2.765625 -9.828125 C 2.609375 -9.054688 2.53125 -8.171875 2.53125 -7.171875 Z M 2.53125 -7.171875 "/></g></g></g><g fill="rgb(0.389099%, 81.17981%, 64.309692%)" fill-opacity="1"><g transform="translate(52.31488, 57.028979)"><g><path d="M 9.765625 -7.171875 C 9.765625 -5.878906 9.648438 -4.765625 9.421875 -3.828125 C 9.191406 -2.890625 8.867188 -2.113281 8.453125 -1.5 C 8.046875 -0.894531 7.566406 -0.445312 7.015625 -0.15625 C 6.472656 0.132812 5.882812 0.28125 5.25 0.28125 C 4.601562 0.28125 4.003906 0.132812 3.453125 -0.15625 C 2.910156 -0.445312 2.429688 -0.894531 2.015625 -1.5 C 1.609375 -2.113281 1.285156 -2.890625 1.046875 -3.828125 C 0.816406 -4.765625 0.703125 -5.878906 0.703125 -7.171875 C 0.703125 -8.453125 0.816406 -9.5625 1.046875 -10.5 C 1.285156 -11.4375 1.609375 -12.210938 2.015625 -12.828125 C 2.429688 -13.441406 2.910156 -13.894531 3.453125 -14.1875 C 4.003906 -14.476562 4.601562 -14.625 5.25 -14.625 C 5.882812 -14.625 6.472656 -14.476562 7.015625 -14.1875 C 7.566406 -13.894531 8.046875 -13.441406 8.453125 -12.828125 C 8.867188 -12.210938 9.191406 -11.4375 9.421875 -10.5 C 9.648438 -9.5625 9.765625 -8.453125 9.765625 -7.171875 Z M 7.96875 -7.171875 C 7.96875 -8.242188 7.894531 -9.171875 7.75 -9.953125 C 7.613281 -10.734375 7.421875 -11.375 7.171875 -11.875 C 6.929688 -12.382812 6.644531 -12.757812 6.3125 -13 C 5.988281 -13.238281 5.632812 -13.359375 5.25 -13.359375 C 4.851562 -13.359375 4.488281 -13.238281 4.15625 -13 C 3.832031 -12.757812 3.546875 -12.382812 3.296875 -11.875 C 3.046875 -11.375 2.851562 -10.734375 2.71875 -9.953125 C 2.582031 -9.171875 2.515625 -8.242188 2.515625 -7.171875 C 2.515625 -6.085938 2.582031 -5.15625 2.71875 -4.375 C 2.851562 -3.59375 3.046875 -2.953125 3.296875 -2.453125 C 3.546875 -1.953125 3.832031 -1.582031 4.15625 -1.34375 C 4.488281 -1.101562 4.851562 -0.984375 5.25 -0.984375 C 5.632812 -0.984375 5.988281 -1.101562 6.3125 -1.34375 C 6.644531 -1.582031 6.929688 -1.953125 7.171875 -2.453125 C 7.421875 -2.953125 7.613281 -3.59375 7.75 -4.375 C 7.894531 -5.15625 7.96875 -6.085938 7.96875 -7.171875 Z M 7.96875 -7.171875 "/></g></g></g><g fill="rgb(0.389099%, 81.17981%, 64.309692%)" fill-opacity="1"><g transform="translate(63.212801, 57.028979)"><g><path d="M 5.484375 0 C 5.304688 -0.863281 5.125 -1.769531 4.9375 -2.71875 C 4.757812 -3.664062 4.5625 -4.625 4.34375 -5.59375 C 4.132812 -6.570312 3.910156 -7.550781 3.671875 -8.53125 C 3.429688 -9.507812 3.175781 -10.457031 2.90625 -11.375 L 2.796875 -11.375 C 2.785156 -11.070312 2.773438 -10.734375 2.765625 -10.359375 C 2.765625 -9.984375 2.765625 -9.601562 2.765625 -9.21875 C 2.765625 -8.84375 2.765625 -8.476562 2.765625 -8.125 C 2.773438 -7.769531 2.78125 -7.457031 2.78125 -7.1875 C 2.78125 -6.65625 2.78125 -6.09375 2.78125 -5.5 C 2.789062 -4.90625 2.800781 -4.300781 2.8125 -3.6875 C 2.832031 -3.070312 2.851562 -2.453125 2.875 -1.828125 C 2.894531 -1.203125 2.921875 -0.59375 2.953125 0 L 1.046875 0 C 1.085938 -0.59375 1.117188 -1.203125 1.140625 -1.828125 C 1.171875 -2.453125 1.191406 -3.070312 1.203125 -3.6875 C 1.210938 -4.300781 1.222656 -4.90625 1.234375 -5.5 C 1.242188 -6.09375 1.25 -6.65625 1.25 -7.1875 C 1.25 -7.726562 1.242188 -8.289062 1.234375 -8.875 C 1.222656 -9.46875 1.210938 -10.070312 1.203125 -10.6875 C 1.191406 -11.300781 1.171875 -11.914062 1.140625 -12.53125 C 1.117188 -13.15625 1.085938 -13.765625 1.046875 -14.359375 L 3.515625 -14.359375 C 3.929688 -12.367188 4.347656 -10.46875 4.765625 -8.65625 C 5.191406 -6.84375 5.648438 -5.125 6.140625 -3.5 L 6.28125 -3.5 C 6.78125 -5.125 7.238281 -6.84375 7.65625 -8.65625 C 8.070312 -10.46875 8.488281 -12.367188 8.90625 -14.359375 L 11.375 -14.359375 C 11.332031 -13.765625 11.300781 -13.15625 11.28125 -12.53125 C 11.257812 -11.914062 11.238281 -11.300781 11.21875 -10.6875 C 11.207031 -10.070312 11.195312 -9.46875 11.1875 -8.875 C 11.1875 -8.289062 11.1875 -7.726562 11.1875 -7.1875 C 11.1875 -6.65625 11.1875 -6.09375 11.1875 -5.5 C 11.195312 -4.90625 11.207031 -4.300781 11.21875 -3.6875 C 11.238281 -3.070312 11.257812 -2.453125 11.28125 -1.828125 C 11.300781 -1.203125 11.332031 -0.59375 11.375 0 L 9.46875 0 C 9.5 -0.59375 9.523438 -1.203125 9.546875 -1.828125 C 9.566406 -2.453125 9.582031 -3.070312 9.59375 -3.6875 C 9.613281 -4.300781 9.625 -4.90625 9.625 -5.5 C 9.632812 -6.09375 9.640625 -6.65625 9.640625 -7.1875 C 9.640625 -7.457031 9.640625 -7.769531 9.640625 -8.125 C 9.640625 -8.476562 9.640625 -8.84375 9.640625 -9.21875 C 9.640625 -9.601562 9.640625 -9.984375 9.640625 -10.359375 C 9.640625 -10.734375 9.632812 -11.070312 9.625 -11.375 L 9.515625 -11.375 C 9.242188 -10.457031 8.988281 -9.507812 8.75 -8.53125 C 8.507812 -7.550781 8.28125 -6.570312 8.0625 -5.59375 C 7.851562 -4.625 7.65625 -3.664062 7.46875 -2.71875 C 7.289062 -1.769531 7.117188 -0.863281 6.953125 0 Z M 5.484375 0 "/></g></g></g><g fill="rgb(0.389099%, 81.17981%, 64.309692%)" fill-opacity="1"><g transform="translate(76.064687, 57.028979)"><g><path d="M 4.53125 -14.359375 C 5.125 -14.359375 5.648438 -14.257812 6.109375 -14.0625 C 6.566406 -13.863281 6.953125 -13.570312 7.265625 -13.1875 C 7.585938 -12.800781 7.828125 -12.332031 7.984375 -11.78125 C 8.148438 -11.238281 8.234375 -10.617188 8.234375 -9.921875 C 8.234375 -9.617188 8.203125 -9.296875 8.140625 -8.953125 C 8.085938 -8.617188 8 -8.285156 7.875 -7.953125 C 7.75 -7.628906 7.585938 -7.316406 7.390625 -7.015625 C 7.203125 -6.710938 6.96875 -6.445312 6.6875 -6.21875 C 6.40625 -5.988281 6.078125 -5.804688 5.703125 -5.671875 C 5.328125 -5.535156 4.90625 -5.46875 4.4375 -5.46875 L 2.828125 -5.46875 C 2.835938 -4.570312 2.851562 -3.660156 2.875 -2.734375 C 2.90625 -1.804688 2.945312 -0.894531 3 0 L 1.046875 0 C 1.085938 -0.59375 1.117188 -1.203125 1.140625 -1.828125 C 1.171875 -2.453125 1.191406 -3.070312 1.203125 -3.6875 C 1.210938 -4.300781 1.222656 -4.90625 1.234375 -5.5 C 1.242188 -6.09375 1.25 -6.65625 1.25 -7.1875 C 1.25 -7.726562 1.242188 -8.289062 1.234375 -8.875 C 1.222656 -9.46875 1.210938 -10.070312 1.203125 -10.6875 C 1.191406 -11.300781 1.171875 -11.914062 1.140625 -12.53125 C 1.117188 -13.15625 1.085938 -13.765625 1.046875 -14.359375 Z M 2.953125 -13.1875 C 2.898438 -12.15625 2.863281 -11.125 2.84375 -10.09375 C 2.832031 -9.0625 2.828125 -8.09375 2.828125 -7.1875 L 2.828125 -6.625 L 4.4375 -6.625 C 5.0625 -6.625 5.546875 -6.910156 5.890625 -7.484375 C 6.242188 -8.054688 6.421875 -8.867188 6.421875 -9.921875 C 6.421875 -10.984375 6.253906 -11.789062 5.921875 -12.34375 C 5.597656 -12.90625 5.101562 -13.1875 4.4375 -13.1875 Z M 2.953125 -13.1875 "/></g></g></g><g fill="rgb(0.389099%, 81.17981%, 64.309692%)" fill-opacity="1"><g transform="translate(85.248974, 57.028979)"><g><path d="M 6.671875 0 C 6.578125 -0.664062 6.476562 -1.328125 6.375 -1.984375 C 6.269531 -2.640625 6.164062 -3.296875 6.0625 -3.953125 L 2.671875 -3.953125 C 2.554688 -3.296875 2.445312 -2.640625 2.34375 -1.984375 C 2.238281 -1.328125 2.140625 -0.664062 2.046875 0 L 0.0625 0 C 0.28125 -0.84375 0.5 -1.710938 0.71875 -2.609375 C 0.9375 -3.503906 1.140625 -4.394531 1.328125 -5.28125 C 1.523438 -6.164062 1.710938 -7.039062 1.890625 -7.90625 C 2.066406 -8.769531 2.226562 -9.59375 2.375 -10.375 C 2.53125 -11.15625 2.671875 -11.882812 2.796875 -12.5625 C 2.921875 -13.238281 3.03125 -13.835938 3.125 -14.359375 L 5.609375 -14.359375 C 5.691406 -13.835938 5.796875 -13.238281 5.921875 -12.5625 C 6.046875 -11.882812 6.179688 -11.15625 6.328125 -10.375 C 6.484375 -9.59375 6.648438 -8.769531 6.828125 -7.90625 C 7.003906 -7.039062 7.191406 -6.164062 7.390625 -5.28125 C 7.585938 -4.394531 7.789062 -3.503906 8 -2.609375 C 8.21875 -1.710938 8.441406 -0.84375 8.671875 0 Z M 4.28125 -12.25 C 4 -11.0625 3.742188 -9.882812 3.515625 -8.71875 C 3.285156 -7.550781 3.066406 -6.367188 2.859375 -5.171875 L 5.859375 -5.171875 C 5.648438 -6.367188 5.425781 -7.550781 5.1875 -8.71875 C 4.957031 -9.882812 4.707031 -11.0625 4.4375 -12.25 Z M 4.28125 -12.25 "/></g></g></g><g fill="rgb(0.389099%, 81.17981%, 64.309692%)" fill-opacity="1"><g transform="translate(94.401917, 57.028979)"><g><path d="M 8.890625 -14.359375 C 8.847656 -13.765625 8.816406 -13.15625 8.796875 -12.53125 C 8.773438 -11.914062 8.753906 -11.300781 8.734375 -10.6875 C 8.722656 -10.070312 8.710938 -9.46875 8.703125 -8.875 C 8.703125 -8.289062 8.703125 -7.726562 8.703125 -7.1875 C 8.703125 -6.65625 8.703125 -6.09375 8.703125 -5.5 C 8.710938 -4.90625 8.722656 -4.300781 8.734375 -3.6875 C 8.753906 -3.070312 8.773438 -2.453125 8.796875 -1.828125 C 8.816406 -1.203125 8.84375 -0.59375 8.875 0 L 6.9375 0 C 6.582031 -1.019531 6.234375 -1.992188 5.890625 -2.921875 C 5.554688 -3.847656 5.21875 -4.742188 4.875 -5.609375 C 4.539062 -6.484375 4.203125 -7.332031 3.859375 -8.15625 C 3.523438 -8.976562 3.191406 -9.800781 2.859375 -10.625 L 2.796875 -10.625 C 2.773438 -10.007812 2.765625 -9.414062 2.765625 -8.84375 C 2.773438 -8.269531 2.78125 -7.71875 2.78125 -7.1875 C 2.78125 -6.65625 2.78125 -6.09375 2.78125 -5.5 C 2.789062 -4.90625 2.800781 -4.300781 2.8125 -3.6875 C 2.832031 -3.070312 2.851562 -2.453125 2.875 -1.828125 C 2.894531 -1.203125 2.921875 -0.59375 2.953125 0 L 1.046875 0 C 1.085938 -0.59375 1.117188 -1.203125 1.140625 -1.828125 C 1.171875 -2.453125 1.191406 -3.070312 1.203125 -3.6875 C 1.210938 -4.300781 1.222656 -4.90625 1.234375 -5.5 C 1.242188 -6.09375 1.25 -6.65625 1.25 -7.1875 C 1.25 -7.726562 1.242188 -8.289062 1.234375 -8.875 C 1.222656 -9.46875 1.210938 -10.070312 1.203125 -10.6875 C 1.191406 -11.300781 1.171875 -11.914062 1.140625 -12.53125 C 1.117188 -13.15625 1.085938 -13.765625 1.046875 -14.359375 L 3 -14.359375 C 3.707031 -12.304688 4.394531 -10.367188 5.0625 -8.546875 C 5.738281 -6.734375 6.414062 -5.015625 7.09375 -3.390625 L 7.171875 -3.390625 C 7.179688 -3.691406 7.1875 -4.007812 7.1875 -4.34375 C 7.1875 -4.675781 7.179688 -5.007812 7.171875 -5.34375 C 7.171875 -5.675781 7.164062 -6 7.15625 -6.3125 C 7.15625 -6.625 7.15625 -6.914062 7.15625 -7.1875 C 7.15625 -7.726562 7.148438 -8.289062 7.140625 -8.875 C 7.140625 -9.46875 7.128906 -10.070312 7.109375 -10.6875 C 7.097656 -11.300781 7.082031 -11.914062 7.0625 -12.53125 C 7.039062 -13.15625 7.007812 -13.765625 6.96875 -14.359375 Z M 8.890625 -14.359375 "/></g></g></g><g fill="rgb(0.389099%, 81.17981%, 64.309692%)" fill-opacity="1"><g transform="translate(104.766944, 57.028979)"><g><path d="M 3.078125 -14.359375 C 3.035156 -13.765625 3.003906 -13.15625 2.984375 -12.53125 C 2.960938 -11.914062 2.941406 -11.300781 2.921875 -10.6875 C 2.910156 -10.070312 2.898438 -9.46875 2.890625 -8.875 C 2.890625 -8.289062 2.890625 -7.726562 2.890625 -7.1875 C 2.890625 -6.65625 2.890625 -6.09375 2.890625 -5.5 C 2.898438 -4.90625 2.910156 -4.300781 2.921875 -3.6875 C 2.941406 -3.070312 2.960938 -2.453125 2.984375 -1.828125 C 3.003906 -1.203125 3.03125 -0.59375 3.0625 0 L 1.109375 0 C 1.148438 -0.59375 1.179688 -1.203125 1.203125 -1.828125 C 1.234375 -2.453125 1.253906 -3.070312 1.265625 -3.6875 C 1.273438 -4.300781 1.285156 -4.90625 1.296875 -5.5 C 1.304688 -6.09375 1.3125 -6.65625 1.3125 -7.1875 C 1.3125 -7.726562 1.304688 -8.289062 1.296875 -8.875 C 1.285156 -9.46875 1.273438 -10.070312 1.265625 -10.6875 C 1.253906 -11.300781 1.234375 -11.914062 1.203125 -12.53125 C 1.179688 -13.15625 1.148438 -13.765625 1.109375 -14.359375 Z M 3.078125 -14.359375 "/></g></g></g><g fill="rgb(0.389099%, 81.17981%, 64.309692%)" fill-opacity="1"><g transform="translate(109.385024, 57.028979)"><g><path d="M 9.765625 -7.171875 C 9.765625 -5.878906 9.648438 -4.765625 9.421875 -3.828125 C 9.191406 -2.890625 8.867188 -2.113281 8.453125 -1.5 C 8.046875 -0.894531 7.566406 -0.445312 7.015625 -0.15625 C 6.472656 0.132812 5.882812 0.28125 5.25 0.28125 C 4.601562 0.28125 4.003906 0.132812 3.453125 -0.15625 C 2.910156 -0.445312 2.429688 -0.894531 2.015625 -1.5 C 1.609375 -2.113281 1.285156 -2.890625 1.046875 -3.828125 C 0.816406 -4.765625 0.703125 -5.878906 0.703125 -7.171875 C 0.703125 -8.453125 0.816406 -9.5625 1.046875 -10.5 C 1.285156 -11.4375 1.609375 -12.210938 2.015625 -12.828125 C 2.429688 -13.441406 2.910156 -13.894531 3.453125 -14.1875 C 4.003906 -14.476562 4.601562 -14.625 5.25 -14.625 C 5.882812 -14.625 6.472656 -14.476562 7.015625 -14.1875 C 7.566406 -13.894531 8.046875 -13.441406 8.453125 -12.828125 C 8.867188 -12.210938 9.191406 -11.4375 9.421875 -10.5 C 9.648438 -9.5625 9.765625 -8.453125 9.765625 -7.171875 Z M 7.96875 -7.171875 C 7.96875 -8.242188 7.894531 -9.171875 7.75 -9.953125 C 7.613281 -10.734375 7.421875 -11.375 7.171875 -11.875 C 6.929688 -12.382812 6.644531 -12.757812 6.3125 -13 C 5.988281 -13.238281 5.632812 -13.359375 5.25 -13.359375 C 4.851562 -13.359375 4.488281 -13.238281 4.15625 -13 C 3.832031 -12.757812 3.546875 -12.382812 3.296875 -11.875 C 3.046875 -11.375 2.851562 -10.734375 2.71875 -9.953125 C 2.582031 -9.171875 2.515625 -8.242188 2.515625 -7.171875 C 2.515625 -6.085938 2.582031 -5.15625 2.71875 -4.375 C 2.851562 -3.59375 3.046875 -2.953125 3.296875 -2.453125 C 3.546875 -1.953125 3.832031 -1.582031 4.15625 -1.34375 C 4.488281 -1.101562 4.851562 -0.984375 5.25 -0.984375 C 5.632812 -0.984375 5.988281 -1.101562 6.3125 -1.34375 C 6.644531 -1.582031 6.929688 -1.953125 7.171875 -2.453125 C 7.421875 -2.953125 7.613281 -3.59375 7.75 -4.375 C 7.894531 -5.15625 7.96875 -6.085938 7.96875 -7.171875 Z M 7.96875 -7.171875 "/></g></g></g><g fill="rgb(0.389099%, 81.17981%, 64.309692%)" fill-opacity="1"><g transform="translate(120.282946, 57.028979)"><g><path d="M 8.890625 -14.359375 C 8.847656 -13.765625 8.816406 -13.15625 8.796875 -12.53125 C 8.773438 -11.914062 8.753906 -11.300781 8.734375 -10.6875 C 8.722656 -10.070312 8.710938 -9.46875 8.703125 -8.875 C 8.703125 -8.289062 8.703125 -7.726562 8.703125 -7.1875 C 8.703125 -6.65625 8.703125 -6.09375 8.703125 -5.5 C 8.710938 -4.90625 8.722656 -4.300781 8.734375 -3.6875 C 8.753906 -3.070312 8.773438 -2.453125 8.796875 -1.828125 C 8.816406 -1.203125 8.84375 -0.59375 8.875 0 L 6.9375 0 C 6.582031 -1.019531 6.234375 -1.992188 5.890625 -2.921875 C 5.554688 -3.847656 5.21875 -4.742188 4.875 -5.609375 C 4.539062 -6.484375 4.203125 -7.332031 3.859375 -8.15625 C 3.523438 -8.976562 3.191406 -9.800781 2.859375 -10.625 L 2.796875 -10.625 C 2.773438 -10.007812 2.765625 -9.414062 2.765625 -8.84375 C 2.773438 -8.269531 2.78125 -7.71875 2.78125 -7.1875 C 2.78125 -6.65625 2.78125 -6.09375 2.78125 -5.5 C 2.789062 -4.90625 2.800781 -4.300781 2.8125 -3.6875 C 2.832031 -3.070312 2.851562 -2.453125 2.875 -1.828125 C 2.894531 -1.203125 2.921875 -0.59375 2.953125 0 L 1.046875 0 C 1.085938 -0.59375 1.117188 -1.203125 1.140625 -1.828125 C 1.171875 -2.453125 1.191406 -3.070312 1.203125 -3.6875 C 1.210938 -4.300781 1.222656 -4.90625 1.234375 -5.5 C 1.242188 -6.09375 1.25 -6.65625 1.25 -7.1875 C 1.25 -7.726562 1.242188 -8.289062 1.234375 -8.875 C 1.222656 -9.46875 1.210938 -10.070312 1.203125 -10.6875 C 1.191406 -11.300781 1.171875 -11.914062 1.140625 -12.53125 C 1.117188 -13.15625 1.085938 -13.765625 1.046875 -14.359375 L 3 -14.359375 C 3.707031 -12.304688 4.394531 -10.367188 5.0625 -8.546875 C 5.738281 -6.734375 6.414062 -5.015625 7.09375 -3.390625 L 7.171875 -3.390625 C 7.179688 -3.691406 7.1875 -4.007812 7.1875 -4.34375 C 7.1875 -4.675781 7.179688 -5.007812 7.171875 -5.34375 C 7.171875 -5.675781 7.164062 -6 7.15625 -6.3125 C 7.15625 -6.625 7.15625 -6.914062 7.15625 -7.1875 C 7.15625 -7.726562 7.148438 -8.289062 7.140625 -8.875 C 7.140625 -9.46875 7.128906 -10.070312 7.109375 -10.6875 C 7.097656 -11.300781 7.082031 -11.914062 7.0625 -12.53125 C 7.039062 -13.15625 7.007812 -13.765625 6.96875 -14.359375 Z M 8.890625 -14.359375 "/></g></g></g></svg>